<?xml version="1.0" standalone="no"?>
<!DOCTYPE svg PUBLIC "-//W3C//DTD SVG 1.1//EN" "http://www.w3.org/Graphics/SVG/1.1/DTD/svg11.dtd" >
<svg xmlns="http://www.w3.org/2000/svg" xmlns:xlink="http://www.w3.org/1999/xlink" version="1.1">
<metadata>
Created by FontForge 20170731 at Fri Sep  9 14:43:15 2016
 By Aleksey,,,
Designed by Paul van der Laan &#38; Pieter van Rosmalen 2008. Produced by Bold Monday. For exclusive use by AUDI AG and its affiliates only.
</metadata>
<defs>
<font id="AudiTypeScreen-Normal" horiz-adv-x="2719" >
  <font-face 
    font-family="Audi Type Screen"
    font-weight="400"
    font-stretch="normal"
    units-per-em="4096"
    panose-1="2 11 5 3 4 2 0 0 0 3"
    ascent="3113"
    descent="-983"
    x-height="2101"
    cap-height="2966"
    bbox="-780 -970 9085 4014"
    underline-thickness="205"
    underline-position="-614"
    unicode-range="U+000D-FEFF"
  />
<missing-glyph horiz-adv-x="1091" 
d="M223 -861v3779h647v-3779h-647z" />
    <glyph glyph-name="uniFB00" unicode="ff" horiz-adv-x="3220" 
d="M2121 0v1798h-1176v-1798h-368v1798h-485v303h485v257q0 188 51 332.5t148.5 241.5t238.5 147t322 50q77 0 145.5 -5.5t127.5 -14.5t107.5 -22t88.5 -28v-299q-46 15 -92 25t-95.5 17t-102 10t-111.5 3q-132 0 -221 -29t-142 -90t-75 -154.5t-22 -222.5v-218h1176v257
q0 188 51.5 332.5t148.5 241.5t238.5 147t321.5 50q78 0 146.5 -5.5t127 -14.5t108 -22t88.5 -28v-299q-45 15 -92 25t-96 17t-102 10t-111 3q-133 0 -221 -29t-141.5 -90t-75.5 -154.5t-22 -222.5v-218h714v-303h-714v-1798h-369z" />
    <glyph glyph-name="fi" unicode="fi" horiz-adv-x="2872" 
d="M2106 0v1798h-1161v-1798h-368v1798h-485v303h485v257q0 188 51 332.5t148.5 241.5t238.5 147t322 50q77 0 145.5 -5.5t127.5 -14.5t107.5 -22t88.5 -28v-299q-46 15 -92 25t-95.5 17t-102 10t-111.5 3q-132 0 -221 -29t-142 -90t-75 -154.5t-22 -222.5v-218h1530v-2101
h-369zM2106 2537v429h369v-429h-369z" />
    <glyph glyph-name="fl" unicode="fl" horiz-adv-x="3016" 
d="M577 0v1798h-485v303h485v257q0 188 51 332.5t148.5 241.5t238.5 147t322 50q77 0 145.5 -5.5t127.5 -14.5t107.5 -22t88.5 -28v-299q-46 15 -92 25t-95.5 17t-102 10t-111.5 3q-132 0 -221 -29t-142 -90t-75 -154.5t-22 -222.5v-218h713v-303h-713v-1798h-368zM2916 23
q-35 -11 -76.5 -20.5t-88 -17t-97.5 -11t-107 -3.5q-116 0 -205 28t-149.5 88t-92 153.5t-31.5 224.5v2615h368v-2573q0 -54 9.5 -94.5t32.5 -68t61.5 -41t97.5 -13.5q73 0 144 7t134 20v-294z" />
    <glyph glyph-name="uniFB03" unicode="ffi" horiz-adv-x="4417" 
d="M3651 0v1798h-1161v-1798h-369v1798h-1176v-1798h-368v1798h-485v303h485v257q0 188 51 332.5t148.5 241.5t238.5 147t322 50q77 0 145.5 -5.5t127.5 -14.5t107.5 -22t88.5 -28v-299q-46 15 -92 25t-95.5 17t-102 10t-111.5 3q-132 0 -221 -29t-142 -90t-75 -154.5
t-22 -222.5v-218h1176v257q0 188 51.5 332.5t148.5 241.5t238.5 147t321.5 50q78 0 146.5 -5.5t127 -14.5t108 -22t88.5 -28v-299q-45 15 -92 25t-96 17t-102 10t-111 3q-133 0 -221 -29t-141.5 -90t-75.5 -154.5t-22 -222.5v-218h1529v-2101h-368zM3651 2537v429h368v-429
h-368z" />
    <glyph glyph-name="uniFB04" unicode="ffl" horiz-adv-x="4562" 
d="M2121 0v1798h-1176v-1798h-368v1798h-485v303h485v257q0 188 51 332.5t148.5 241.5t238.5 147t322 50q77 0 145.5 -5.5t127.5 -14.5t107.5 -22t88.5 -28v-299q-46 15 -92 25t-95.5 17t-102 10t-111.5 3q-132 0 -221 -29t-142 -90t-75 -154.5t-22 -222.5v-218h1176v257
q0 188 51.5 332.5t148.5 241.5t238.5 147t321.5 50q78 0 146.5 -5.5t127 -14.5t108 -22t88.5 -28v-299q-45 15 -92 25t-96 17t-102 10t-111 3q-133 0 -221 -29t-141.5 -90t-75.5 -154.5t-22 -222.5v-218h714v-303h-714v-1798h-369zM4461 23q-35 -11 -76.5 -20.5t-88 -17
t-97.5 -11t-107 -3.5q-116 0 -205 28t-149.5 88t-92 153.5t-31.5 224.5v2615h368v-2573q0 -54 9.5 -94.5t32.5 -68t61.5 -41t97.5 -13.5q73 0 144 7t134 20v-294z" />
    <glyph glyph-name=".notdef" horiz-adv-x="1091" 
d="M223 -861v3779h647v-3779h-647z" />
    <glyph glyph-name=".null" horiz-adv-x="0" 
 />
    <glyph glyph-name=".null" horiz-adv-x="0" 
 />
    <glyph glyph-name="nonmarkingreturn" unicode="&#xd;" horiz-adv-x="1077" 
 />
    <glyph glyph-name="space" unicode=" " horiz-adv-x="1077" 
 />
    <glyph glyph-name="exclam" unicode="!" horiz-adv-x="1408" 
d="M610 815l-41 430q-5 48 -11.5 114.5t-13.5 144.5t-14 163t-12.5 170.5t-9 167.5t-3.5 154v807h402v-807q0 -72 -3.5 -154t-9 -167.5t-12.5 -170.5t-14.5 -163t-13.5 -144.5t-10 -114.5l-42 -430h-192zM473 0v456h462v-456h-462z" />
    <glyph glyph-name="quotedbl" unicode="&#x22;" horiz-adv-x="1756" 
d="M427 1949l-42 175q-6 29 -16.5 74.5t-20.5 97.5t-18 105t-8 97v468h391v-468q0 -44 -7.5 -97t-17 -105t-20 -97.5t-16.5 -74.5l-42 -175h-183zM1147 1949l-42 175q-6 29 -16.5 74.5t-20.5 97.5t-18 105t-8 97v468h391v-468q0 -44 -7.5 -97t-17 -105t-20 -97.5
t-16.5 -74.5l-42 -175h-183z" />
    <glyph glyph-name="numbersign" unicode="#" 
d="M1508 184l64 659h-544l-63 -659h-314l63 659h-368v282h394l73 763h-467v282h496l53 546h315l-54 -546h543l53 546h315l-53 -546h358v-282h-387l-74 -763h461v-282h-486l-63 -659h-315zM1670 1888h-542l-74 -763h543z" />
    <glyph glyph-name="dollar" unicode="$" 
d="M1137 -264v354q-118 3 -229.5 18.5t-210.5 38t-182.5 51t-144.5 59.5v309q45 -20 104.5 -39.5t128.5 -38t145 -34t154 -27t156.5 -18.5t152.5 -7q171 0 311.5 30.5t241 89.5t156 145t55.5 198q0 75 -22 132.5t-63.5 102.5t-101 79.5t-135.5 63t-166 53t-192 50.5
q-218 56 -385 121t-279.5 156t-170 215t-57.5 297q0 147 50.5 272t150 220.5t248.5 159t346 87.5v388h328v-374q109 -4 208.5 -18.5t188 -37t164 -52t136.5 -64.5v-306q-72 36 -161 67.5t-189.5 54.5t-210 36.5t-222.5 13.5q-152 0 -272.5 -32t-205 -90.5t-129.5 -141
t-45 -182.5q0 -76 22 -133.5t63 -102t100.5 -79t135.5 -63t166 -53.5t193 -50q216 -55 382 -120t279.5 -156.5t171.5 -216t58 -296.5q0 -148 -62 -276.5t-177.5 -228.5t-281.5 -167t-372 -93v-365h-329z" />
    <glyph glyph-name="percent" unicode="%" horiz-adv-x="4076" 
d="M1032 1505q-182 0 -319.5 58.5t-229.5 161.5t-138.5 243t-46.5 303q0 165 49 306.5t143 244.5t231 161t311 58q184 0 322 -58t229.5 -161t137.5 -244.5t46 -306.5q0 -108 -21.5 -207.5t-64.5 -184.5t-105.5 -154.5t-144 -118t-181.5 -75t-218 -26.5zM1032 1765
q102 0 176 36t122 102t71 159.5t23 208.5q0 117 -23 211t-71 160.5t-122 102.5t-176 36q-101 0 -175 -36t-123 -102.5t-72.5 -160.5t-23.5 -211q0 -115 23.5 -208.5t72.5 -159.5t123 -102t175 -36zM3044 -36q-183 0 -320.5 58t-229.5 161t-138.5 243.5t-46.5 303.5
q0 165 49.5 306t143.5 244t230.5 161.5t311.5 58.5q183 0 321.5 -58.5t230 -161.5t137.5 -244t46 -306q0 -163 -49 -303.5t-142.5 -243.5t-230.5 -161t-313 -58zM3044 224q102 0 175.5 36t121.5 102t71 159.5t23 208.5q0 117 -23 211t-71 160.5t-121.5 102.5t-175.5 36
q-101 0 -175 -36t-123 -102.5t-73 -160.5t-24 -211q0 -115 24 -208.5t73 -159.5t123 -102t175 -36zM845 0l1956 2966h367l-1954 -2966h-369z" />
    <glyph glyph-name="ampersand" unicode="&#x26;" horiz-adv-x="3396" 
d="M2693 0l-352 322q-101 -88 -217 -157t-247 -117t-276 -72.5t-303 -24.5q-173 0 -319 27.5t-263.5 77.5t-207.5 121.5t-150.5 159.5t-91.5 191t-31 218q0 96 18.5 181.5t55 161.5t91 144t126.5 129.5t161.5 117t196.5 107.5l49 24l-9 8q-83 74 -157.5 149t-131.5 159
t-90.5 181.5t-33.5 216.5q0 108 26 202t76 170t123.5 135.5t168 100t208.5 61.5t246 21q198 0 353.5 -48t263 -132.5t164 -200.5t56.5 -252q0 -133 -49.5 -248.5t-137 -215t-208 -184t-262.5 -155.5l-38 -19l819 -745q43 68 77 145.5t57.5 163t36 179t12.5 193.5v236h712
v-296h-350q-5 -125 -27 -241.5t-59 -224.5t-87.5 -205.5t-114.5 -185.5l634 -579h-518zM1170 1397l-53 -28q-120 -59 -210 -121.5t-150.5 -135t-91 -156t-30.5 -183.5q0 -109 45.5 -200.5t133.5 -158t216.5 -104t294.5 -37.5q118 0 225 17.5t204 52t182.5 85t160.5 118.5z
M1322 1803q127 64 219 128t152.5 131.5t89 141t28.5 155.5q0 66 -30.5 127.5t-88.5 109.5t-141.5 77t-191.5 29q-96 0 -179.5 -22.5t-145.5 -69t-98 -118.5t-36 -170q0 -83 20.5 -147.5t61 -123t100.5 -116t139 -125.5l45 -35z" />
    <glyph glyph-name="quotesingle" unicode="'" horiz-adv-x="1036" 
d="M427 1949l-42 175q-6 29 -16.5 74.5t-20.5 97.5t-18 105t-8 97v468h391v-468q0 -44 -7.5 -97t-17 -105t-20 -97.5t-16.5 -74.5l-42 -175h-183z" />
    <glyph glyph-name="parenleft" unicode="(" horiz-adv-x="1592" 
d="M1219 -377q-129 71 -240.5 178t-204 240t-165.5 289t-123 325.5t-76 349t-26 359.5q0 181 26 360.5t76 349.5t123 325.5t165.5 288.5t204 239.5t240.5 177.5h298q-107 -77 -203 -187.5t-179 -246t-149 -291.5t-113 -324t-72 -343t-25 -349q0 -173 25 -348t72 -343
t113 -324t149 -292t179 -246.5t203 -187.5h-298z" />
    <glyph glyph-name="parenright" unicode=")" horiz-adv-x="1592" 
d="M75 -377q106 77 202.5 187.5t179.5 246.5t149 292t113 324t72 343t25 348q0 174 -25 349t-72 343t-113 324t-149 291.5t-179.5 246t-202.5 187.5h298q128 -71 240 -177.5t204.5 -239.5t165.5 -288.5t123 -325.5t76 -349.5t26 -360.5q0 -180 -26 -359.5t-76 -349
t-123 -325.5t-165.5 -289t-204.5 -240t-240 -178h-298z" />
    <glyph glyph-name="asterisk" unicode="*" horiz-adv-x="1936" 
d="M1210 1626l-140 242q-15 24 -29.5 54t-27.5 62.5t-24.5 65.5t-20.5 64q-11 -31 -23 -64t-25 -65.5t-27 -62.5t-27 -54l-140 -242l-241 135l139 246q28 50 72 106t88 103q-65 -12 -134.5 -22.5t-127.5 -10.5h-290v279h290q58 0 127.5 -10.5t134.5 -22.5q-44 46 -88 102.5
t-72 106.5l-139 246l241 135l140 -242q13 -24 27 -54t27 -62.5t25 -65.5t23 -64q9 31 20.5 64t24.5 65.5t27.5 62.5t29.5 54l140 242l241 -135l-139 -246q-15 -25 -34.5 -52t-40.5 -55t-43 -55t-42 -51q31 7 65 14t68 12t67 8t62 3h290v-279h-290q-29 0 -62 2t-67 6.5
t-68 10.5t-65 14q41 -50 85 -104.5t75 -104.5l139 -246z" />
    <glyph glyph-name="plus" unicode="+" horiz-adv-x="2522" 
d="M1094 180v892h-885v300h885v873h334v-873h886v-300h-886v-892h-334z" />
    <glyph glyph-name="comma" unicode="," horiz-adv-x="1333" 
d="M190 -597l306 604l-74 456h331q53 0 91 -11t63 -33t37 -54.5t12 -77.5q0 -52 -9.5 -106t-30.5 -111t-52.5 -118.5t-75 -129.5t-100 -143.5t-125.5 -160.5l-97 -115h-276z" />
    <glyph glyph-name="hyphen" unicode="-" horiz-adv-x="1575" 
d="M233 1043v371h1109v-371h-1109z" />
    <glyph glyph-name="period" unicode="." horiz-adv-x="1333" 
d="M435 0v456h463v-456h-463z" />
    <glyph glyph-name="slash" unicode="/" horiz-adv-x="1936" 
d="M89 0l1399 3080h356l-1396 -3080h-359z" />
    <glyph glyph-name="zero" unicode="0" 
d="M1353 -49q-215 0 -380 52.5t-288 149t-206.5 234t-134.5 307t-73 368.5t-22 418q0 220 23 418.5t75.5 369.5t137.5 309t208.5 235t288 150t377.5 53q216 0 382.5 -52.5t290.5 -149t208 -234t136.5 -307.5t75 -368.5t22.5 -417.5q0 -220 -23.5 -419t-76 -369.5
t-138 -308.5t-210 -235t-291.5 -150t-382 -53zM1359 271q136 0 242.5 41t186 117.5t135.5 185t90.5 243.5t49.5 292.5t15 332.5q0 174 -15 331.5t-49.5 292.5t-90.5 243t-135.5 185t-186 118t-242.5 41t-242 -41t-185 -117.5t-134 -185t-89 -243.5t-49 -292t-15 -332
q0 -174 15 -332t49 -293t89 -243t134 -185t185 -118t242 -41z" />
    <glyph glyph-name="one" unicode="1" 
d="M1353 0v2602l-786 -136v317l934 183h237v-2966h-385z" />
    <glyph glyph-name="two" unicode="2" 
d="M309 0v294l763 734q124 119 228.5 224t190 200.5t150.5 183.5t109.5 172t67 166.5t22.5 167.5q0 122 -37.5 221t-114 168t-194 106t-277.5 37q-126 0 -238.5 -10t-214 -30.5t-192.5 -51t-174 -72.5v338q73 41 160 72t189.5 52.5t219.5 32t252 10.5q180 0 325.5 -27.5
t259 -79t195 -126.5t134.5 -170t78 -209.5t25 -245.5q0 -128 -32 -245.5t-90.5 -229t-140 -219t-180.5 -215t-213.5 -217t-236.5 -223.5l-515 -491h1527v-317h-2046z" />
    <glyph glyph-name="three" unicode="3" 
d="M339 444q79 -32 174.5 -61.5t203.5 -52t227.5 -36t245.5 -13.5q169 0 299 38t218.5 107t134.5 166t46 216q0 128 -47.5 233t-142 180t-236.5 115.5t-332 40.5h-282v320h282q156 0 276.5 33.5t202 99.5t124 164t42.5 227q0 76 -20 139.5t-56.5 115t-89.5 90.5t-119 64.5
t-144.5 38.5t-166.5 13q-112 0 -219 -13t-205.5 -36t-184.5 -53.5t-153 -64.5v335q43 22 96 43.5t114 40.5t128 34t138.5 25t146.5 16t152 6q237 0 419.5 -49.5t307 -147.5t188.5 -243.5t64 -336.5q0 -110 -27.5 -210t-81.5 -186t-133.5 -157t-183.5 -123
q136 -51 237 -127.5t168.5 -174t101 -213t33.5 -242.5q0 -124 -30 -235t-90 -206t-150.5 -171t-211 -130t-271.5 -83t-333 -29q-140 0 -263.5 11t-231 32t-199 51.5t-166.5 69.5v329z" />
    <glyph glyph-name="four" unicode="4" 
d="M1665 0v658h-1549l-1 310l1559 1998h376v-1990h513v-318h-513v-658h-385zM1665 2100q0 75 2.5 169t7.5 192q-55 -77 -111.5 -155t-109.5 -145l-919 -1185h1130v1124z" />
    <glyph glyph-name="five" unicode="5" 
d="M383 444q77 -32 173 -61.5t205.5 -52t228 -36t241.5 -13.5q189 0 323.5 42.5t220.5 119.5t126 183t40 234q0 112 -43.5 197.5t-119.5 150t-176.5 109.5t-215.5 75t-236.5 47.5t-239 26.5t-223.5 12t-189 5l53 1483h1672v-325h-1310l-32 -831q115 -6 238 -18t247 -34.5
t244.5 -57.5t228.5 -86t200 -120.5t159 -161t105 -207.5t38 -260q0 -130 -28 -248t-85 -219.5t-146 -184t-211.5 -140.5t-280 -90t-351.5 -32q-136 0 -259 10.5t-231.5 31.5t-200 51.5t-165.5 69.5v330z" />
    <glyph glyph-name="six" unicode="6" 
d="M2316 2582q-68 21 -137.5 40t-146 32.5t-162.5 21.5t-185 8q-235 0 -410.5 -66.5t-297 -200.5t-190.5 -335t-90 -469q71 63 155 113.5t178.5 86t198.5 54.5t218 19q169 0 311.5 -33t257.5 -94t201.5 -147.5t145 -194.5t88 -234.5t29.5 -266.5q0 -126 -28 -246t-85 -227.5
t-143.5 -197.5t-204 -155.5t-266.5 -102t-331 -36.5q-270 0 -480 90.5t-354.5 267t-219.5 437.5t-75 602q0 404 85 715t256.5 522.5t431 320.5t606.5 109q111 0 203 -7.5t170 -20.5t145 -31t126 -40v-334zM682 1320q2 -192 27.5 -345.5t72 -270.5t112.5 -200.5t147.5 -136.5
t177.5 -77.5t203 -24.5q163 0 287.5 47t208 133t126.5 205.5t43 265.5q0 149 -42.5 269t-126 204.5t-210.5 130t-296 45.5q-100 0 -197 -15.5t-188.5 -46t-178 -76.5t-166.5 -107z" />
    <glyph glyph-name="seven" unicode="7" 
d="M590 0l1375 2641h-1627v325h2045v-321l-1373 -2645h-420z" />
    <glyph glyph-name="eight" unicode="8" 
d="M1933 1553q88 -33 162 -77.5t134 -99.5t105 -119.5t75.5 -138.5t46 -155.5t15.5 -170.5q0 -122 -28.5 -231t-87 -202.5t-148.5 -169t-213.5 -128.5t-280.5 -81.5t-350 -28.5q-196 0 -355 28.5t-282.5 81.5t-213 128.5t-147.5 169t-86 202.5t-28 231q0 89 16 170.5
t46.5 155.5t76 138.5t105.5 119.5t133.5 99.5t160.5 77.5q-105 49 -184 119t-132 157t-79.5 188.5t-26.5 214.5q0 191 65.5 337.5t191.5 245.5t312 149.5t427 50.5q243 0 428.5 -50.5t311.5 -149.5t190.5 -245.5t64.5 -337.5q0 -113 -26.5 -214.5t-80.5 -188.5t-133.5 -157
t-184.5 -119zM2072 811q0 114 -42 217t-129 181t-220.5 124.5t-317.5 46.5t-317.5 -46.5t-220.5 -124.5t-129 -181t-42 -217q0 -119 42.5 -218.5t130.5 -171t221.5 -112t314.5 -40.5q180 0 313.5 40.5t221.5 112t131 171t43 218.5zM1962 2218q0 117 -41 206.5t-118 151
t-188.5 93t-251.5 31.5q-141 0 -252.5 -31.5t-188.5 -93t-117.5 -151t-40.5 -206.5t38 -213t113.5 -165t187.5 -107t260 -38q147 0 259.5 38t187.5 107t113.5 165t38.5 213z" />
    <glyph glyph-name="nine" unicode="9" 
d="M404 384q68 -22 137.5 -40.5t146 -32.5t162.5 -22t186 -8q239 0 417 70t299 211t187.5 353t83.5 497q-72 -64 -156 -114.5t-179.5 -86.5t-200.5 -55t-219 -19q-253 0 -446.5 69t-323.5 193.5t-196 298t-66 381.5q0 124 28.5 241.5t86 221.5t144.5 191t204.5 149.5
t266 97.5t328.5 35q269 0 479.5 -90.5t355 -267t219.5 -438t75 -601.5q0 -404 -84.5 -715t-255 -522.5t-429 -320.5t-605.5 -109q-112 0 -204 7.5t-170.5 20.5t-144.5 31t-126 39v335zM2033 1703q-6 182 -34 326.5t-75.5 255.5t-113 190t-145.5 129t-174 73t-197 23
q-161 0 -285 -44.5t-208.5 -126t-127.5 -196t-43 -254.5q0 -144 41.5 -259t125.5 -195.5t211 -123.5t296 -43q100 0 196.5 15.5t188 46.5t178 76.5t166.5 106.5z" />
    <glyph glyph-name="colon" unicode=":" horiz-adv-x="1333" 
d="M435 1645v456h463v-456h-463zM435 0v456h463v-456h-463z" />
    <glyph glyph-name="semicolon" unicode=";" horiz-adv-x="1333" 
d="M435 1645v456h463v-456h-463zM190 -597l306 604l-74 456h331q53 0 91 -11t63 -33t37 -54.5t12 -77.5q0 -52 -9.5 -106t-30.5 -111t-52.5 -118.5t-75 -129.5t-100 -143.5t-125.5 -160.5l-97 -115h-276z" />
    <glyph glyph-name="less" unicode="&#x3c;" horiz-adv-x="2522" 
d="M1675 180l-1347 1035l1347 1030h519l-1347 -1030l1347 -1035h-519z" />
    <glyph glyph-name="equal" unicode="=" horiz-adv-x="2522" 
d="M268 663v299h1986v-299h-1986zM268 1482v300h1986v-300h-1986z" />
    <glyph glyph-name="greater" unicode="&#x3e;" horiz-adv-x="2522" 
d="M847 180h-519l1347 1035l-1347 1030h519l1347 -1030z" />
    <glyph glyph-name="question" unicode="?" horiz-adv-x="2137" 
d="M701 814l-36 475l349 339q94 93 179 178t148.5 169t101.5 171t38 185q0 84 -38 148t-106 107.5t-160 65.5t-200 22q-70 0 -138 -5t-134 -15t-129.5 -25t-124 -34t-118 -43t-112.5 -50v336q74 41 163.5 74t191.5 56t215 35t236 12q100 0 202 -15.5t196.5 -48.5t177 -84.5
t143.5 -122t96 -162t35 -205.5q0 -106 -24 -199.5t-66.5 -177.5t-98.5 -160t-119.5 -144t-130.5 -131t-130 -122l-297 -266l-25 -363h-285zM608 0v456h463v-456h-463z" />
    <glyph glyph-name="at" unicode="@" horiz-adv-x="4309" 
d="M2892 -717q-47 -20 -101 -36.5t-113 -30t-124 -24.5t-135.5 -18.5t-146.5 -11t-157 -3.5q-311 0 -568 57t-462 163t-358 258t-254 342.5t-151.5 415.5t-50.5 477q0 315 67 596.5t194 520t311.5 428.5t418 322.5t513 204t598.5 71.5q294 0 531.5 -58.5t422 -162.5
t319 -248t221.5 -315.5t129 -364.5t42 -394q0 -217 -40 -402t-111.5 -336.5t-171.5 -268t-220 -195t-258 -119.5t-284 -41q-85 0 -161.5 17t-138 50t-106 81t-65.5 111q-54 -67 -120 -117t-143.5 -82.5t-166.5 -48.5t-187 -16q-151 0 -277.5 53.5t-218.5 152.5t-143.5 239
t-51.5 312q0 154 33.5 306t98 288.5t160 253t219.5 201t275.5 133t329.5 48.5q77 0 152 -10.5t143 -29.5t128.5 -48t109.5 -67l65 109h272l-333 -1470q-5 -20 -7.5 -39.5t-2.5 -37.5q0 -29 14.5 -52.5t41.5 -41.5t64 -27.5t83 -9.5q81 0 162 29.5t155 90t138.5 152
t112 215.5t74.5 279.5t27 345.5q0 174 -32.5 334t-100.5 299t-174 252t-252.5 193.5t-336.5 124.5t-426 44q-272 0 -505.5 -60.5t-425 -174.5t-339.5 -277t-249 -367t-153 -445t-52 -511q0 -225 40.5 -420t122 -356t204.5 -286.5t287.5 -211.5t371.5 -130.5t457 -44.5
q126 0 234 8.5t202 25t175.5 40t154.5 54.5v-288zM2740 1713q-40 19 -86.5 36t-100 29t-114.5 19t-127 7q-125 0 -231 -34t-192.5 -95t-153 -145.5t-111.5 -185.5t-68.5 -215t-23.5 -233q0 -125 31 -220t87.5 -159t137 -96.5t180.5 -32.5q89 0 163 15.5t138 45t118.5 71
t104.5 92.5z" />
    <glyph glyph-name="A" unicode="A" horiz-adv-x="2819" 
d="M2337 0l-275 753h-1325l-274 -753h-395l1129 2966h418l1136 -2966h-414zM1518 2260q-34 87 -65 183t-51 198q-23 -102 -56 -197.5t-63 -183.5l-432 -1180h1094z" />
    <glyph glyph-name="B" unicode="B" horiz-adv-x="2731" 
d="M428 0v2966h879q258 0 450 -52.5t320 -153t191 -248t63 -337.5q0 -117 -26.5 -214.5t-76 -175t-121.5 -137.5t-164 -103q125 -45 223.5 -115t167.5 -163t105 -207t36 -246q0 -124 -27 -232t-83 -198.5t-142.5 -161.5t-205 -120.5t-269.5 -75.5t-337 -26h-983zM1372 316
q184 0 317.5 34.5t219.5 99.5t127.5 159.5t41.5 214.5q0 121 -38.5 219t-120 167t-208 106t-302.5 37h-596v-1037h559zM1294 1654q172 0 293.5 33t198.5 98t112.5 160.5t35.5 219.5q0 113 -41.5 203t-126 152.5t-214 95.5t-304.5 33h-435v-995h481z" />
    <glyph glyph-name="C" unicode="C" horiz-adv-x="2579" 
d="M2379 98q-77 -34 -162.5 -61.5t-187 -46.5t-221.5 -29t-267 -10q-199 0 -370.5 44t-314 130t-253 215t-186.5 299.5t-115.5 382.5t-39.5 464q0 229 37 431.5t109.5 372t180.5 304.5t250.5 228t319 143t385.5 50q116 0 229 -11t216 -32t192.5 -51.5t158.5 -68.5v-335
q-73 36 -161.5 65t-187 49.5t-205.5 31.5t-217 11q-154 0 -282 -35.5t-229.5 -105t-177 -171t-125.5 -233.5t-75 -293.5t-25 -349.5q0 -211 31.5 -382t90 -304.5t141.5 -230.5t186.5 -160.5t225 -94t256.5 -30.5q130 0 241.5 10t208.5 28t181.5 44t161.5 58v-326z" />
    <glyph glyph-name="D" unicode="D" horiz-adv-x="2997" 
d="M428 0v2966h958q246 0 440.5 -50.5t342.5 -143.5t253.5 -225.5t172 -297t97 -357t30.5 -406.5q0 -213 -31.5 -406t-99.5 -358t-175.5 -298.5t-258.5 -227.5t-348.5 -145t-446.5 -51h-934zM1344 310q174 0 314 35.5t249 103.5t188.5 168.5t130.5 230t75.5 288t24.5 344.5
q0 185 -24 345t-74.5 290.5t-128.5 231t-187.5 169t-250.5 104t-317 35.5h-531v-2345h531z" />
    <glyph glyph-name="E" unicode="E" horiz-adv-x="2521" 
d="M428 0v2966h1885v-318h-1500v-973h1289v-316h-1289v-1042h1504v-317h-1889z" />
    <glyph glyph-name="F" unicode="F" horiz-adv-x="2367" 
d="M428 0v2966h1773v-318h-1388v-1042h1278v-318h-1278v-1288h-385z" />
    <glyph glyph-name="G" unicode="G" horiz-adv-x="2987" 
d="M2317 1359h-833v316h1218v-1536q-66 -31 -140 -57t-154.5 -46.5t-169 -36.5t-185 -26.5t-201.5 -16t-219 -5.5q-325 0 -580 95t-430.5 287t-268 481.5t-92.5 678.5q0 241 42 447.5t123.5 375.5t201.5 299.5t278 219t352 134.5t422 46q79 0 158 -5t155.5 -14.5
t148.5 -23.5t137.5 -32t122.5 -40.5t103 -47.5v-335q-73 36 -164.5 65t-195.5 49.5t-216 31.5t-225 11q-258 0 -454 -71.5t-328.5 -218t-200 -368.5t-67.5 -523q0 -218 33.5 -392.5t96 -308.5t152 -230.5t202 -158t246 -90.5t283.5 -29q100 0 191 6t172.5 16.5t153 26
t132.5 34.5v992z" />
    <glyph glyph-name="H" unicode="H" horiz-adv-x="3118" 
d="M2305 0v1358h-1492v-1358h-385v2966h385v-1291h1492v1291h385v-2966h-385z" />
    <glyph glyph-name="I" unicode="I" horiz-adv-x="1240" 
d="M428 0v2966h385v-2966h-385z" />
    <glyph glyph-name="J" unicode="J" horiz-adv-x="1489" 
d="M-18 -232q18 -4 39 -7.5t43 -5.5t45 -3t45 -1q126 0 222.5 37t162 118t99.5 210t34 313v2236h-454v301h839v-2578q0 -250 -62.5 -433t-176.5 -302t-276.5 -177t-361.5 -58q-26 0 -53.5 1.5t-53 5t-49 7.5t-42.5 10v326z" />
    <glyph glyph-name="K" unicode="K" horiz-adv-x="2756" 
d="M2191 0l-1378 1389v-1389h-385v2966h385v-1354l1351 1354h487l-1228 -1224q-84 -84 -148.5 -137t-123.5 -89q27 -17 56.5 -38t61.5 -47.5t68 -59.5t76 -74l1294 -1297h-516z" />
    <glyph glyph-name="L" unicode="L" horiz-adv-x="2250" 
d="M428 0v2966h385v-2649h1310v-317h-1695z" />
    <glyph glyph-name="M" unicode="M" horiz-adv-x="3743" 
d="M2940 0v2057q0 100 3.5 212t13.5 217q-43 -102 -96.5 -212t-100.5 -188l-763 -1253h-247l-760 1253q-25 41 -52 89.5t-53.5 100t-52.5 105t-48 105.5q10 -110 14.5 -219.5t4.5 -209.5v-2057h-375v2966h432l855 -1425q47 -78 86 -159t73 -167q32 86 72 167.5t90 159.5
l855 1424h425v-2966h-376z" />
    <glyph glyph-name="N" unicode="N" horiz-adv-x="3203" 
d="M2367 0l-1319 2002q-66 99 -135.5 218.5t-128.5 246.5q5 -62 9 -125.5t6.5 -126t3.5 -120.5t1 -108v-1987h-376v2966h411l1319 -2002q32 -50 65 -104.5t67 -113t66.5 -119.5t62.5 -123q-5 60 -9 123t-6.5 124.5t-3.5 119t-1 107.5v1988h377v-2966h-409z" />
    <glyph glyph-name="O" unicode="O" horiz-adv-x="3071" 
d="M1531 -49q-228 0 -410 51.5t-322 148t-239.5 233t-163.5 306.5t-94 369.5t-30 420.5q0 220 30.5 419.5t95 370t165 308.5t241.5 235t323 149.5t410 52.5t410.5 -51.5t323 -148t240.5 -233t164 -307t94 -369.5t30 -420q0 -220 -30.5 -420t-95.5 -370t-166 -308t-242 -235
t-324 -149.5t-410 -52.5zM1537 273q157 0 281.5 41.5t220 117.5t163.5 184.5t112.5 243t65 292t20.5 331.5t-20.5 331t-65 292t-112.5 243t-163.5 184.5t-220.5 117.5t-281 41q-157 0 -282 -41t-221 -117.5t-164.5 -184.5t-113 -243t-64.5 -292t-20 -331t20 -331.5
t64.5 -292t113 -243t164.5 -184.5t221 -117.5t282 -41.5z" />
    <glyph glyph-name="P" unicode="P" horiz-adv-x="2567" 
d="M428 0v2966h983q172 0 313.5 -28.5t252.5 -83.5t193 -135t136.5 -182.5t81 -226.5t26.5 -266q0 -143 -25.5 -267.5t-79 -227.5t-137 -183t-200 -134.5t-267 -83.5t-338.5 -29h-554v-1119h-385zM1328 1426q189 0 321 41.5t213.5 121t118 194.5t36.5 261q0 139 -36.5 252.5
t-116.5 193.5t-206.5 124t-305.5 44h-539v-1232h515z" />
    <glyph glyph-name="Q" unicode="Q" horiz-adv-x="3071" 
d="M2319 -530q-22 0 -38.5 4t-29.5 10t-23 14.5t-20 18.5l-460 447q-53 -7 -107 -10t-110 -3q-228 0 -410 51.5t-322 148t-239.5 233t-163.5 306.5t-94 369.5t-30 420.5q0 220 30.5 419.5t95 370t165 308.5t241.5 235t323 149.5t410 52.5t410.5 -51.5t323 -148t240.5 -233
t164 -307t94 -369.5t30 -420q0 -251 -39.5 -473.5t-124.5 -406t-216.5 -322.5t-316.5 -222q39 -20 80.5 -51.5t90.5 -76.5l479 -464h-433zM1537 273q157 0 281.5 41.5t220 117.5t163.5 184.5t112.5 243t65 292t20.5 331.5t-20.5 331t-65 292t-112.5 243t-163.5 184.5
t-220.5 117.5t-281 41q-157 0 -282 -41t-221 -117.5t-164.5 -184.5t-113 -243t-64.5 -292t-20 -331t20 -331.5t64.5 -292t113 -243t164.5 -184.5t221 -117.5t282 -41.5z" />
    <glyph glyph-name="R" unicode="R" horiz-adv-x="2785" 
d="M2186 0l-678 1001q-31 45 -57 80.5t-51.5 62t-53 45t-58 30.5t-67.5 17t-81 5h-327v-1241h-385v2966h952q256 0 444.5 -53t313 -159t185 -265t60.5 -372q0 -187 -51.5 -329t-143.5 -244.5t-218.5 -166.5t-276.5 -95q62 -32 117 -86.5t109 -132.5l724 -1063h-457z
M1304 1540q168 0 296 33.5t214 104.5t129.5 180t43.5 259q0 138 -38 240t-119 168.5t-207.5 99.5t-305.5 33h-504v-1118h491z" />
    <glyph glyph-name="S" unicode="S" horiz-adv-x="2502" 
d="M239 444q77 -32 177.5 -62t214.5 -52.5t236.5 -35.5t245.5 -13q184 0 324 38.5t234.5 107.5t143.5 163t49 205q0 74 -17 133t-52.5 108t-89 89.5t-127.5 76t-168 67.5t-208 65q-141 40 -264.5 83t-225.5 94.5t-182 115.5t-135 145t-84 183t-28 231q0 124 28 233
t85.5 201.5t144 165.5t203 124t264.5 78t328 27q133 0 249.5 -10.5t216.5 -31t185.5 -51.5t157.5 -71v-335q-80 41 -169.5 71.5t-190 51.5t-212.5 31.5t-238 10.5q-167 0 -290.5 -35t-205 -98.5t-122.5 -153t-41 -198.5q0 -73 16.5 -130t51 -104.5t87.5 -86t127 -72.5
t169 -65.5t214 -65.5q145 -42 270.5 -86t227.5 -97t181 -117.5t132.5 -147t81 -185t27.5 -231.5q-1 -122 -32 -232.5t-94.5 -206t-158.5 -173t-221 -132t-285 -84t-349 -29.5q-137 0 -264.5 10.5t-240 31.5t-208.5 51.5t-169 69.5v330z" />
    <glyph glyph-name="T" unicode="T" horiz-adv-x="2444" 
d="M1030 0v2648h-915v318h2214v-318h-915v-2648h-384z" />
    <glyph glyph-name="U" unicode="U" horiz-adv-x="2962" 
d="M2205 2966h386v-2032q0 -164 -30 -300t-91 -245t-153 -191t-215.5 -137t-279 -82.5t-343.5 -27.5t-344 27.5t-279 82.5t-214 137t-151 191t-90 245t-30 300v2032h386v-1966q0 -182 43 -318t131.5 -226.5t224.5 -135t323 -44.5q188 0 325 44.5t226 135t132 226.5t43 318
v1966z" />
    <glyph glyph-name="V" unicode="V" horiz-adv-x="2761" 
d="M1176 0l-1114 2966h420l778 -2156q36 -98 69 -191.5t58 -193.5q27 101 60.5 193.5t69.5 191.5l778 2156h404l-1110 -2966h-413z" />
    <glyph glyph-name="W" unicode="W" horiz-adv-x="4458" 
d="M3000 0l-651 1993q-15 44 -31.5 99.5t-32 119.5t-30 132t-26.5 136q-13 -68 -28 -136t-30.5 -132t-31 -119.5t-30.5 -99.5l-649 -1993h-404l-983 2966h412l674 -2155q14 -44 28.5 -88t27.5 -88.5t25.5 -89.5t23.5 -92q9 47 20 92t23 89.5t25.5 88.5t28.5 88l678 2155h381
l679 -2158q15 -45 28.5 -89t26 -88.5t23 -90t20.5 -91.5q10 46 22 91.5t25.5 90t28.5 88.5t30 89l675 2158h407l-982 -2966h-403z" />
    <glyph glyph-name="X" unicode="X" horiz-adv-x="2626" 
d="M2109 0l-685 1026q-14 23 -30 49t-30.5 54t-28 56.5t-24.5 55.5q-13 -27 -27 -55.5t-28 -56.5t-29 -54t-30 -49l-684 -1026h-444l1019 1522l-961 1444h448l621 -943q15 -23 30 -49.5t29 -54.5t28 -56.5t27 -57.5q11 29 24.5 57.5t28 56.5t30 54.5t30.5 49.5l626 943h443
l-960 -1441l1026 -1525h-449z" />
    <glyph glyph-name="Y" unicode="Y" horiz-adv-x="2568" 
d="M1091 0v1156l-1049 1810h422l679 -1186q18 -35 36.5 -75.5t36.5 -83t34.5 -87t30.5 -88.5q14 44 31 88.5t36 87t39 83t38 75.5l682 1186h419l-1050 -1813v-1153h-385z" />
    <glyph glyph-name="Z" unicode="Z" horiz-adv-x="2563" 
d="M173 0v320l1693 2328h-1644v318h2107v-321l-1692 -2328h1753v-317h-2217z" />
    <glyph glyph-name="bracketleft" unicode="[" horiz-adv-x="1592" 
d="M518 -381v3486h826v-214h-446v-3058h446v-214h-826z" />
    <glyph glyph-name="backslash" unicode="\" horiz-adv-x="1923" 
d="M1483 0l-1394 3080h342l1399 -3080h-347z" />
    <glyph glyph-name="bracketright" unicode="]" horiz-adv-x="1592" 
d="M249 -381v214h445v3058h-445v214h825v-3486h-825z" />
    <glyph glyph-name="asciicircum" unicode="^" horiz-adv-x="1866" 
d="M1412 1793l-479 900l-479 -900h-331l606 1173h411l602 -1173h-330z" />
    <glyph glyph-name="underscore" unicode="_" horiz-adv-x="1749" 
d="M-33 -299v299h1815v-299h-1815z" />
    <glyph glyph-name="grave" unicode="`" horiz-adv-x="1843" 
d="M1034 2408l-560 587h491l403 -587h-334z" />
    <glyph glyph-name="a" unicode="a" horiz-adv-x="2360" 
d="M1672 0l-27 173q-65 -51 -141 -91.5t-161 -69.5t-180 -45t-199 -16q-161 0 -294.5 41t-229.5 118t-148.5 189t-52.5 253q0 111 32 204t95.5 167t158.5 129t220.5 91t282 54.5t343.5 18.5q50 0 96.5 -0.5t86 -1t79.5 -1.5v131q0 129 -30.5 222t-94.5 153t-164 88.5
t-240 28.5q-114 0 -215.5 -13.5t-190.5 -36t-164.5 -50.5t-137.5 -56v295q68 36 150 67.5t176.5 55.5t200 38t221.5 14q191 0 349 -40t271 -129t175 -232t62 -349v-1400h-329zM1633 944h-201q-219 0 -373.5 -23.5t-252.5 -71t-144 -120t-46 -168.5q0 -75 26.5 -133t79 -97
t132.5 -59t188 -20q85 0 164.5 11t152.5 33t141.5 54.5t132.5 76.5v517z" />
    <glyph glyph-name="b" unicode="b" horiz-adv-x="2597" 
d="M397 0v3080h368v-1153q66 51 140.5 92t158.5 70t176.5 45t194.5 16q217 0 388 -67t288.5 -201.5t179 -336.5t61.5 -472q0 -275 -68.5 -484t-195 -351t-306 -214.5t-399.5 -72.5q-99 0 -189 12t-170 35.5t-150.5 58.5t-131.5 81l-22 -138h-323zM765 406q64 -39 130.5 -68
t137.5 -47t147.5 -27t159.5 -9q155 0 273.5 52t198 153t120 249t40.5 341t-38.5 341t-115.5 248t-193.5 151t-271.5 51q-86 0 -164 -11t-150.5 -33t-140 -55.5t-133.5 -78.5v-1257z" />
    <glyph glyph-name="c" unicode="c" horiz-adv-x="2055" 
d="M1857 100q-53 -29 -122 -56.5t-152 -48t-179 -32.5t-201 -12q-230 0 -408.5 73.5t-300.5 215.5t-185.5 350.5t-63.5 478.5q0 159 27.5 300.5t82.5 261.5t137.5 216t192 163.5t247.5 103.5t304 36q87 0 171.5 -8.5t160.5 -24t141.5 -38t114.5 -49.5v-316q-52 24 -117 45.5
t-140.5 37.5t-158.5 26t-169 10q-158 0 -273.5 -53t-191 -152t-112.5 -240.5t-37 -318.5q0 -203 41 -352.5t119 -248.5t189.5 -147.5t252.5 -48.5q114 0 206 12t168 31t138.5 43t117.5 49v-307z" />
    <glyph glyph-name="d" unicode="d" horiz-adv-x="2597" 
d="M1877 0l-32 181q-66 -52 -141.5 -94.5t-161 -72.5t-180 -46.5t-196.5 -16.5q-217 0 -388.5 68t-289.5 203t-180.5 337.5t-62.5 472.5q0 275 69 483.5t195 350t305.5 213t399.5 71.5q95 0 180 -12t162 -35.5t145.5 -57.5t130.5 -78v1113h368v-3080h-323zM1832 1673
q-64 42 -131 72.5t-138 50.5t-147 29.5t-158 9.5q-156 0 -274 -50.5t-198 -150t-120.5 -247t-40.5 -341.5q0 -193 38.5 -341t116 -248.5t193 -152t271.5 -51.5q84 0 161.5 10.5t150 32.5t141 55t135.5 77v1245z" />
    <glyph glyph-name="e" unicode="e" horiz-adv-x="2349" 
d="M2003 109q-67 -33 -146.5 -62.5t-174 -50.5t-205 -33t-237.5 -12q-166 0 -304 34.5t-249 101t-193.5 163t-138 221t-83 274.5t-27.5 323q0 155 26 295.5t77.5 260.5t129 217.5t181.5 166t234.5 105.5t287.5 37q154 0 283.5 -35.5t233.5 -100t182.5 -156t130.5 -204
t78 -243.5t26 -274q0 -20 -0.5 -42t-2 -42t-3 -37.5t-2.5 -28.5h-1490q7 -172 49.5 -305t124 -224.5t203.5 -138.5t287 -47q124 0 227.5 12.5t192 32.5t163 45t139.5 51v-304zM1741 1271q-7 132 -48.5 240t-113.5 185t-172.5 118.5t-225.5 41.5t-225 -41.5t-172.5 -118.5
t-115 -185t-51.5 -240h1124z" />
    <glyph glyph-name="f" unicode="f" horiz-adv-x="1675" 
d="M577 0v1798h-485v303h485v257q0 188 51 332.5t148.5 241.5t238.5 147t322 50q77 0 145.5 -5.5t127.5 -14.5t107.5 -22t88.5 -28v-299q-46 15 -92 25t-95.5 17t-102 10t-111.5 3q-132 0 -221 -29t-142 -90t-75 -154.5t-22 -222.5v-218h713v-303h-713v-1798h-368z" />
    <glyph glyph-name="g" unicode="g" horiz-adv-x="2597" 
d="M1832 186q-65 -52 -140.5 -93t-160 -70t-176.5 -44.5t-192 -15.5q-217 0 -388 67t-288.5 201.5t-179.5 335.5t-62 471q0 274 69 482t195 348t305.5 211t399.5 71q99 0 187.5 -13t168 -38t150 -62t132.5 -84l25 148h323v-2079q0 -245 -71 -430.5t-206 -310.5t-330 -188
t-444 -63q-113 0 -218.5 9.5t-199.5 26.5t-176 41.5t-149 54.5v320q62 -25 137.5 -49t163.5 -43t189 -30t215 -9q193 1 330 40t224 123t127 215.5t40 319.5v137zM1832 1673q-64 42 -131 72.5t-138 50.5t-147 29.5t-158 9.5q-156 0 -274 -50t-198 -148.5t-120.5 -245
t-40.5 -340.5q0 -191 38.5 -338t116 -246.5t193 -150.5t271.5 -51q84 0 161.5 10.5t150 32.5t141 55t135.5 76v1234z" />
    <glyph glyph-name="h" unicode="h" horiz-adv-x="2597" 
d="M1869 0v1388q0 123 -31 209t-91.5 140t-150 79t-206.5 25q-90 0 -173.5 -13t-160.5 -38t-149.5 -61.5t-141.5 -84.5v-1644h-368v3080h368v-1169q66 54 143.5 98t164.5 75t184.5 48.5t205.5 17.5q122 0 227 -19t191 -57t152.5 -95.5t112 -136t69 -177t23.5 -218.5v-1447
h-369z" />
    <glyph glyph-name="i" unicode="i" horiz-adv-x="1163" 
d="M397 0v2101h368v-2101h-368zM397 2537v429h368v-429h-368z" />
    <glyph glyph-name="j" unicode="j" horiz-adv-x="1163" 
d="M-237 -629q40 -8 74.5 -11.5t81.5 -3.5q122 0 212 40.5t149 125.5t88 215.5t29 311.5v2052h368v-2091q0 -249 -56 -430t-160.5 -298.5t-254 -174.5t-336.5 -57q-28 0 -55.5 1.5t-53 4.5t-47.5 7t-39 9v299zM397 2537v429h368v-429h-368z" />
    <glyph glyph-name="k" unicode="k" horiz-adv-x="2280" 
d="M1765 0l-1000 955v-955h-368v3080h368v-1907l980 928h450l-910 -864q-31 -29 -59 -52.5t-53.5 -42.5t-49.5 -35t-48 -30q22 -11 44 -24.5t46 -31.5t51.5 -40t59.5 -51l976 -930h-487z" />
    <glyph glyph-name="l" unicode="l" horiz-adv-x="1341" 
d="M1241 23q-35 -11 -76.5 -20.5t-88 -17t-97.5 -11t-107 -3.5q-116 0 -205 28t-149.5 88t-92 153.5t-31.5 224.5v2615h368v-2573q0 -54 9.5 -94.5t32.5 -68t61.5 -41t97.5 -13.5q73 0 144 7t134 20v-294z" />
    <glyph glyph-name="m" unicode="m" horiz-adv-x="4068" 
d="M3341 0v1388q0 123 -31.5 209t-92 140t-149.5 79t-206 25q-92 0 -176 -13t-162 -38.5t-151 -63.5t-140 -89q2 -63 3.5 -127t1.5 -129v-1381h-369v1388q0 123 -31 209t-91.5 140t-150 79t-206.5 25q-90 0 -173.5 -13t-160.5 -38t-149.5 -62.5t-141.5 -87.5v-1640h-368
v2101h330l26 -195q67 55 145.5 100t167.5 77t188.5 49.5t208.5 17.5q122 0 227 -19.5t191 -58.5t153 -97.5t112 -137.5q70 70 155 127.5t184 99t211.5 64t237.5 22.5q123 0 227.5 -19t190.5 -57t152.5 -95.5t112.5 -136t69 -177t23 -218.5v-1447h-368z" />
    <glyph glyph-name="n" unicode="n" horiz-adv-x="2597" 
d="M1869 0v1388q0 123 -31 209t-91.5 140t-150 79t-206.5 25q-90 0 -173.5 -13t-160.5 -38t-149.5 -62.5t-141.5 -87.5v-1640h-368v2101h330l26 -195q67 55 145.5 100t167.5 77t188.5 49.5t208.5 17.5q122 0 227 -19t191 -57t152.5 -95.5t112 -136t69 -177t23.5 -218.5
v-1447h-369z" />
    <glyph glyph-name="o" unicode="o" horiz-adv-x="2511" 
d="M1255 -49q-185 0 -332.5 38.5t-260.5 109t-194.5 170t-133 221.5t-75.5 263.5t-24 296.5q0 154 26 296t79.5 264t136.5 222t196.5 170.5t258.5 109t323 38.5q186 0 334 -38.5t261.5 -109t194.5 -170.5t132 -222t75 -264t24 -297q0 -154 -25.5 -295.5t-79 -263.5
t-136.5 -221.5t-196 -170t-258.5 -109t-325.5 -38.5zM1255 256q176 0 297.5 58t198 163t110.5 250.5t34 321.5q0 177 -34 324.5t-110.5 254t-198 165t-297.5 58.5q-173 0 -295 -58.5t-198.5 -164.5t-111 -253.5t-34.5 -324.5q0 -176 34.5 -322t111 -251t198.5 -163t295 -58z
" />
    <glyph glyph-name="p" unicode="p" horiz-adv-x="2597" 
d="M397 -921v3022h330l25 -181q66 52 141.5 94.5t161 72.5t180.5 46.5t200 16.5q217 0 388 -67t288.5 -201.5t179 -336.5t61.5 -472q0 -275 -68.5 -484t-195 -351t-306 -214.5t-399.5 -72.5q-95 0 -181.5 11t-163.5 32.5t-145 54t-128 75.5v-1045h-368zM765 408
q64 -40 130.5 -68t137.5 -46t147.5 -26t159.5 -8q155 0 273.5 51t198 151t120 247.5t40.5 340.5t-38.5 341.5t-115.5 248.5t-193.5 151t-271.5 51q-86 0 -164 -10.5t-150.5 -32.5t-140 -55.5t-133.5 -79.5v-1256z" />
    <glyph glyph-name="q" unicode="q" horiz-adv-x="2597" 
d="M1832 -921v1094q-65 -51 -140.5 -92t-159.5 -70t-176.5 -44.5t-192.5 -15.5q-217 0 -388 68t-288.5 203t-179.5 337.5t-62 472.5q0 275 69 483.5t195 350t305.5 213t399.5 71.5q99 0 187.5 -13t168 -38.5t150 -62t132.5 -84.5l25 149h323v-3022h-368zM1832 1675
q-64 41 -131 72t-138 50.5t-147 29t-158 9.5q-156 0 -274 -50.5t-198 -150t-120.5 -247.5t-40.5 -342q0 -193 38.5 -340.5t116 -248t193 -152t271.5 -51.5q84 0 161.5 11t150 33t141 54.5t135.5 76.5v1246z" />
    <glyph glyph-name="r" unicode="r" horiz-adv-x="1739" 
d="M397 0v2101h335l25 -324q45 76 105 144t137 118.5t170.5 80t207.5 29.5q84 0 152 -13.5t117 -33.5v-347q-31 10 -69 18.5t-80.5 14.5t-88 9.5t-91.5 3.5q-74 0 -138 -16t-119.5 -44.5t-102 -67t-83 -83t-64 -93.5t-45.5 -99v-1398h-368z" />
    <glyph glyph-name="s" unicode="s" horiz-adv-x="2082" 
d="M250 397q37 -16 85 -32.5t104 -32t117.5 -28.5t125 -22.5t127 -15t123.5 -5.5q138 0 243.5 20.5t176.5 59t107 95.5t36 130q0 80 -33.5 134.5t-97 94t-155 68t-209.5 55.5q-178 39 -314.5 87t-228 118.5t-138.5 170.5t-47 243q0 138 46.5 251.5t147 193.5t260 124
t383.5 44q66 0 129.5 -5t122 -14t113 -22.5t103 -30t91.5 -36t79 -40.5v-302q-39 19 -84.5 37.5t-95.5 34.5t-104.5 29t-112.5 22.5t-118.5 14.5t-122.5 5q-121 0 -209 -18t-145.5 -54.5t-85 -91.5t-27.5 -128q0 -80 31.5 -132t93.5 -88.5t152 -62t208 -50.5
q180 -38 316.5 -89t229.5 -125t140.5 -177t47.5 -246q0 -138 -59 -254t-175 -199.5t-288.5 -130t-399.5 -46.5q-102 0 -202 11.5t-190.5 31t-166.5 45t-130 53.5v305z" />
    <glyph glyph-name="t" unicode="t" horiz-adv-x="1791" 
d="M1655 37q-44 -19 -100 -35t-119.5 -27t-132.5 -17.5t-139 -6.5q-161 0 -284 33.5t-206 109t-125.5 197t-42.5 296.5v1211h-377v303h380l9 625h356v-625h807v-303h-807v-1178q0 -107 23 -175t68.5 -107.5t114.5 -54.5t160 -15q61 0 118.5 6t110.5 16t99.5 22.5t86.5 26.5
v-302z" />
    <glyph glyph-name="u" unicode="u" horiz-adv-x="2559" 
d="M1832 0l-26 170q-66 -49 -140.5 -89.5t-158 -69t-176.5 -44.5t-194 -16q-122 0 -227 18.5t-191.5 55.5t-153.5 94t-113 135.5t-69.5 176.5t-23.5 219v1451h369v-1392q0 -121 31 -207t92 -140.5t151 -79.5t208 -25q86 0 162.5 10t147.5 31t138 53t136 77v1673h368v-2101
h-330z" />
    <glyph glyph-name="v" unicode="v" horiz-adv-x="2109" 
d="M868 0l-822 2101h397l518 -1453q25 -74 51.5 -155.5t48.5 -170.5q20 89 48 170t56 152l516 1457h386l-819 -2101h-380z" />
    <glyph glyph-name="w" unicode="w" horiz-adv-x="3383" 
d="M2206 0l-434 1346q-18 56 -40.5 127.5t-41.5 150.5q-21 -79 -42 -151.5t-40 -127.5l-431 -1345h-363l-752 2101h389l461 -1440q22 -66 43.5 -141.5t40.5 -157.5q19 82 41.5 157.5t44.5 141.5l442 1440h336l444 -1440q20 -66 42 -141.5t41 -156.5q19 81 41.5 156.5
t43.5 141.5l462 1440h386l-751 -2101h-363z" />
    <glyph glyph-name="x" unicode="x" horiz-adv-x="2192" 
d="M1671 0l-577 825l-580 -825h-433l802 1072l-770 1029h444l541 -774l546 774h430l-768 -1025l805 -1076h-440z" />
    <glyph glyph-name="y" unicode="y" horiz-adv-x="2109" 
d="M6 -630q28 -4 64.5 -7.5t83.5 -3.5q82 0 154 11.5t135.5 37.5t120 69t107 106.5t95 149t85.5 197.5l19 54l-824 2117h397l522 -1461q24 -73 49 -152t47 -167q19 88 46 167t54 149l520 1464h386l-862 -2213q-57 -148 -117.5 -268.5t-129 -214t-148 -161t-173.5 -111.5
t-206 -65.5t-246 -21.5q-22 0 -46.5 1.5t-48 4.5t-45 7t-39.5 9v302z" />
    <glyph glyph-name="z" unicode="z" horiz-adv-x="2139" 
d="M211 0v258l1229 1540h-1191v303h1646v-258l-1237 -1540h1283v-303h-1730z" />
    <glyph glyph-name="braceleft" unicode="{" horiz-adv-x="1723" 
d="M1210 -381q-108 0 -191 12.5t-145.5 39.5t-105.5 70.5t-69.5 106.5t-38.5 146t-12 190v753q0 86 -17.5 148.5t-54.5 102.5t-95 58.5t-137 18.5h-113v194h113q79 0 137 18.5t95 58.5t54.5 102t17.5 149v753q0 107 12 190t38.5 146t69.5 106.5t105.5 70.5t145.5 39.5
t191 12.5h265v-221h-202q-80 0 -128 -28.5t-74 -80t-34 -124t-8 -159.5v-702q0 -81 -16 -148.5t-49 -121t-82 -93.5t-115 -67q66 -25 115 -64.5t82 -92.5t49 -119t16 -146v-706q0 -88 8 -161t34 -126t74 -82.5t128 -29.5h202v-214h-265z" />
    <glyph glyph-name="bar" unicode="|" horiz-adv-x="1474" 
d="M585 -921v4001h305v-4001h-305z" />
    <glyph glyph-name="braceright" unicode="}" horiz-adv-x="1723" 
d="M249 -381v214h202q79 0 127 29.5t73.5 82.5t34 126t8.5 161v706q0 80 16 146t49 119t82.5 92.5t115.5 64.5q-66 27 -115.5 67t-82.5 93.5t-49 121t-16 148.5v702q0 87 -8.5 159.5t-34 124t-73.5 80t-127 28.5h-202v221h264q161 0 269 -28t172.5 -94t92 -174.5
t27.5 -268.5v-753q0 -87 18 -149t55 -102t94.5 -58.5t137.5 -18.5h113v-194h-113q-80 0 -137.5 -18.5t-94.5 -58.5t-55 -102.5t-18 -148.5v-753q0 -160 -27.5 -268.5t-92 -174.5t-172.5 -94t-269 -28h-264z" />
    <glyph glyph-name="asciitilde" unicode="~" horiz-adv-x="1919" 
d="M1779 1486q0 -123 -37 -224t-103 -174t-158 -112.5t-203 -39.5q-72 0 -134 17.5t-117.5 43.5t-105 56t-95.5 56t-89.5 43.5t-87.5 17.5q-56 0 -98.5 -15.5t-71 -44t-43.5 -68.5t-16 -88h-280q0 81 16 153.5t46.5 133.5t74 110t98.5 83t120 51.5t139 17.5q72 0 135 -17.5
t119 -43t106.5 -56t97 -56.5t90.5 -43.5t88 -17.5q56 0 98.5 15t71.5 43.5t44 68.5t15 90h280z" />
    <glyph glyph-name="uni00A0" unicode="&#xa0;" horiz-adv-x="1077" 
 />
    <glyph glyph-name="exclamdown" unicode="&#xa1;" horiz-adv-x="1408" 
d="M502 -864v807q0 71 3.5 153.5t9 168t12.5 170.5t14 162.5t13.5 144t10.5 114.5l42 430h192l42 -430q4 -48 10 -114.5t13 -144t14 -162.5t12.5 -170.5t9 -168t3.5 -153.5v-807h-401zM474 1645v456h462v-456h-462z" />
    <glyph glyph-name="cent" unicode="&#xa2;" 
d="M1291 -139v465q-232 22 -413.5 106.5t-306.5 229.5t-191 351.5t-66 472.5q0 240 60.5 440t182.5 349t305 242t429 120v467h328v-458q87 -4 171 -14.5t160 -26.5t143 -37t120 -46v-319q-66 28 -146.5 51.5t-171.5 39.5t-190.5 25t-203.5 9q-212 0 -366 -58.5t-253.5 -168
t-147 -265.5t-47.5 -350q0 -147 26.5 -267.5t77 -214.5t123.5 -163.5t165.5 -115.5t202 -68t233.5 -22q119 0 221.5 8.5t192 23t167.5 35t149 45.5v-312q-62 -23 -128.5 -43t-142.5 -35t-164 -25.5t-191 -15.5v-455h-328z" />
    <glyph glyph-name="sterling" unicode="&#xa3;" 
d="M377 0v307h57q90 0 153.5 32t103.5 89.5t58 136t18 171.5v576h-342v307h342v594q0 134 29.5 245.5t83.5 200.5t130.5 155.5t171 111t205 67t231.5 22.5q82 0 154.5 -6.5t135 -18t115 -28t95.5 -35.5v-311q-42 15 -93 27.5t-109 23t-122 16t-131 5.5q-134 0 -230.5 -30.5
t-158.5 -94.5t-92 -164t-30 -239v-541h919v-307h-919v-624q0 -59 -10 -116t-30.5 -106t-52 -87t-73.5 -62h1434v-317h-2043z" />
    <glyph glyph-name="currency" unicode="&#xa4;" 
d="M1878 741q-110 -69 -241.5 -105.5t-277.5 -36.5q-147 0 -278 36.5t-244 105.5l-266 -295l-243 237l278 262q-87 111 -134 248.5t-47 301.5t47 301.5t134 245.5l-278 266l243 238l266 -296q113 67 244 104t278 37q146 0 277.5 -37t241.5 -104l269 296l244 -238l-281 -266
q87 -108 135.5 -245.5t48.5 -301.5t-48.5 -301.5t-136.5 -248.5l282 -262l-244 -237zM1359 893q136 0 248 45t192 126t124 191t44 240q0 131 -44 241t-124 190.5t-192 126t-248 45.5t-247 -45.5t-191 -126t-124 -190.5t-44 -241q0 -130 44 -240t124 -191t191 -126t247 -45z
" />
    <glyph glyph-name="yen" unicode="&#xa5;" 
d="M1552 616v-616h-385v616h-878v298h878v253l-124 215h-754v299h586l-724 1285h422l620 -1123q45 -82 88.5 -179t77.5 -198q36 101 80 196.5t91 180.5l619 1123h419l-726 -1285h589v-299h-757l-122 -218v-250h879v-298h-879z" />
    <glyph glyph-name="brokenbar" unicode="&#xa6;" horiz-adv-x="1474" 
d="M585 -381v1341h305v-1341h-305zM585 1764v1341h305v-1341h-305z" />
    <glyph glyph-name="section" unicode="&#xa7;" 
d="M1256 -318q-123 0 -244.5 14.5t-228 38t-193.5 54t-142 61.5v320q59 -29 147.5 -59t194.5 -53.5t223 -39t234 -15.5q88 0 167.5 6.5t146.5 21t121 37t91.5 55t57.5 75t20 96.5q0 78 -31 128t-91 85.5t-146.5 64.5t-198.5 64l-490 149q-124 39 -232.5 89t-189.5 118.5
t-127.5 159t-46.5 209.5q0 83 28.5 169.5t80 165.5t123 147t156.5 116q-49 38 -87 83t-64.5 98.5t-40.5 116.5t-14 138q0 97 28 180.5t83.5 152t136.5 122t185.5 90.5t232 56t275.5 19q121 0 235 -13t214.5 -34.5t182 -50t135.5 -59.5v-321q-59 29 -141.5 57t-181 50.5
t-209.5 36t-226 13.5q-84 0 -159 -8t-137 -24.5t-112 -40.5t-84 -56t-52 -73t-18 -90q0 -78 31 -127.5t90.5 -85.5t146.5 -65t198 -64l491 -149q124 -38 232.5 -88t189 -118.5t127.5 -159t47 -210.5q0 -83 -29 -169.5t-81 -166.5t-124 -148.5t-159 -116.5q50 -37 89.5 -81
t66.5 -97t41 -116t14 -139q0 -101 -31.5 -186.5t-91 -154.5t-145.5 -120.5t-195.5 -86.5t-240.5 -53t-279 -18zM1204 1730q-81 25 -151.5 48.5t-132.5 49.5q-57 -39 -101.5 -86.5t-75 -99t-46.5 -105t-16 -105.5q0 -70 27 -120t73 -86t108.5 -62t134.5 -48l490 -149
q78 -25 149.5 -49.5t134.5 -52.5q58 40 102.5 87.5t74.5 99t46 105t16 107.5q0 70 -26.5 120t-73 86.5t-109 62t-134.5 47.5z" />
    <glyph glyph-name="dieresis" unicode="&#xa8;" horiz-adv-x="1843" 
d="M299 2507v410h401v-410h-401zM1143 2507v410h401v-410h-401z" />
    <glyph glyph-name="copyright" unicode="&#xa9;" horiz-adv-x="3585" 
d="M2305 711q-54 -22 -108.5 -40t-117.5 -30t-137.5 -18.5t-167.5 -6.5q-128 0 -235 27.5t-193 80t-150.5 129t-108 173.5t-65 213.5t-21.5 250.5q0 125 22 237.5t67 207.5t111 172t153.5 131t196 83t238.5 29q77 0 147 -7t132 -20t115.5 -31.5t97.5 -42.5v-272
q-44 22 -95.5 39.5t-110 30t-124.5 19t-140 6.5q-116 0 -204 -40t-146.5 -115t-88 -183t-29.5 -244q0 -160 31 -273.5t91.5 -186t149 -106.5t205.5 -34q76 0 141 6t123.5 17t112.5 27.5t108 37.5v-267zM1793 3015q242 0 448 -52t374 -148.5t296.5 -233t216 -307t132 -370.5
t44.5 -421t-44.5 -421t-132 -370.5t-216 -307t-296.5 -233t-374 -148.5t-448 -52t-448.5 52t-374 148.5t-296 233t-216 307t-131.5 370.5t-44 421t44 421t131.5 370.5t216 307t296 233t374 148.5t448.5 52zM1793 2763q-194 0 -360 -44.5t-302 -126.5t-240 -197.5t-175 -258
t-107 -308t-36 -345.5t36 -345.5t107 -308t175 -258t240 -197.5t301.5 -126.5t360.5 -44.5q194 0 360.5 44.5t301.5 126.5t239 197.5t175 258t107.5 308t36.5 345.5t-36.5 345.5t-107.5 308t-175 258t-239 197.5t-301.5 126.5t-360.5 44.5z" />
    <glyph glyph-name="ordfeminine" unicode="&#xaa;" horiz-adv-x="2085" 
d="M1481 1271l-26 141q-54 -42 -117 -75.5t-134.5 -57.5t-150.5 -36.5t-166 -12.5q-136 0 -249 33t-193.5 95.5t-124.5 152t-44 203.5q0 90 27 164.5t80.5 134.5t133 104.5t185 74.5t236.5 44.5t288 14.5q49 0 108 -0.5t113 -1.5v94q0 101 -25 173.5t-78.5 119.5t-138 69.5
t-203.5 22.5q-95 0 -181 -10.5t-161 -28.5t-138 -40t-115 -45v248q57 29 125.5 54t147.5 43.5t168 30t186 11.5q161 0 293 -32.5t226 -104t146.5 -186.5t52.5 -281v-1116h-271zM257 475v294h1528v-294h-1528zM1447 2022h-169q-185 0 -315.5 -18t-213.5 -55.5t-121 -93.5
t-38 -132q0 -60 21.5 -104.5t66.5 -74.5t112.5 -45t158.5 -15q72 0 138.5 8t128.5 25t119 42t112 58v405z" />
    <glyph glyph-name="guillemotleft" unicode="&#xab;" horiz-adv-x="2462" 
d="M979 467l-702 762l702 762h349l-619 -762l619 -762h-349zM1836 467l-702 762l702 762h349l-619 -762l619 -762h-349z" />
    <glyph glyph-name="logicalnot" unicode="&#xac;" horiz-adv-x="2466" 
d="M1916 475v594h-1722v303h2056v-897h-334z" />
    <glyph glyph-name="uni00AD" unicode="&#xad;" horiz-adv-x="1575" 
d="M233 1043v371h1109v-371h-1109z" />
    <glyph glyph-name="registered" unicode="&#xae;" horiz-adv-x="2787" 
d="M2520 2031q0 -164 -41 -308.5t-114.5 -266.5t-177.5 -219t-229 -164.5t-268 -103.5t-296 -36t-296.5 36t-268.5 103.5t-229 164.5t-177.5 219t-114.5 266.5t-41 308.5t41 308.5t114.5 266.5t177.5 219t229 164.5t268 103.5t297 36q153 0 296 -36t268 -103.5t229 -164.5
t177.5 -219t114.5 -266.5t41 -308.5zM1394 1119q127 0 243.5 32t216.5 91t181 141.5t138.5 184t88.5 218.5t31 245t-31 245t-88.5 219t-138.5 184t-181 141.5t-216.5 91t-243.5 31.5q-128 0 -244.5 -31.5t-216.5 -91t-181.5 -141.5t-138.5 -184t-88 -219t-31 -245t31 -245
t88 -218.5t138.5 -184t181.5 -141.5t216.5 -91t244.5 -32zM1703 1445l-249 381q-18 29 -34 46t-33.5 26t-37.5 11.5t-46 2.5h-129v-467h-235v1192h461q101 0 186.5 -20.5t147 -63t96.5 -108t35 -156.5q0 -78 -21.5 -135t-57.5 -96.5t-85.5 -63t-105.5 -33.5q25 -13 47 -37
t47 -57l274 -422h-260zM1371 2098q60 0 107 10.5t80 33t50 59t17 88.5q0 80 -58.5 121.5t-187.5 41.5h-205v-354h197z" />
    <glyph glyph-name="macron" unicode="&#xaf;" horiz-adv-x="1843" 
d="M340 2511v310h1163v-310h-1163z" />
    <glyph glyph-name="degree" unicode="&#xb0;" horiz-adv-x="1860" 
d="M1654 2301q0 -98 -25 -187.5t-71.5 -166.5t-112 -139.5t-145.5 -107.5t-174 -69t-196 -24q-103 0 -196.5 24t-174 69t-146 107.5t-112 139.5t-71.5 166.5t-25 187.5q0 97 25 186.5t71.5 166.5t112 140t146 107.5t174 68.5t196.5 24q102 0 196 -24t174 -68.5t145.5 -107.5
t112 -140t71.5 -166.5t25 -186.5zM930 1884q96 0 172.5 33.5t130 90t82 132.5t28.5 161q0 81 -28.5 156t-82 133t-130 92.5t-172.5 34.5t-172.5 -34.5t-130 -92.5t-81.5 -133t-28 -156q0 -85 28 -161t81.5 -132.5t130 -90t172.5 -33.5z" />
    <glyph glyph-name="plusminus" unicode="&#xb1;" horiz-adv-x="2522" 
d="M1428 1411v-792h-334v792h-869v299h869v772h334v-772h868v-299h-868zM225 0v299h2071v-299h-2071z" />
    <glyph glyph-name="twosuperior" unicode="&#xb2;" horiz-adv-x="1715" 
d="M217 1478v217l401 321q118 95 205.5 173.5t144.5 148t85 133.5t28 131q0 59 -19.5 106t-61 80.5t-106 52t-153.5 18.5q-68 0 -134.5 -8.5t-128.5 -23.5t-117 -33.5t-101 -37.5v244q41 21 93 40.5t114.5 33.5t135.5 22.5t158 8.5q112 0 202 -17t160.5 -48.5t121.5 -76
t84 -99t49 -118t16 -133.5q0 -77 -22.5 -148.5t-62.5 -138t-95 -128.5t-120.5 -121.5t-138 -117t-148.5 -113.5l-177 -129h847v-239h-1260z" />
    <glyph glyph-name="threesuperior" unicode="&#xb3;" horiz-adv-x="1715" 
d="M252 1786q44 -18 102 -34.5t124 -29.5t137.5 -20t143.5 -7q94 0 165 17.5t119 48.5t72 75t24 98q0 57 -25 103.5t-76 80t-128.5 52t-184.5 18.5h-188v245h188q82 0 150 13t115.5 40t73.5 68t26 97t-25.5 96.5t-70 66.5t-105 38t-131.5 12q-67 0 -131.5 -8t-124 -21
t-113 -30.5t-96.5 -37.5v242q40 21 95 38.5t119 30.5t133.5 20t137.5 7q152 0 269 -29.5t196 -84.5t120 -133.5t41 -176.5q0 -64 -17 -118.5t-49.5 -99.5t-80 -80.5t-107.5 -63.5q76 -29 133 -68t94.5 -88.5t56.5 -109.5t19 -131q0 -104 -43 -190.5t-127.5 -148.5
t-210.5 -96.5t-291 -34.5q-86 0 -164 6.5t-145.5 18.5t-123 28.5t-96.5 38.5v242z" />
    <glyph glyph-name="acute" unicode="&#xb4;" horiz-adv-x="1843" 
d="M471 2408l403 587h484l-556 -587h-331z" />
    <glyph glyph-name="mu" unicode="&#xb5;" horiz-adv-x="2640" 
d="M2257 -29q-66 0 -124.5 14.5t-107 43t-86.5 71t-62 99.5q-68 -56 -145 -102t-164.5 -78.5t-185.5 -50t-206 -17.5q-64 0 -123.5 7t-114 20t-103.5 31.5t-93 43.5q12 -77 17.5 -171t5.5 -196v-607h-368v3022h368v-1392q0 -121 33.5 -207t96 -140.5t152 -79.5t202.5 -25
q85 0 161.5 10t147.5 31t138.5 53t135.5 77v1673h368v-1605q0 -54 8 -92.5t26.5 -63.5t48 -37.5t73.5 -12.5q53 0 100.5 5t98.5 17v-293q-30 -12 -64 -20.5t-72 -15t-79 -9.5t-83 -3z" />
    <glyph glyph-name="paragraph" unicode="&#xb6;" horiz-adv-x="3172" 
d="M2226 -921v3503h-376v-3503h-441v2191h-34q-194 0 -350.5 29t-278 82t-209 129t-144.5 170.5t-84 204.5t-27 233t26.5 233t83.5 204.5t144.5 170t209.5 129t279.5 82.5t353.5 29h1288v-3887h-441z" />
    <glyph glyph-name="periodcentered" unicode="&#xb7;" horiz-adv-x="1454" 
d="M495 996v456h463v-456h-463z" />
    <glyph glyph-name="cedilla" unicode="&#xb8;" horiz-adv-x="1843" 
d="M595 -609q41 -9 84.5 -15t108.5 -6q34 0 69 6.5t64.5 22.5t48 42.5t18.5 66.5q0 43 -25.5 75.5t-65.5 56.5t-91.5 39.5t-103.5 24.5l202 337h216l-119 -247q57 -14 105.5 -39t84 -60t56 -80t20.5 -99q0 -94 -38 -162t-101 -112.5t-144 -65.5t-167 -21q-62 0 -117 8.5
t-105 20.5v207z" />
    <glyph glyph-name="onesuperior" unicode="&#xb9;" horiz-adv-x="1715" 
d="M729 1478v1326l-379 -74v244l489 106h196v-1602h-306z" />
    <glyph glyph-name="ordmasculine" unicode="&#xba;" horiz-adv-x="2324" 
d="M1162 1230q-155 0 -279 31t-219 87t-162.5 135.5t-111 177.5t-64 211.5t-20.5 238.5q0 186 49.5 347t154 279t266.5 186t386 68q155 0 279.5 -31t219.5 -87.5t162.5 -135.5t111 -177t63.5 -212t20 -238t-22 -237.5t-66.5 -211.5t-114 -177t-164.5 -135.5t-217 -87.5
t-272 -31zM1162 1484q148 0 250.5 46t167 128.5t93 197.5t28.5 254q0 138 -28.5 254.5t-93 200.5t-167 131t-250.5 47q-147 0 -249.5 -47t-168 -131t-95 -200t-29.5 -254q0 -139 29.5 -254.5t95 -198t168 -128.5t249.5 -46zM284 475v294h1757v-294h-1757z" />
    <glyph glyph-name="guillemotright" unicode="&#xbb;" horiz-adv-x="2462" 
d="M277 467l619 762l-619 762h348l703 -762l-703 -762h-348zM1134 467l619 762l-619 762h348l703 -762l-703 -762h-348z" />
    <glyph glyph-name="onequarter" unicode="&#xbc;" horiz-adv-x="3815" 
d="M753 -22l1870 3010h328l-1866 -3010h-332zM729 1364v1326l-379 -74v244l489 106h196v-1602h-306zM3092 0v324h-877l-1 200l886 1078h287v-1048h296v-230h-296v-324h-295zM3092 978q0 73 0.5 136t5.5 119q-34 -52 -74.5 -109t-89.5 -118l-381 -452h539v424z" />
    <glyph glyph-name="onehalf" unicode="&#xbd;" horiz-adv-x="3815" 
d="M729 1364v1326l-379 -74v244l489 106h196v-1602h-306zM682 -22l1870 3010h328l-1866 -3010h-332zM2317 0v217l401 321q118 95 205.5 173.5t144.5 148t85 133.5t28 131q0 59 -19.5 106t-61 80.5t-106 52t-153.5 18.5q-68 0 -134.5 -8.5t-128.5 -23.5t-117 -33.5
t-101 -37.5v244q41 21 93 40.5t114.5 33.5t135.5 22.5t158 8.5q112 0 202 -17t160.5 -48.5t121.5 -76t84 -99t49 -118t16 -133.5q0 -77 -22.5 -148.5t-62.5 -138t-95 -128.5t-120.5 -121.5t-138 -117t-148.5 -113.5l-177 -129h847v-239h-1260z" />
    <glyph glyph-name="threequarters" unicode="&#xbe;" horiz-adv-x="4068" 
d="M935 -22l1870 3010h328l-1866 -3010h-332zM252 1672q44 -18 102 -34.5t124 -29.5t137.5 -20t143.5 -7q94 0 165 17.5t119 48.5t72 75t24 98q0 57 -25 103.5t-76 80t-128.5 52t-184.5 18.5h-188v245h188q82 0 150 13t115.5 40t73.5 68t26 97t-25.5 96.5t-70 66.5t-105 38
t-131.5 12q-67 0 -131.5 -8t-124 -21t-113 -30.5t-96.5 -37.5v242q40 21 95 38.5t119 30.5t133.5 20t137.5 7q152 0 269 -29.5t196 -84.5t120 -133.5t41 -176.5q0 -64 -17 -118.5t-49.5 -99.5t-80 -80.5t-107.5 -63.5q76 -29 133 -68t94.5 -88.5t56.5 -109.5t19 -131
q0 -104 -43 -190.5t-127.5 -148.5t-210.5 -96.5t-291 -34.5q-86 0 -164 6.5t-145.5 18.5t-123 28.5t-96.5 38.5v242zM3345 0v324h-877l-1 200l886 1078h287v-1048h296v-230h-296v-324h-295zM3345 978q0 73 0.5 136t5.5 119q-34 -52 -74.5 -109t-89.5 -118l-381 -452h539v424
z" />
    <glyph glyph-name="questiondown" unicode="&#xbf;" horiz-adv-x="2137" 
d="M1916 -736q-74 -42 -163 -74.5t-191 -55.5t-215.5 -35t-235.5 -12q-101 0 -202.5 15.5t-196.5 48.5t-176.5 84t-142.5 122t-96.5 162t-35.5 205q0 105 24.5 199t66.5 178t98 159.5t119 144.5t130 131.5t131 121.5l297 267l25 362h285l37 -475l-350 -339
q-94 -93 -179 -177.5t-148.5 -168.5t-101 -171t-37.5 -186q0 -84 38 -148t105.5 -107.5t159.5 -66t200 -22.5q105 0 205.5 12t195.5 34.5t184 54t170 72.5v-335zM1066 1645v456h463v-456h-463z" />
    <glyph glyph-name="Agrave" unicode="&#xc0;" horiz-adv-x="2819" 
d="M2337 0l-275 753h-1325l-274 -753h-395l1129 2966h418l1136 -2966h-414zM1518 2260q-34 87 -65 183t-51 198q-23 -102 -56 -197.5t-63 -183.5l-432 -1180h1094zM1258 3162l-560 587h491l403 -587h-334z" />
    <glyph glyph-name="Aacute" unicode="&#xc1;" horiz-adv-x="2819" 
d="M2337 0l-275 753h-1325l-274 -753h-395l1129 2966h418l1136 -2966h-414zM1518 2260q-34 87 -65 183t-51 198q-23 -102 -56 -197.5t-63 -183.5l-432 -1180h1094zM1631 3749h484l-556 -587h-331z" />
    <glyph glyph-name="Acircumflex" unicode="&#xc2;" horiz-adv-x="2819" 
d="M2337 0l-275 753h-1325l-274 -753h-395l1129 2966h418l1136 -2966h-414zM1518 2260q-34 87 -65 183t-51 198q-23 -102 -56 -197.5t-63 -183.5l-432 -1180h1094zM1714 3162l-309 328l-305 -328h-335l433 587h417l433 -587h-334z" />
    <glyph glyph-name="Atilde" unicode="&#xc3;" horiz-adv-x="2819" 
d="M2337 0l-275 753h-1325l-274 -753h-395l1129 2966h418l1136 -2966h-414zM1518 2260q-34 87 -65 183t-51 198q-23 -102 -56 -197.5t-63 -183.5l-432 -1180h1094zM2139 3693q0 -114 -30.5 -208t-87 -161t-135.5 -104t-175 -37q-60 0 -113 15.5t-100 39.5t-90 51t-82.5 51
t-76.5 39.5t-73 15.5q-48 0 -80 -16.5t-53.5 -43.5t-33 -63.5t-15.5 -77.5h-256q0 115 30 208.5t85.5 160.5t134 103.5t176.5 36.5q59 0 112 -15.5t100.5 -39t90.5 -50.5t83.5 -50.5t78 -39t73.5 -15.5q48 0 80 16t53.5 43t32.5 63.5t16 77.5h255z" />
    <glyph glyph-name="Adieresis" unicode="&#xc4;" horiz-adv-x="2819" 
d="M2337 0l-275 753h-1325l-274 -753h-395l1129 2966h418l1136 -2966h-414zM1518 2260q-34 87 -65 183t-51 198q-23 -102 -56 -197.5t-63 -183.5l-432 -1180h1094zM786 3260v411h401v-411h-401zM1630 3260v411h401v-411h-401z" />
    <glyph glyph-name="Aring" unicode="&#xc5;" horiz-adv-x="2819" 
d="M2337 0l-275 753h-1325l-274 -753h-395l1129 2966h418l1136 -2966h-414zM1518 2260q-34 87 -65 183t-51 198q-23 -102 -56 -197.5t-63 -183.5l-432 -1180h1094zM1863 3580q0 -92 -35 -171.5t-96 -138t-144 -91.5t-180 -33t-180 33t-144 91.5t-96 138t-35 171.5t35 171.5
t96 138t144 91.5t180 33t180 -33t144 -91.5t96 -138t35 -171.5zM1633 3580q0 45 -16.5 85.5t-46.5 71.5t-71.5 49.5t-90.5 18.5t-90.5 -18.5t-71.5 -49.5t-46.5 -71.5t-16.5 -85.5q0 -46 16.5 -87t46.5 -71.5t71.5 -48.5t90.5 -18t90.5 18t71.5 48.5t46.5 71.5t16.5 87z" />
    <glyph glyph-name="AE" unicode="&#xc6;" horiz-adv-x="4018" 
d="M1926 0v753h-1144l-331 -753h-398l1332 2966h2426v-318h-1501v-973h1288v-316h-1288v-1042h1505v-317h-1889zM1926 2648h-309l-692 -1568h1001v1568z" />
    <glyph glyph-name="Ccedilla" unicode="&#xc7;" horiz-adv-x="2579" 
d="M1140 -609q40 -9 83.5 -15t108.5 -6q33 0 68.5 6.5t64.5 22.5t47.5 42.5t18.5 66.5q0 43 -25 75.5t-65.5 56.5t-91.5 39.5t-103 24.5l149 254q-177 14 -329.5 67.5t-278.5 143.5t-224 218.5t-165 293.5t-101.5 366.5t-34.5 438.5q0 229 37 431.5t109.5 372t180.5 304.5
t250.5 228t319 143t385.5 50q116 0 229 -11t216 -32t192.5 -51.5t158.5 -68.5v-335q-73 36 -161.5 65t-187 49.5t-205.5 31.5t-217 11q-154 0 -282 -35.5t-229.5 -105t-177 -171t-125.5 -233.5t-75 -293.5t-25 -349.5q0 -211 31.5 -382t90 -304.5t141.5 -230.5t186.5 -160.5
t225 -94t256.5 -30.5q130 0 241.5 10t208.5 28t181.5 44t161.5 58v-326q-50 -22 -104 -41.5t-112.5 -35.5t-120.5 -27.5t-129.5 -20t-140.5 -13t-153 -5.5l-74 -161q57 -14 105.5 -39t84.5 -60t56 -80t20 -99q0 -94 -38 -162t-101 -112.5t-144 -65.5t-167 -21
q-62 0 -117 8.5t-104 20.5v207z" />
    <glyph glyph-name="Egrave" unicode="&#xc8;" horiz-adv-x="2521" 
d="M428 0v2966h1885v-318h-1500v-973h1289v-316h-1289v-1042h1504v-317h-1889zM1215 3162l-560 587h491l403 -587h-334z" />
    <glyph glyph-name="Eacute" unicode="&#xc9;" horiz-adv-x="2521" 
d="M428 0v2966h1885v-318h-1500v-973h1289v-316h-1289v-1042h1504v-317h-1889zM1588 3749h484l-556 -587h-331z" />
    <glyph glyph-name="Ecircumflex" unicode="&#xca;" horiz-adv-x="2521" 
d="M428 0v2966h1885v-318h-1500v-973h1289v-316h-1289v-1042h1504v-317h-1889zM1670 3162l-309 328l-305 -328h-335l433 587h417l433 -587h-334z" />
    <glyph glyph-name="Edieresis" unicode="&#xcb;" horiz-adv-x="2521" 
d="M428 0v2966h1885v-318h-1500v-973h1289v-316h-1289v-1042h1504v-317h-1889zM742 3260v411h401v-411h-401zM1586 3260v411h401v-411h-401z" />
    <glyph glyph-name="Igrave" unicode="&#xcc;" horiz-adv-x="1240" 
d="M428 0v2966h385v-2966h-385zM479 3162l-560 587h491l403 -587h-334z" />
    <glyph glyph-name="Iacute" unicode="&#xcd;" horiz-adv-x="1240" 
d="M428 0v2966h385v-2966h-385zM831 3749h484l-556 -587h-331z" />
    <glyph glyph-name="Icircumflex" unicode="&#xce;" horiz-adv-x="1240" 
d="M428 0v2966h385v-2966h-385zM927 3162l-309 328l-305 -328h-335l433 587h417l433 -587h-334z" />
    <glyph glyph-name="Idieresis" unicode="&#xcf;" horiz-adv-x="1240" 
d="M428 0v2966h385v-2966h-385zM-2 3260v411h401v-411h-401zM842 3260v411h401v-411h-401z" />
    <glyph glyph-name="Eth" unicode="&#xd0;" horiz-adv-x="3040" 
d="M470 0v1324h-280v298h280v1344h958q246 0 440.5 -50.5t343 -143.5t253.5 -225.5t171.5 -297t97.5 -357t31 -406.5q0 -213 -31.5 -406t-99.5 -358t-175.5 -298.5t-258.5 -227.5t-349 -145t-447 -51h-934zM1387 310q173 0 313.5 35.5t249.5 103.5t187.5 168.5t130 230
t76 288t24.5 344.5q0 185 -23.5 345t-74 290.5t-128.5 231t-187.5 169t-250.5 104t-317 35.5h-532v-1033h691v-298h-691v-1014h532z" />
    <glyph glyph-name="Ntilde" unicode="&#xd1;" horiz-adv-x="3203" 
d="M2367 0l-1319 2002q-66 99 -135.5 218.5t-128.5 246.5q5 -62 9 -125.5t6.5 -126t3.5 -120.5t1 -108v-1987h-376v2966h411l1319 -2002q32 -50 65 -104.5t67 -113t66.5 -119.5t62.5 -123q-5 60 -9 123t-6.5 124.5t-3.5 119t-1 107.5v1988h377v-2966h-409zM2314 3693
q0 -114 -30.5 -208t-87 -161t-135.5 -104t-175 -37q-60 0 -113 15.5t-100 39.5t-90 51t-82.5 51t-76.5 39.5t-73 15.5q-48 0 -80 -16.5t-53.5 -43.5t-33 -63.5t-15.5 -77.5h-256q0 115 30 208.5t85.5 160.5t134 103.5t176.5 36.5q59 0 112 -15.5t100.5 -39t90.5 -50.5
t83.5 -50.5t78 -39t73.5 -15.5q48 0 80 16t53.5 43t32.5 63.5t16 77.5h255z" />
    <glyph glyph-name="Ograve" unicode="&#xd2;" horiz-adv-x="3071" 
d="M1531 -49q-228 0 -410 51.5t-322 148t-239.5 233t-163.5 306.5t-94 369.5t-30 420.5q0 220 30.5 419.5t95 370t165 308.5t241.5 235t323 149.5t410 52.5t410.5 -51.5t323 -148t240.5 -233t164 -307t94 -369.5t30 -420q0 -220 -30.5 -420t-95.5 -370t-166 -308t-242 -235
t-324 -149.5t-410 -52.5zM1537 273q157 0 281.5 41.5t220 117.5t163.5 184.5t112.5 243t65 292t20.5 331.5t-20.5 331t-65 292t-112.5 243t-163.5 184.5t-220.5 117.5t-281 41q-157 0 -282 -41t-221 -117.5t-164.5 -184.5t-113 -243t-64.5 -292t-20 -331t20 -331.5
t64.5 -292t113 -243t164.5 -184.5t221 -117.5t282 -41.5zM1384 3162l-560 587h491l403 -587h-334z" />
    <glyph glyph-name="Oacute" unicode="&#xd3;" horiz-adv-x="3071" 
d="M1531 -49q-228 0 -410 51.5t-322 148t-239.5 233t-163.5 306.5t-94 369.5t-30 420.5q0 220 30.5 419.5t95 370t165 308.5t241.5 235t323 149.5t410 52.5t410.5 -51.5t323 -148t240.5 -233t164 -307t94 -369.5t30 -420q0 -220 -30.5 -420t-95.5 -370t-166 -308t-242 -235
t-324 -149.5t-410 -52.5zM1537 273q157 0 281.5 41.5t220 117.5t163.5 184.5t112.5 243t65 292t20.5 331.5t-20.5 331t-65 292t-112.5 243t-163.5 184.5t-220.5 117.5t-281 41q-157 0 -282 -41t-221 -117.5t-164.5 -184.5t-113 -243t-64.5 -292t-20 -331t20 -331.5
t64.5 -292t113 -243t164.5 -184.5t221 -117.5t282 -41.5zM1756 3749h484l-556 -587h-331z" />
    <glyph glyph-name="Ocircumflex" unicode="&#xd4;" horiz-adv-x="3071" 
d="M1531 -49q-228 0 -410 51.5t-322 148t-239.5 233t-163.5 306.5t-94 369.5t-30 420.5q0 220 30.5 419.5t95 370t165 308.5t241.5 235t323 149.5t410 52.5t410.5 -51.5t323 -148t240.5 -233t164 -307t94 -369.5t30 -420q0 -220 -30.5 -420t-95.5 -370t-166 -308t-242 -235
t-324 -149.5t-410 -52.5zM1537 273q157 0 281.5 41.5t220 117.5t163.5 184.5t112.5 243t65 292t20.5 331.5t-20.5 331t-65 292t-112.5 243t-163.5 184.5t-220.5 117.5t-281 41q-157 0 -282 -41t-221 -117.5t-164.5 -184.5t-113 -243t-64.5 -292t-20 -331t20 -331.5
t64.5 -292t113 -243t164.5 -184.5t221 -117.5t282 -41.5zM1840 3162l-309 328l-305 -328h-335l433 587h417l433 -587h-334z" />
    <glyph glyph-name="Otilde" unicode="&#xd5;" horiz-adv-x="3071" 
d="M1531 -49q-228 0 -410 51.5t-322 148t-239.5 233t-163.5 306.5t-94 369.5t-30 420.5q0 220 30.5 419.5t95 370t165 308.5t241.5 235t323 149.5t410 52.5t410.5 -51.5t323 -148t240.5 -233t164 -307t94 -369.5t30 -420q0 -220 -30.5 -420t-95.5 -370t-166 -308t-242 -235
t-324 -149.5t-410 -52.5zM1537 273q157 0 281.5 41.5t220 117.5t163.5 184.5t112.5 243t65 292t20.5 331.5t-20.5 331t-65 292t-112.5 243t-163.5 184.5t-220.5 117.5t-281 41q-157 0 -282 -41t-221 -117.5t-164.5 -184.5t-113 -243t-64.5 -292t-20 -331t20 -331.5
t64.5 -292t113 -243t164.5 -184.5t221 -117.5t282 -41.5zM2265 3693q0 -114 -30.5 -208t-87 -161t-135.5 -104t-175 -37q-60 0 -113 15.5t-100 39.5t-90 51t-82.5 51t-76.5 39.5t-73 15.5q-48 0 -80 -16.5t-53.5 -43.5t-33 -63.5t-15.5 -77.5h-256q0 115 30 208.5
t85.5 160.5t134 103.5t176.5 36.5q59 0 112 -15.5t100.5 -39t90.5 -50.5t83.5 -50.5t78 -39t73.5 -15.5q48 0 80 16t53.5 43t32.5 63.5t16 77.5h255z" />
    <glyph glyph-name="Odieresis" unicode="&#xd6;" horiz-adv-x="3071" 
d="M1531 -49q-228 0 -410 51.5t-322 148t-239.5 233t-163.5 306.5t-94 369.5t-30 420.5q0 220 30.5 419.5t95 370t165 308.5t241.5 235t323 149.5t410 52.5t410.5 -51.5t323 -148t240.5 -233t164 -307t94 -369.5t30 -420q0 -220 -30.5 -420t-95.5 -370t-166 -308t-242 -235
t-324 -149.5t-410 -52.5zM1537 273q157 0 281.5 41.5t220 117.5t163.5 184.5t112.5 243t65 292t20.5 331.5t-20.5 331t-65 292t-112.5 243t-163.5 184.5t-220.5 117.5t-281 41q-157 0 -282 -41t-221 -117.5t-164.5 -184.5t-113 -243t-64.5 -292t-20 -331t20 -331.5
t64.5 -292t113 -243t164.5 -184.5t221 -117.5t282 -41.5zM912 3260v411h401v-411h-401zM1756 3260v411h401v-411h-401z" />
    <glyph glyph-name="multiply" unicode="&#xd7;" horiz-adv-x="2522" 
d="M1260 1016l-706 -673l-220 211l706 673l-706 673l220 211l706 -674l707 674l220 -211l-707 -673l707 -673l-220 -211z" />
    <glyph glyph-name="Oslash" unicode="&#xd8;" horiz-adv-x="3071" 
d="M272 0l283 385q-74 101 -127.5 222.5t-88.5 260.5t-51 292.5t-16 319.5q0 220 30.5 419.5t95 370t165 308.5t241.5 235t323 149.5t410 52.5q237 0 426.5 -56.5t331.5 -161.5l124 169h381l-283 -390q74 -101 127 -222t88 -259t51 -291t16 -318q0 -220 -30.5 -420
t-95.5 -370t-166 -308t-242 -235t-324 -149.5t-410 -52.5q-238 0 -425 54t-329 156l-121 -161h-384zM2078 2498q-100 92 -234.5 143t-306.5 51q-157 0 -282 -41t-221 -117.5t-164.5 -184.5t-113 -243t-64.5 -292t-20 -331q0 -218 31 -407t102 -342zM993 464
q100 -92 235 -141.5t309 -49.5q157 0 281.5 41.5t220 117.5t163.5 184.5t112.5 243t65 292t20.5 331.5q0 218 -32.5 405t-101.5 339z" />
    <glyph glyph-name="Ugrave" unicode="&#xd9;" horiz-adv-x="2962" 
d="M2205 2966h386v-2032q0 -164 -30 -300t-91 -245t-153 -191t-215.5 -137t-279 -82.5t-343.5 -27.5t-344 27.5t-279 82.5t-214 137t-151 191t-90 245t-30 300v2032h386v-1966q0 -182 43 -318t131.5 -226.5t224.5 -135t323 -44.5q188 0 325 44.5t226 135t132 226.5t43 318
v1966zM1329 3162l-560 587h491l403 -587h-334z" />
    <glyph glyph-name="Uacute" unicode="&#xda;" horiz-adv-x="2962" 
d="M2205 2966h386v-2032q0 -164 -30 -300t-91 -245t-153 -191t-215.5 -137t-279 -82.5t-343.5 -27.5t-344 27.5t-279 82.5t-214 137t-151 191t-90 245t-30 300v2032h386v-1966q0 -182 43 -318t131.5 -226.5t224.5 -135t323 -44.5q188 0 325 44.5t226 135t132 226.5t43 318
v1966zM1701 3749h484l-556 -587h-331z" />
    <glyph glyph-name="Ucircumflex" unicode="&#xdb;" horiz-adv-x="2962" 
d="M2205 2966h386v-2032q0 -164 -30 -300t-91 -245t-153 -191t-215.5 -137t-279 -82.5t-343.5 -27.5t-344 27.5t-279 82.5t-214 137t-151 191t-90 245t-30 300v2032h386v-1966q0 -182 43 -318t131.5 -226.5t224.5 -135t323 -44.5q188 0 325 44.5t226 135t132 226.5t43 318
v1966zM1785 3162l-309 328l-305 -328h-335l433 587h417l433 -587h-334z" />
    <glyph glyph-name="Udieresis" unicode="&#xdc;" horiz-adv-x="2962" 
d="M2205 2966h386v-2032q0 -164 -30 -300t-91 -245t-153 -191t-215.5 -137t-279 -82.5t-343.5 -27.5t-344 27.5t-279 82.5t-214 137t-151 191t-90 245t-30 300v2032h386v-1966q0 -182 43 -318t131.5 -226.5t224.5 -135t323 -44.5q188 0 325 44.5t226 135t132 226.5t43 318
v1966zM857 3260v411h401v-411h-401zM1701 3260v411h401v-411h-401z" />
    <glyph glyph-name="Yacute" unicode="&#xdd;" horiz-adv-x="2568" 
d="M1091 0v1156l-1049 1810h422l679 -1186q18 -35 36.5 -75.5t36.5 -83t34.5 -87t30.5 -88.5q14 44 31 88.5t36 87t39 83t38 75.5l682 1186h419l-1050 -1813v-1153h-385zM1506 3749h484l-556 -587h-331z" />
    <glyph glyph-name="Thorn" unicode="&#xde;" horiz-adv-x="2567" 
d="M428 0v2966h384v-506h599q172 0 313 -28.5t252.5 -83.5t193.5 -135t136 -182.5t80.5 -226.5t26.5 -266q0 -215 -58 -386t-183.5 -291t-324.5 -183.5t-480 -63.5h-555v-614h-384zM1327 921q190 0 321.5 41.5t213 120.5t118.5 194t37 261q0 139 -37 252.5t-117 194
t-206 124.5t-306 44h-539v-1232h515z" />
    <glyph glyph-name="germandbls" unicode="&#xdf;" horiz-adv-x="2671" 
d="M1673 -49q-88 0 -171 11t-157 29.5t-139.5 43.5t-118.5 54v303q55 -25 122 -48.5t141.5 -42t154.5 -29.5t159 -11q128 0 222 34t154.5 90t90 129.5t29.5 151.5q0 59 -16.5 110t-47 96t-74.5 85.5t-98.5 77t-119 71.5t-136.5 70q-60 30 -118.5 59.5t-126.5 63t-149.5 73.5
t-186.5 92v309l247 101q104 42 184 84t138.5 85t97.5 88t63 93t34 100.5t10 109.5q0 84 -34 155t-100 122.5t-163 80t-222 28.5q-137 0 -244 -36.5t-181 -110.5t-113 -187t-39 -265v-2221h-368v2274q0 146 33.5 266.5t95 215.5t147.5 165.5t191.5 116.5t228 68.5t255.5 22.5
q141 0 260.5 -23.5t218 -66.5t173.5 -103.5t126.5 -136t78 -164t26.5 -185.5q0 -141 -45.5 -259.5t-133.5 -216t-217 -175t-296 -136.5q-31 -12 -59.5 -23t-54.5 -21l380 -155q115 -46 214 -95t179.5 -105t142.5 -118.5t104 -135.5t63.5 -159t21.5 -188q0 -94 -23.5 -183.5
t-70.5 -168.5t-118 -145.5t-166.5 -114t-215 -74t-263.5 -26.5z" />
    <glyph glyph-name="agrave" unicode="&#xe0;" horiz-adv-x="2360" 
d="M1672 0l-27 173q-65 -51 -141 -91.5t-161 -69.5t-180 -45t-199 -16q-161 0 -294.5 41t-229.5 118t-148.5 189t-52.5 253q0 111 32 204t95.5 167t158.5 129t220.5 91t282 54.5t343.5 18.5q50 0 96.5 -0.5t86 -1t79.5 -1.5v131q0 129 -30.5 222t-94.5 153t-164 88.5
t-240 28.5q-114 0 -215.5 -13.5t-190.5 -36t-164.5 -50.5t-137.5 -56v295q68 36 150 67.5t176.5 55.5t200 38t221.5 14q191 0 349 -40t271 -129t175 -232t62 -349v-1400h-329zM1633 944h-201q-219 0 -373.5 -23.5t-252.5 -71t-144 -120t-46 -168.5q0 -75 26.5 -133t79 -97
t132.5 -59t188 -20q85 0 164.5 11t152.5 33t141.5 54.5t132.5 76.5v517zM1017 2408l-560 587h491l403 -587h-334z" />
    <glyph glyph-name="aacute" unicode="&#xe1;" horiz-adv-x="2360" 
d="M1672 0l-27 173q-65 -51 -141 -91.5t-161 -69.5t-180 -45t-199 -16q-161 0 -294.5 41t-229.5 118t-148.5 189t-52.5 253q0 111 32 204t95.5 167t158.5 129t220.5 91t282 54.5t343.5 18.5q50 0 96.5 -0.5t86 -1t79.5 -1.5v131q0 129 -30.5 222t-94.5 153t-164 88.5
t-240 28.5q-114 0 -215.5 -13.5t-190.5 -36t-164.5 -50.5t-137.5 -56v295q68 36 150 67.5t176.5 55.5t200 38t221.5 14q191 0 349 -40t271 -129t175 -232t62 -349v-1400h-329zM1633 944h-201q-219 0 -373.5 -23.5t-252.5 -71t-144 -120t-46 -168.5q0 -75 26.5 -133t79 -97
t132.5 -59t188 -20q85 0 164.5 11t152.5 33t141.5 54.5t132.5 76.5v517zM987 2408l403 587h484l-556 -587h-331z" />
    <glyph glyph-name="acircumflex" unicode="&#xe2;" horiz-adv-x="2360" 
d="M1672 0l-27 173q-65 -51 -141 -91.5t-161 -69.5t-180 -45t-199 -16q-161 0 -294.5 41t-229.5 118t-148.5 189t-52.5 253q0 111 32 204t95.5 167t158.5 129t220.5 91t282 54.5t343.5 18.5q50 0 96.5 -0.5t86 -1t79.5 -1.5v131q0 129 -30.5 222t-94.5 153t-164 88.5
t-240 28.5q-114 0 -215.5 -13.5t-190.5 -36t-164.5 -50.5t-137.5 -56v295q68 36 150 67.5t176.5 55.5t200 38t221.5 14q191 0 349 -40t271 -129t175 -232t62 -349v-1400h-329zM1633 944h-201q-219 0 -373.5 -23.5t-252.5 -71t-144 -120t-46 -168.5q0 -75 26.5 -133t79 -97
t132.5 -59t188 -20q85 0 164.5 11t152.5 33t141.5 54.5t132.5 76.5v517zM1473 2408l-309 328l-305 -328h-335l433 587h417l433 -587h-334z" />
    <glyph glyph-name="atilde" unicode="&#xe3;" horiz-adv-x="2360" 
d="M1672 0l-27 173q-65 -51 -141 -91.5t-161 -69.5t-180 -45t-199 -16q-161 0 -294.5 41t-229.5 118t-148.5 189t-52.5 253q0 111 32 204t95.5 167t158.5 129t220.5 91t282 54.5t343.5 18.5q50 0 96.5 -0.5t86 -1t79.5 -1.5v131q0 129 -30.5 222t-94.5 153t-164 88.5
t-240 28.5q-114 0 -215.5 -13.5t-190.5 -36t-164.5 -50.5t-137.5 -56v295q68 36 150 67.5t176.5 55.5t200 38t221.5 14q191 0 349 -40t271 -129t175 -232t62 -349v-1400h-329zM1633 944h-201q-219 0 -373.5 -23.5t-252.5 -71t-144 -120t-46 -168.5q0 -75 26.5 -133t79 -97
t132.5 -59t188 -20q85 0 164.5 11t152.5 33t141.5 54.5t132.5 76.5v517zM1898 2940q0 -115 -30.5 -209t-87 -160.5t-135.5 -103.5t-175 -37q-60 0 -113 15.5t-100 39.5t-90 51t-82.5 51t-76.5 39.5t-73 15.5q-48 0 -80 -16.5t-53.5 -44t-33 -64t-15.5 -77.5h-256
q0 115 30 208.5t85.5 161t134 104t176.5 36.5q59 0 112 -15.5t100.5 -39t90.5 -51t83.5 -51t78 -39t73.5 -15.5q48 0 80 16t53.5 43.5t32.5 64t16 77.5h255z" />
    <glyph glyph-name="adieresis" unicode="&#xe4;" horiz-adv-x="2360" 
d="M1672 0l-27 173q-65 -51 -141 -91.5t-161 -69.5t-180 -45t-199 -16q-161 0 -294.5 41t-229.5 118t-148.5 189t-52.5 253q0 111 32 204t95.5 167t158.5 129t220.5 91t282 54.5t343.5 18.5q50 0 96.5 -0.5t86 -1t79.5 -1.5v131q0 129 -30.5 222t-94.5 153t-164 88.5
t-240 28.5q-114 0 -215.5 -13.5t-190.5 -36t-164.5 -50.5t-137.5 -56v295q68 36 150 67.5t176.5 55.5t200 38t221.5 14q191 0 349 -40t271 -129t175 -232t62 -349v-1400h-329zM1633 944h-201q-219 0 -373.5 -23.5t-252.5 -71t-144 -120t-46 -168.5q0 -75 26.5 -133t79 -97
t132.5 -59t188 -20q85 0 164.5 11t152.5 33t141.5 54.5t132.5 76.5v517zM545 2507v410h401v-410h-401zM1389 2507v410h401v-410h-401z" />
    <glyph glyph-name="aring" unicode="&#xe5;" horiz-adv-x="2360" 
d="M1672 0l-27 173q-65 -51 -141 -91.5t-161 -69.5t-180 -45t-199 -16q-161 0 -294.5 41t-229.5 118t-148.5 189t-52.5 253q0 111 32 204t95.5 167t158.5 129t220.5 91t282 54.5t343.5 18.5q50 0 96.5 -0.5t86 -1t79.5 -1.5v131q0 129 -30.5 222t-94.5 153t-164 88.5
t-240 28.5q-114 0 -215.5 -13.5t-190.5 -36t-164.5 -50.5t-137.5 -56v295q68 36 150 67.5t176.5 55.5t200 38t221.5 14q191 0 349 -40t271 -129t175 -232t62 -349v-1400h-329zM1633 944h-201q-219 0 -373.5 -23.5t-252.5 -71t-144 -120t-46 -168.5q0 -75 26.5 -133t79 -97
t132.5 -59t188 -20q85 0 164.5 11t152.5 33t141.5 54.5t132.5 76.5v517zM1622 2826q0 -92 -35 -171.5t-96 -138t-144 -91.5t-180 -33q-96 0 -179 33t-144.5 91.5t-96.5 138t-35 171.5t35 171.5t96 138t144.5 91.5t179.5 33q97 0 180 -33t144 -91.5t96 -138t35 -171.5z
M1167 2601q49 0 90.5 18t71.5 48.5t46.5 71.5t16.5 87q0 45 -16.5 86t-46.5 72t-71.5 49.5t-90.5 18.5t-90 -18.5t-71 -49.5t-47 -72t-17 -86q0 -46 16.5 -87t46.5 -71.5t71.5 -48.5t90.5 -18z" />
    <glyph glyph-name="ae" unicode="&#xe6;" horiz-adv-x="3723" 
d="M3376 109q-66 -33 -146.5 -62.5t-175 -50.5t-204.5 -33t-236 -12q-132 0 -246.5 21.5t-210.5 63t-175 103t-140 141.5q-68 -71 -159 -131t-200 -104t-233 -69t-259 -25q-172 0 -310.5 41t-237 119t-151.5 189.5t-53 252.5q0 111 32 204.5t95.5 167.5t158.5 129
t220.5 91.5t282 55t343.5 18.5q57 0 125.5 -1t136.5 -2v128q0 129 -31 222t-95.5 153t-164.5 88.5t-238 28.5q-114 0 -215.5 -13.5t-190.5 -36t-164.5 -50.5t-137.5 -56v295q68 36 150 67.5t176.5 55.5t200 38t221.5 14q125 0 235 -20.5t202.5 -61.5t165.5 -102.5
t122 -143.5q53 75 122.5 136t155 103.5t187.5 65.5t221 23q155 0 284.5 -35.5t233.5 -100t182 -156t130 -204t78.5 -243.5t26.5 -274q0 -20 -0.5 -42t-2 -43t-3 -39t-2.5 -29h-1490q7 -169 47.5 -301.5t121 -223.5t202 -139t288.5 -48q123 0 227.5 12.5t194 32.5t164.5 45
t139 51v-304zM1432 947q-219 0 -373.5 -24t-252.5 -71.5t-144 -120t-46 -168.5q0 -76 26.5 -133.5t79 -97.5t132.5 -60t188 -20q84 0 166.5 13t160 37t149 59t135.5 79q-8 121 -13 245.5t-7 261.5h-201zM3116 1269q-7 131 -48.5 240t-113.5 186t-173 119t-226 42t-226 -42
t-173.5 -119t-114.5 -186t-50 -240h1125z" />
    <glyph glyph-name="ccedilla" unicode="&#xe7;" horiz-adv-x="2055" 
d="M790 -609q41 -9 84.5 -15t108.5 -6q33 0 68.5 6.5t64.5 22.5t47.5 42.5t18.5 66.5q0 43 -25 75.5t-65.5 56.5t-91.5 39.5t-103 24.5l152 256q-193 23 -343 106.5t-252 223.5t-155.5 336t-53.5 443q0 159 27.5 300.5t82.5 261.5t137.5 216t192 163.5t247.5 103.5t304 36
q87 0 171.5 -8.5t160.5 -24t141.5 -38t114.5 -49.5v-316q-52 24 -117 45.5t-140.5 37.5t-158.5 26t-169 10q-158 0 -273.5 -53t-191 -152t-112.5 -240.5t-37 -318.5q0 -203 41 -352.5t119 -248.5t189.5 -147.5t252.5 -48.5q114 0 206 12t168 31t138.5 43t117.5 49v-307
q-48 -27 -110.5 -51.5t-136.5 -44t-159.5 -33t-180.5 -17.5l-74 -160q57 -14 105.5 -39t84.5 -60t56 -80t20 -99q0 -62 -17.5 -113.5t-48.5 -91.5t-73.5 -69.5t-92.5 -48.5t-105.5 -28.5t-112.5 -9.5q-62 0 -117 8.5t-105 20.5v207z" />
    <glyph glyph-name="egrave" unicode="&#xe8;" horiz-adv-x="2349" 
d="M2003 109q-67 -33 -146.5 -62.5t-174 -50.5t-205 -33t-237.5 -12q-166 0 -304 34.5t-249 101t-193.5 163t-138 221t-83 274.5t-27.5 323q0 155 26 295.5t77.5 260.5t129 217.5t181.5 166t234.5 105.5t287.5 37q154 0 283.5 -35.5t233.5 -100t182.5 -156t130.5 -204
t78 -243.5t26 -274q0 -20 -0.5 -42t-2 -42t-3 -37.5t-2.5 -28.5h-1490q7 -172 49.5 -305t124 -224.5t203.5 -138.5t287 -47q124 0 227.5 12.5t192 32.5t163 45t139.5 51v-304zM1741 1271q-7 132 -48.5 240t-113.5 185t-172.5 118.5t-225.5 41.5t-225 -41.5t-172.5 -118.5
t-115 -185t-51.5 -240h1124zM1050 2408l-560 587h491l403 -587h-334z" />
    <glyph glyph-name="eacute" unicode="&#xe9;" horiz-adv-x="2349" 
d="M2003 109q-67 -33 -146.5 -62.5t-174 -50.5t-205 -33t-237.5 -12q-166 0 -304 34.5t-249 101t-193.5 163t-138 221t-83 274.5t-27.5 323q0 155 26 295.5t77.5 260.5t129 217.5t181.5 166t234.5 105.5t287.5 37q154 0 283.5 -35.5t233.5 -100t182.5 -156t130.5 -204
t78 -243.5t26 -274q0 -20 -0.5 -42t-2 -42t-3 -37.5t-2.5 -28.5h-1490q7 -172 49.5 -305t124 -224.5t203.5 -138.5t287 -47q124 0 227.5 12.5t192 32.5t163 45t139.5 51v-304zM1741 1271q-7 132 -48.5 240t-113.5 185t-172.5 118.5t-225.5 41.5t-225 -41.5t-172.5 -118.5
t-115 -185t-51.5 -240h1124zM1019 2408l403 587h484l-556 -587h-331z" />
    <glyph glyph-name="ecircumflex" unicode="&#xea;" horiz-adv-x="2349" 
d="M2003 109q-67 -33 -146.5 -62.5t-174 -50.5t-205 -33t-237.5 -12q-166 0 -304 34.5t-249 101t-193.5 163t-138 221t-83 274.5t-27.5 323q0 155 26 295.5t77.5 260.5t129 217.5t181.5 166t234.5 105.5t287.5 37q154 0 283.5 -35.5t233.5 -100t182.5 -156t130.5 -204
t78 -243.5t26 -274q0 -20 -0.5 -42t-2 -42t-3 -37.5t-2.5 -28.5h-1490q7 -172 49.5 -305t124 -224.5t203.5 -138.5t287 -47q124 0 227.5 12.5t192 32.5t163 45t139.5 51v-304zM1741 1271q-7 132 -48.5 240t-113.5 185t-172.5 118.5t-225.5 41.5t-225 -41.5t-172.5 -118.5
t-115 -185t-51.5 -240h1124zM1506 2408l-309 328l-305 -328h-335l433 587h417l433 -587h-334z" />
    <glyph glyph-name="edieresis" unicode="&#xeb;" horiz-adv-x="2349" 
d="M2003 109q-67 -33 -146.5 -62.5t-174 -50.5t-205 -33t-237.5 -12q-166 0 -304 34.5t-249 101t-193.5 163t-138 221t-83 274.5t-27.5 323q0 155 26 295.5t77.5 260.5t129 217.5t181.5 166t234.5 105.5t287.5 37q154 0 283.5 -35.5t233.5 -100t182.5 -156t130.5 -204
t78 -243.5t26 -274q0 -20 -0.5 -42t-2 -42t-3 -37.5t-2.5 -28.5h-1490q7 -172 49.5 -305t124 -224.5t203.5 -138.5t287 -47q124 0 227.5 12.5t192 32.5t163 45t139.5 51v-304zM1741 1271q-7 132 -48.5 240t-113.5 185t-172.5 118.5t-225.5 41.5t-225 -41.5t-172.5 -118.5
t-115 -185t-51.5 -240h1124zM578 2507v410h401v-410h-401zM1422 2507v410h401v-410h-401z" />
    <glyph glyph-name="igrave" unicode="&#xec;" horiz-adv-x="1163" 
d="M397 0v2101h368v-2101h-368zM431 2408l-560 587h491l403 -587h-334z" />
    <glyph glyph-name="iacute" unicode="&#xed;" horiz-adv-x="1163" 
d="M397 0v2101h368v-2101h-368zM400 2408l403 587h484l-556 -587h-331z" />
    <glyph glyph-name="icircumflex" unicode="&#xee;" horiz-adv-x="1163" 
d="M397 0v2101h368v-2101h-368zM887 2408l-309 328l-305 -328h-335l433 587h417l433 -587h-334z" />
    <glyph glyph-name="idieresis" unicode="&#xef;" horiz-adv-x="1163" 
d="M397 0v2101h368v-2101h-368zM-41 2507v410h401v-410h-401zM803 2507v410h401v-410h-401z" />
    <glyph glyph-name="eth" unicode="&#xf0;" horiz-adv-x="2530" 
d="M1559 2539q154 -144 287 -318t231 -372t153.5 -417t55.5 -454q0 -146 -26.5 -279.5t-81.5 -248t-138 -206.5t-196.5 -157.5t-258 -100.5t-320.5 -35q-181 0 -327 35t-259.5 100.5t-195.5 157.5t-135 205t-78 244.5t-25 275.5q0 145 29.5 277t85 245.5t136.5 205.5
t185 157t231 100.5t273 35.5q86 0 162.5 -10t143.5 -29.5t125 -48t111 -65.5q-95 163 -213 303t-249 263l-559 -257v257l358 164q-104 80 -205.5 144t-196.5 113l151 189q68 -25 137 -57t138 -71t137 -84t134 -96l609 283v-257zM1265 256q170 0 291 49.5t198.5 142
t114 224.5t36.5 297t-36.5 298.5t-114 228t-198.5 145t-291 50.5q-169 0 -289.5 -50.5t-198.5 -144.5t-115 -227.5t-37 -299.5q0 -110 16.5 -205.5t50 -174.5t85.5 -141t123 -104.5t161.5 -65t203.5 -22.5z" />
    <glyph glyph-name="ntilde" unicode="&#xf1;" horiz-adv-x="2597" 
d="M1869 0v1388q0 123 -31 209t-91.5 140t-150 79t-206.5 25q-90 0 -173.5 -13t-160.5 -38t-149.5 -62.5t-141.5 -87.5v-1640h-368v2101h330l26 -195q67 55 145.5 100t167.5 77t188.5 49.5t208.5 17.5q122 0 227 -19t191 -57t152.5 -95.5t112 -136t69 -177t23.5 -218.5
v-1447h-369zM2051 2940q0 -115 -30.5 -209t-87 -160.5t-135.5 -103.5t-175 -37q-60 0 -113 15.5t-100 39.5t-90 51t-82.5 51t-76.5 39.5t-73 15.5q-48 0 -80 -16.5t-53.5 -44t-33 -64t-15.5 -77.5h-256q0 115 30 208.5t85.5 161t134 104t176.5 36.5q59 0 112 -15.5
t100.5 -39t90.5 -51t83.5 -51t78 -39t73.5 -15.5q48 0 80 16t53.5 43.5t32.5 64t16 77.5h255z" />
    <glyph glyph-name="ograve" unicode="&#xf2;" horiz-adv-x="2511" 
d="M1255 -49q-185 0 -332.5 38.5t-260.5 109t-194.5 170t-133 221.5t-75.5 263.5t-24 296.5q0 154 26 296t79.5 264t136.5 222t196.5 170.5t258.5 109t323 38.5q186 0 334 -38.5t261.5 -109t194.5 -170.5t132 -222t75 -264t24 -297q0 -154 -25.5 -295.5t-79 -263.5
t-136.5 -221.5t-196 -170t-258.5 -109t-325.5 -38.5zM1255 256q176 0 297.5 58t198 163t110.5 250.5t34 321.5q0 177 -34 324.5t-110.5 254t-198 165t-297.5 58.5q-173 0 -295 -58.5t-198.5 -164.5t-111 -253.5t-34.5 -324.5q0 -176 34.5 -322t111 -251t198.5 -163t295 -58z
M1103 2408l-560 587h491l403 -587h-334z" />
    <glyph glyph-name="oacute" unicode="&#xf3;" horiz-adv-x="2511" 
d="M1255 -49q-185 0 -332.5 38.5t-260.5 109t-194.5 170t-133 221.5t-75.5 263.5t-24 296.5q0 154 26 296t79.5 264t136.5 222t196.5 170.5t258.5 109t323 38.5q186 0 334 -38.5t261.5 -109t194.5 -170.5t132 -222t75 -264t24 -297q0 -154 -25.5 -295.5t-79 -263.5
t-136.5 -221.5t-196 -170t-258.5 -109t-325.5 -38.5zM1255 256q176 0 297.5 58t198 163t110.5 250.5t34 321.5q0 177 -34 324.5t-110.5 254t-198 165t-297.5 58.5q-173 0 -295 -58.5t-198.5 -164.5t-111 -253.5t-34.5 -324.5q0 -176 34.5 -322t111 -251t198.5 -163t295 -58z
M1072 2408l403 587h484l-556 -587h-331z" />
    <glyph glyph-name="ocircumflex" unicode="&#xf4;" horiz-adv-x="2511" 
d="M1255 -49q-185 0 -332.5 38.5t-260.5 109t-194.5 170t-133 221.5t-75.5 263.5t-24 296.5q0 154 26 296t79.5 264t136.5 222t196.5 170.5t258.5 109t323 38.5q186 0 334 -38.5t261.5 -109t194.5 -170.5t132 -222t75 -264t24 -297q0 -154 -25.5 -295.5t-79 -263.5
t-136.5 -221.5t-196 -170t-258.5 -109t-325.5 -38.5zM1255 256q176 0 297.5 58t198 163t110.5 250.5t34 321.5q0 177 -34 324.5t-110.5 254t-198 165t-297.5 58.5q-173 0 -295 -58.5t-198.5 -164.5t-111 -253.5t-34.5 -324.5q0 -176 34.5 -322t111 -251t198.5 -163t295 -58z
M1558 2408l-309 328l-305 -328h-335l433 587h417l433 -587h-334z" />
    <glyph glyph-name="otilde" unicode="&#xf5;" horiz-adv-x="2511" 
d="M1255 -49q-185 0 -332.5 38.5t-260.5 109t-194.5 170t-133 221.5t-75.5 263.5t-24 296.5q0 154 26 296t79.5 264t136.5 222t196.5 170.5t258.5 109t323 38.5q186 0 334 -38.5t261.5 -109t194.5 -170.5t132 -222t75 -264t24 -297q0 -154 -25.5 -295.5t-79 -263.5
t-136.5 -221.5t-196 -170t-258.5 -109t-325.5 -38.5zM1255 256q176 0 297.5 58t198 163t110.5 250.5t34 321.5q0 177 -34 324.5t-110.5 254t-198 165t-297.5 58.5q-173 0 -295 -58.5t-198.5 -164.5t-111 -253.5t-34.5 -324.5q0 -176 34.5 -322t111 -251t198.5 -163t295 -58z
M1985 2940q0 -115 -30.5 -209t-87 -160.5t-135.5 -103.5t-175 -37q-60 0 -113 15.5t-100 39.5t-90 51t-82.5 51t-76.5 39.5t-73 15.5q-48 0 -80 -16.5t-53.5 -44t-33 -64t-15.5 -77.5h-256q0 115 30 208.5t85.5 161t134 104t176.5 36.5q59 0 112 -15.5t100.5 -39t90.5 -51
t83.5 -51t78 -39t73.5 -15.5q48 0 80 16t53.5 43.5t32.5 64t16 77.5h255z" />
    <glyph glyph-name="odieresis" unicode="&#xf6;" horiz-adv-x="2511" 
d="M1255 -49q-185 0 -332.5 38.5t-260.5 109t-194.5 170t-133 221.5t-75.5 263.5t-24 296.5q0 154 26 296t79.5 264t136.5 222t196.5 170.5t258.5 109t323 38.5q186 0 334 -38.5t261.5 -109t194.5 -170.5t132 -222t75 -264t24 -297q0 -154 -25.5 -295.5t-79 -263.5
t-136.5 -221.5t-196 -170t-258.5 -109t-325.5 -38.5zM1255 256q176 0 297.5 58t198 163t110.5 250.5t34 321.5q0 177 -34 324.5t-110.5 254t-198 165t-297.5 58.5q-173 0 -295 -58.5t-198.5 -164.5t-111 -253.5t-34.5 -324.5q0 -176 34.5 -322t111 -251t198.5 -163t295 -58z
M630 2507v410h401v-410h-401zM1474 2507v410h401v-410h-401z" />
    <glyph glyph-name="divide" unicode="&#xf7;" horiz-adv-x="2522" 
d="M209 1072v300h2105v-300h-2105zM1028 1803v457h463v-457h-463zM1028 171v456h463v-456h-463z" />
    <glyph glyph-name="oslash" unicode="&#xf8;" horiz-adv-x="2511" 
d="M173 -34l272 326q-55 72 -95 158t-65.5 182.5t-37.5 201.5t-12 216q0 154 26 296t80 264t136.5 222t196 170.5t258.5 109t323 38.5q192 0 344.5 -41t267.5 -117l120 143h351l-276 -325q56 -74 96.5 -160t66.5 -182.5t38.5 -201.5t12.5 -217q0 -154 -25.5 -295.5
t-79 -263.5t-136.5 -221.5t-196 -170t-258.5 -109t-325.5 -38.5q-192 0 -344.5 40t-266.5 115l-117 -140h-354zM862 369q74 -54 170.5 -83.5t222.5 -29.5q176 0 297.5 58t198 163t110.5 250.5t34 321.5q0 133 -20 247.5t-61 209.5zM1649 1732q-74 59 -170.5 89t-223.5 30
q-173 0 -295 -58.5t-198.5 -164.5t-111 -253.5t-34.5 -324.5q0 -135 18.5 -249t59.5 -210z" />
    <glyph glyph-name="ugrave" unicode="&#xf9;" horiz-adv-x="2559" 
d="M1832 0l-26 170q-66 -49 -140.5 -89.5t-158 -69t-176.5 -44.5t-194 -16q-122 0 -227 18.5t-191.5 55.5t-153.5 94t-113 135.5t-69.5 176.5t-23.5 219v1451h369v-1392q0 -121 31 -207t92 -140.5t151 -79.5t208 -25q86 0 162.5 10t147.5 31t138 53t136 77v1673h368v-2101
h-330zM1109 2408l-560 587h491l403 -587h-334z" />
    <glyph glyph-name="uacute" unicode="&#xfa;" horiz-adv-x="2559" 
d="M1832 0l-26 170q-66 -49 -140.5 -89.5t-158 -69t-176.5 -44.5t-194 -16q-122 0 -227 18.5t-191.5 55.5t-153.5 94t-113 135.5t-69.5 176.5t-23.5 219v1451h369v-1392q0 -121 31 -207t92 -140.5t151 -79.5t208 -25q86 0 162.5 10t147.5 31t138 53t136 77v1673h368v-2101
h-330zM1078 2408l403 587h484l-556 -587h-331z" />
    <glyph glyph-name="ucircumflex" unicode="&#xfb;" horiz-adv-x="2559" 
d="M1832 0l-26 170q-66 -49 -140.5 -89.5t-158 -69t-176.5 -44.5t-194 -16q-122 0 -227 18.5t-191.5 55.5t-153.5 94t-113 135.5t-69.5 176.5t-23.5 219v1451h369v-1392q0 -121 31 -207t92 -140.5t151 -79.5t208 -25q86 0 162.5 10t147.5 31t138 53t136 77v1673h368v-2101
h-330zM1564 2408l-309 328l-305 -328h-335l433 587h417l433 -587h-334z" />
    <glyph glyph-name="udieresis" unicode="&#xfc;" horiz-adv-x="2559" 
d="M1832 0l-26 170q-66 -49 -140.5 -89.5t-158 -69t-176.5 -44.5t-194 -16q-122 0 -227 18.5t-191.5 55.5t-153.5 94t-113 135.5t-69.5 176.5t-23.5 219v1451h369v-1392q0 -121 31 -207t92 -140.5t151 -79.5t208 -25q86 0 162.5 10t147.5 31t138 53t136 77v1673h368v-2101
h-330zM636 2507v410h401v-410h-401zM1480 2507v410h401v-410h-401z" />
    <glyph glyph-name="yacute" unicode="&#xfd;" horiz-adv-x="2109" 
d="M6 -630q28 -4 64.5 -7.5t83.5 -3.5q82 0 154 11.5t135.5 37.5t120 69t107 106.5t95 149t85.5 197.5l19 54l-824 2117h397l522 -1461q24 -73 49 -152t47 -167q19 88 46 167t54 149l520 1464h386l-862 -2213q-57 -148 -117.5 -268.5t-129 -214t-148 -161t-173.5 -111.5
t-206 -65.5t-246 -21.5q-22 0 -46.5 1.5t-48 4.5t-45 7t-39.5 9v302zM873 2408l403 587h484l-556 -587h-331z" />
    <glyph glyph-name="thorn" unicode="&#xfe;" horiz-adv-x="2597" 
d="M397 -921v4001h368v-1158q60 48 130.5 89.5t153 72.5t177 48.5t203.5 17.5q221 0 393.5 -68.5t290 -204t178.5 -337t61 -467.5q0 -181 -31 -334.5t-89.5 -278t-143 -219.5t-192 -159.5t-237 -97.5t-277.5 -33q-103 0 -191.5 13t-165 36.5t-141 56.5t-119.5 73v-1051h-368
zM765 407q64 -40 130.5 -68t137.5 -46t147.5 -26t158.5 -8q156 0 274 51.5t198 151.5t120.5 247.5t40.5 340.5t-38.5 341t-116 248t-193.5 151.5t-271 51.5q-86 0 -164 -11t-150.5 -33t-140.5 -55.5t-133 -78.5v-1257z" />
    <glyph glyph-name="ydieresis" unicode="&#xff;" horiz-adv-x="2109" 
d="M6 -630q28 -4 64.5 -7.5t83.5 -3.5q82 0 154 11.5t135.5 37.5t120 69t107 106.5t95 149t85.5 197.5l19 54l-824 2117h397l522 -1461q24 -73 49 -152t47 -167q19 88 46 167t54 149l520 1464h386l-862 -2213q-57 -148 -117.5 -268.5t-129 -214t-148 -161t-173.5 -111.5
t-206 -65.5t-246 -21.5q-22 0 -46.5 1.5t-48 4.5t-45 7t-39.5 9v302zM431 2507v410h401v-410h-401zM1275 2507v410h401v-410h-401z" />
    <glyph glyph-name="Amacron" unicode="&#x100;" horiz-adv-x="2819" 
d="M2337 0l-275 753h-1325l-274 -753h-395l1129 2966h418l1136 -2966h-414zM1518 2260q-34 87 -65 183t-51 198q-23 -102 -56 -197.5t-63 -183.5l-432 -1180h1094zM827 3264v311h1163v-311h-1163z" />
    <glyph glyph-name="amacron" unicode="&#x101;" horiz-adv-x="2360" 
d="M1672 0l-27 173q-65 -51 -141 -91.5t-161 -69.5t-180 -45t-199 -16q-161 0 -294.5 41t-229.5 118t-148.5 189t-52.5 253q0 111 32 204t95.5 167t158.5 129t220.5 91t282 54.5t343.5 18.5q50 0 96.5 -0.5t86 -1t79.5 -1.5v131q0 129 -30.5 222t-94.5 153t-164 88.5
t-240 28.5q-114 0 -215.5 -13.5t-190.5 -36t-164.5 -50.5t-137.5 -56v295q68 36 150 67.5t176.5 55.5t200 38t221.5 14q191 0 349 -40t271 -129t175 -232t62 -349v-1400h-329zM1633 944h-201q-219 0 -373.5 -23.5t-252.5 -71t-144 -120t-46 -168.5q0 -75 26.5 -133t79 -97
t132.5 -59t188 -20q85 0 164.5 11t152.5 33t141.5 54.5t132.5 76.5v517zM586 2511v310h1163v-310h-1163z" />
    <glyph glyph-name="Abreve" unicode="&#x102;" horiz-adv-x="2819" 
d="M2337 0l-275 753h-1325l-274 -753h-395l1129 2966h418l1136 -2966h-414zM1518 2260q-34 87 -65 183t-51 198q-23 -102 -56 -197.5t-63 -183.5l-432 -1180h1094zM1408 3144q-141 0 -255 43.5t-195.5 123t-126.5 191t-48 247.5h276q8 -76 35.5 -135.5t72.5 -100t106 -61.5
t135 -21q73 0 134 21t106 61.5t73 100t36 135.5h277q-3 -136 -49 -247.5t-127.5 -191t-195.5 -123t-254 -43.5z" />
    <glyph glyph-name="abreve" unicode="&#x103;" horiz-adv-x="2360" 
d="M1672 0l-27 173q-65 -51 -141 -91.5t-161 -69.5t-180 -45t-199 -16q-161 0 -294.5 41t-229.5 118t-148.5 189t-52.5 253q0 111 32 204t95.5 167t158.5 129t220.5 91t282 54.5t343.5 18.5q50 0 96.5 -0.5t86 -1t79.5 -1.5v131q0 129 -30.5 222t-94.5 153t-164 88.5
t-240 28.5q-114 0 -215.5 -13.5t-190.5 -36t-164.5 -50.5t-137.5 -56v295q68 36 150 67.5t176.5 55.5t200 38t221.5 14q191 0 349 -40t271 -129t175 -232t62 -349v-1400h-329zM1633 944h-201q-219 0 -373.5 -23.5t-252.5 -71t-144 -120t-46 -168.5q0 -75 26.5 -133t79 -97
t132.5 -59t188 -20q85 0 164.5 11t152.5 33t141.5 54.5t132.5 76.5v517zM1793 2995q-3 -136 -49 -247.5t-127.5 -191t-195.5 -123t-254 -43.5q-141 0 -255 43.5t-195.5 123t-126.5 191t-48 247.5h276q8 -76 35.5 -135t72.5 -99.5t106 -61.5t135 -21q73 0 134 21t106 61.5
t73 99.5t36 135h277z" />
    <glyph glyph-name="Aogonek" unicode="&#x104;" horiz-adv-x="2819" 
d="M2715 -820q-49 -12 -105.5 -18.5t-115.5 -6.5q-126 0 -215.5 32t-146 83.5t-83 118t-26.5 135.5q0 75 25.5 141.5t68 125.5t100 111t120.5 98l-275 753h-1325l-274 -753h-395l1129 2966h418l1136 -2966h-168q-56 -55 -103 -108.5t-81 -105.5t-53.5 -102t-19.5 -99
q0 -101 64 -150.5t178 -49.5q23 0 43 1.5t38 3.5t34.5 5t31.5 6v-221zM1518 2260q-34 87 -65 183t-51 198q-23 -102 -56 -197.5t-63 -183.5l-432 -1180h1094z" />
    <glyph glyph-name="aogonek" unicode="&#x105;" horiz-adv-x="2360" 
d="M2048 -820q-50 -12 -106 -18.5t-115 -6.5q-126 0 -215.5 32t-146 83.5t-83 118t-26.5 135.5q0 75 25.5 141.5t68.5 125.5t100.5 111t121.5 98l-27 173q-65 -51 -141 -91.5t-161 -69.5t-180 -45t-199 -16q-161 0 -294.5 41t-229.5 118t-148.5 189t-52.5 253q0 111 32 204
t95.5 167t158.5 129t220.5 91t282 54.5t343.5 18.5q50 0 96.5 -0.5t86 -1t79.5 -1.5v131q0 129 -30.5 222t-94.5 153t-164 88.5t-240 28.5q-114 0 -215.5 -13.5t-190.5 -36t-164.5 -50.5t-137.5 -56v295q68 36 150 67.5t176.5 55.5t200 38t221.5 14q191 0 349 -40t271 -129
t175 -232t62 -349v-1400h-85q-56 -55 -103 -108.5t-81 -105.5t-53.5 -102t-19.5 -99q0 -101 64 -150.5t177 -49.5q23 0 43.5 1.5t38.5 3.5t34.5 5t31.5 6v-221zM1633 944h-201q-219 0 -373.5 -23.5t-252.5 -71t-144 -120t-46 -168.5q0 -75 26.5 -133t79 -97t132.5 -59
t188 -20q85 0 164.5 11t152.5 33t141.5 54.5t132.5 76.5v517z" />
    <glyph glyph-name="Cacute" unicode="&#x106;" horiz-adv-x="2579" 
d="M2379 98q-77 -34 -162.5 -61.5t-187 -46.5t-221.5 -29t-267 -10q-199 0 -370.5 44t-314 130t-253 215t-186.5 299.5t-115.5 382.5t-39.5 464q0 229 37 431.5t109.5 372t180.5 304.5t250.5 228t319 143t385.5 50q116 0 229 -11t216 -32t192.5 -51.5t158.5 -68.5v-335
q-73 36 -161.5 65t-187 49.5t-205.5 31.5t-217 11q-154 0 -282 -35.5t-229.5 -105t-177 -171t-125.5 -233.5t-75 -293.5t-25 -349.5q0 -211 31.5 -382t90 -304.5t141.5 -230.5t186.5 -160.5t225 -94t256.5 -30.5q130 0 241.5 10t208.5 28t181.5 44t161.5 58v-326zM1764 3749
h484l-556 -587h-331z" />
    <glyph glyph-name="cacute" unicode="&#x107;" horiz-adv-x="2055" 
d="M1857 100q-53 -29 -122 -56.5t-152 -48t-179 -32.5t-201 -12q-230 0 -408.5 73.5t-300.5 215.5t-185.5 350.5t-63.5 478.5q0 159 27.5 300.5t82.5 261.5t137.5 216t192 163.5t247.5 103.5t304 36q87 0 171.5 -8.5t160.5 -24t141.5 -38t114.5 -49.5v-316q-52 24 -117 45.5
t-140.5 37.5t-158.5 26t-169 10q-158 0 -273.5 -53t-191 -152t-112.5 -240.5t-37 -318.5q0 -203 41 -352.5t119 -248.5t189.5 -147.5t252.5 -48.5q114 0 206 12t168 31t138.5 43t117.5 49v-307zM1015 2408l403 587h484l-556 -587h-331z" />
    <glyph glyph-name="Ccircumflex" unicode="&#x108;" horiz-adv-x="2579" 
d="M2379 98q-77 -34 -162.5 -61.5t-187 -46.5t-221.5 -29t-267 -10q-199 0 -370.5 44t-314 130t-253 215t-186.5 299.5t-115.5 382.5t-39.5 464q0 229 37 431.5t109.5 372t180.5 304.5t250.5 228t319 143t385.5 50q116 0 229 -11t216 -32t192.5 -51.5t158.5 -68.5v-335
q-73 36 -161.5 65t-187 49.5t-205.5 31.5t-217 11q-154 0 -282 -35.5t-229.5 -105t-177 -171t-125.5 -233.5t-75 -293.5t-25 -349.5q0 -211 31.5 -382t90 -304.5t141.5 -230.5t186.5 -160.5t225 -94t256.5 -30.5q130 0 241.5 10t208.5 28t181.5 44t161.5 58v-326zM1847 3162
l-309 328l-305 -328h-335l433 587h417l433 -587h-334z" />
    <glyph glyph-name="ccircumflex" unicode="&#x109;" horiz-adv-x="2055" 
d="M1857 100q-53 -29 -122 -56.5t-152 -48t-179 -32.5t-201 -12q-230 0 -408.5 73.5t-300.5 215.5t-185.5 350.5t-63.5 478.5q0 159 27.5 300.5t82.5 261.5t137.5 216t192 163.5t247.5 103.5t304 36q87 0 171.5 -8.5t160.5 -24t141.5 -38t114.5 -49.5v-316q-52 24 -117 45.5
t-140.5 37.5t-158.5 26t-169 10q-158 0 -273.5 -53t-191 -152t-112.5 -240.5t-37 -318.5q0 -203 41 -352.5t119 -248.5t189.5 -147.5t252.5 -48.5q114 0 206 12t168 31t138.5 43t117.5 49v-307zM1501 2408l-309 328l-305 -328h-335l433 587h417l433 -587h-334z" />
    <glyph glyph-name="Cdotaccent" unicode="&#x10a;" horiz-adv-x="2579" 
d="M2379 98q-77 -34 -162.5 -61.5t-187 -46.5t-221.5 -29t-267 -10q-199 0 -370.5 44t-314 130t-253 215t-186.5 299.5t-115.5 382.5t-39.5 464q0 229 37 431.5t109.5 372t180.5 304.5t250.5 228t319 143t385.5 50q116 0 229 -11t216 -32t192.5 -51.5t158.5 -68.5v-335
q-73 36 -161.5 65t-187 49.5t-205.5 31.5t-217 11q-154 0 -282 -35.5t-229.5 -105t-177 -171t-125.5 -233.5t-75 -293.5t-25 -349.5q0 -211 31.5 -382t90 -304.5t141.5 -230.5t186.5 -160.5t225 -94t256.5 -30.5q130 0 241.5 10t208.5 28t181.5 44t161.5 58v-326zM1313 3256
v447h454v-447h-454z" />
    <glyph glyph-name="cdotaccent" unicode="&#x10b;" horiz-adv-x="2055" 
d="M1857 100q-53 -29 -122 -56.5t-152 -48t-179 -32.5t-201 -12q-230 0 -408.5 73.5t-300.5 215.5t-185.5 350.5t-63.5 478.5q0 159 27.5 300.5t82.5 261.5t137.5 216t192 163.5t247.5 103.5t304 36q87 0 171.5 -8.5t160.5 -24t141.5 -38t114.5 -49.5v-316q-52 24 -117 45.5
t-140.5 37.5t-158.5 26t-169 10q-158 0 -273.5 -53t-191 -152t-112.5 -240.5t-37 -318.5q0 -203 41 -352.5t119 -248.5t189.5 -147.5t252.5 -48.5q114 0 206 12t168 31t138.5 43t117.5 49v-307zM966 2503v446h454v-446h-454z" />
    <glyph glyph-name="Ccaron" unicode="&#x10c;" horiz-adv-x="2579" 
d="M2379 98q-77 -34 -162.5 -61.5t-187 -46.5t-221.5 -29t-267 -10q-199 0 -370.5 44t-314 130t-253 215t-186.5 299.5t-115.5 382.5t-39.5 464q0 229 37 431.5t109.5 372t180.5 304.5t250.5 228t319 143t385.5 50q116 0 229 -11t216 -32t192.5 -51.5t158.5 -68.5v-335
q-73 36 -161.5 65t-187 49.5t-205.5 31.5t-217 11q-154 0 -282 -35.5t-229.5 -105t-177 -171t-125.5 -233.5t-75 -293.5t-25 -349.5q0 -211 31.5 -382t90 -304.5t141.5 -230.5t186.5 -160.5t225 -94t256.5 -30.5q130 0 241.5 10t208.5 28t181.5 44t161.5 58v-326zM1331 3162
l-433 587h335l305 -332l309 332h334l-433 -587h-417z" />
    <glyph glyph-name="ccaron" unicode="&#x10d;" horiz-adv-x="2055" 
d="M1857 100q-53 -29 -122 -56.5t-152 -48t-179 -32.5t-201 -12q-230 0 -408.5 73.5t-300.5 215.5t-185.5 350.5t-63.5 478.5q0 159 27.5 300.5t82.5 261.5t137.5 216t192 163.5t247.5 103.5t304 36q87 0 171.5 -8.5t160.5 -24t141.5 -38t114.5 -49.5v-316q-52 24 -117 45.5
t-140.5 37.5t-158.5 26t-169 10q-158 0 -273.5 -53t-191 -152t-112.5 -240.5t-37 -318.5q0 -203 41 -352.5t119 -248.5t189.5 -147.5t252.5 -48.5q114 0 206 12t168 31t138.5 43t117.5 49v-307zM985 2408l-433 587h335l305 -332l309 332h334l-433 -587h-417z" />
    <glyph glyph-name="Dcaron" unicode="&#x10e;" horiz-adv-x="2997" 
d="M428 0v2966h958q246 0 440.5 -50.5t342.5 -143.5t253.5 -225.5t172 -297t97 -357t30.5 -406.5q0 -213 -31.5 -406t-99.5 -358t-175.5 -298.5t-258.5 -227.5t-348.5 -145t-446.5 -51h-934zM1344 310q174 0 314 35.5t249 103.5t188.5 168.5t130.5 230t75.5 288t24.5 344.5
q0 185 -24 345t-74.5 290.5t-128.5 231t-187.5 169t-250.5 104t-317 35.5h-531v-2345h531zM1198 3162l-433 587h335l305 -332l309 332h334l-433 -587h-417z" />
    <glyph glyph-name="dcaron" unicode="&#x10f;" horiz-adv-x="2701" 
d="M1877 0l-32 181q-66 -52 -141.5 -94.5t-161 -72.5t-180 -46.5t-196.5 -16.5q-217 0 -388.5 68t-289.5 203t-180.5 337.5t-62.5 472.5q0 275 69 483.5t195 350t305.5 213t399.5 71.5q95 0 180 -12t162 -35.5t145.5 -57.5t130.5 -78v1113h368v-3080h-323zM1832 1673
q-64 42 -131 72.5t-138 50.5t-147 29.5t-158 9.5q-156 0 -274 -50.5t-198 -150t-120.5 -247t-40.5 -341.5q0 -193 38.5 -341t116 -248.5t193 -152t271.5 -51.5q84 0 161.5 10.5t150 32.5t141 55t135.5 77v1245zM2431 2228l123 438l-103 414h244q51 0 95 -15t76.5 -43.5
t51.5 -69.5t19 -93q0 -59 -12 -110.5t-33.5 -102.5t-51 -106t-64.5 -119l-105 -193h-240z" />
    <glyph glyph-name="Dcroat" unicode="&#x110;" horiz-adv-x="3040" 
d="M470 0v1324h-280v298h280v1344h958q246 0 440.5 -50.5t343 -143.5t253.5 -225.5t171.5 -297t97.5 -357t31 -406.5q0 -213 -31.5 -406t-99.5 -358t-175.5 -298.5t-258.5 -227.5t-349 -145t-447 -51h-934zM1387 310q173 0 313.5 35.5t249.5 103.5t187.5 168.5t130 230
t76 288t24.5 344.5q0 185 -23.5 345t-74 290.5t-128.5 231t-187.5 169t-250.5 104t-317 35.5h-532v-1033h691v-298h-691v-1014h532z" />
    <glyph glyph-name="dcroat" unicode="&#x111;" horiz-adv-x="2597" 
d="M1877 0l-32 181q-66 -52 -141.5 -94.5t-161 -72.5t-180 -46.5t-196.5 -16.5q-217 0 -388.5 68t-289.5 203t-180.5 337.5t-62.5 472.5q0 275 69 483.5t195 350t305.5 213t399.5 71.5q95 0 180 -12t162 -35.5t145.5 -57.5t130.5 -78v499h-353v291h353v323h368v-323h257
v-291h-257v-2466h-323zM1832 1673q-64 42 -131 72.5t-138 50.5t-147 29.5t-158 9.5q-156 0 -274 -50.5t-198 -150t-120.5 -247t-40.5 -341.5q0 -193 38.5 -341t116 -248.5t193 -152t271.5 -51.5q84 0 161.5 10.5t150 32.5t141 55t135.5 77v1245z" />
    <glyph glyph-name="Emacron" unicode="&#x112;" horiz-adv-x="2521" 
d="M428 0v2966h1885v-318h-1500v-973h1289v-316h-1289v-1042h1504v-317h-1889zM783 3264v311h1163v-311h-1163z" />
    <glyph glyph-name="emacron" unicode="&#x113;" horiz-adv-x="2349" 
d="M2003 109q-67 -33 -146.5 -62.5t-174 -50.5t-205 -33t-237.5 -12q-166 0 -304 34.5t-249 101t-193.5 163t-138 221t-83 274.5t-27.5 323q0 155 26 295.5t77.5 260.5t129 217.5t181.5 166t234.5 105.5t287.5 37q154 0 283.5 -35.5t233.5 -100t182.5 -156t130.5 -204
t78 -243.5t26 -274q0 -20 -0.5 -42t-2 -42t-3 -37.5t-2.5 -28.5h-1490q7 -172 49.5 -305t124 -224.5t203.5 -138.5t287 -47q124 0 227.5 12.5t192 32.5t163 45t139.5 51v-304zM1741 1271q-7 132 -48.5 240t-113.5 185t-172.5 118.5t-225.5 41.5t-225 -41.5t-172.5 -118.5
t-115 -185t-51.5 -240h1124zM619 2511v310h1163v-310h-1163z" />
    <glyph glyph-name="Ebreve" unicode="&#x114;" horiz-adv-x="2521" 
d="M428 0v2966h1885v-318h-1500v-973h1289v-316h-1289v-1042h1504v-317h-1889zM1364 3144q-141 0 -255 43.5t-195.5 123t-126.5 191t-48 247.5h276q8 -76 35.5 -135.5t72.5 -100t106 -61.5t135 -21q73 0 134 21t106 61.5t73 100t36 135.5h277q-3 -136 -49 -247.5
t-127.5 -191t-195.5 -123t-254 -43.5z" />
    <glyph glyph-name="ebreve" unicode="&#x115;" horiz-adv-x="2349" 
d="M2003 109q-67 -33 -146.5 -62.5t-174 -50.5t-205 -33t-237.5 -12q-166 0 -304 34.5t-249 101t-193.5 163t-138 221t-83 274.5t-27.5 323q0 155 26 295.5t77.5 260.5t129 217.5t181.5 166t234.5 105.5t287.5 37q154 0 283.5 -35.5t233.5 -100t182.5 -156t130.5 -204
t78 -243.5t26 -274q0 -20 -0.5 -42t-2 -42t-3 -37.5t-2.5 -28.5h-1490q7 -172 49.5 -305t124 -224.5t203.5 -138.5t287 -47q124 0 227.5 12.5t192 32.5t163 45t139.5 51v-304zM1741 1271q-7 132 -48.5 240t-113.5 185t-172.5 118.5t-225.5 41.5t-225 -41.5t-172.5 -118.5
t-115 -185t-51.5 -240h1124zM1826 2995q-3 -136 -49 -247.5t-127.5 -191t-195.5 -123t-254 -43.5q-141 0 -255 43.5t-195.5 123t-126.5 191t-48 247.5h276q8 -76 35.5 -135t72.5 -99.5t106 -61.5t135 -21q73 0 134 21t106 61.5t73 99.5t36 135h277z" />
    <glyph glyph-name="Edotaccent" unicode="&#x116;" horiz-adv-x="2521" 
d="M428 0v2966h1885v-318h-1500v-973h1289v-316h-1289v-1042h1504v-317h-1889zM1136 3256v447h454v-447h-454z" />
    <glyph glyph-name="edotaccent" unicode="&#x117;" horiz-adv-x="2349" 
d="M2003 109q-67 -33 -146.5 -62.5t-174 -50.5t-205 -33t-237.5 -12q-166 0 -304 34.5t-249 101t-193.5 163t-138 221t-83 274.5t-27.5 323q0 155 26 295.5t77.5 260.5t129 217.5t181.5 166t234.5 105.5t287.5 37q154 0 283.5 -35.5t233.5 -100t182.5 -156t130.5 -204
t78 -243.5t26 -274q0 -20 -0.5 -42t-2 -42t-3 -37.5t-2.5 -28.5h-1490q7 -172 49.5 -305t124 -224.5t203.5 -138.5t287 -47q124 0 227.5 12.5t192 32.5t163 45t139.5 51v-304zM1741 1271q-7 132 -48.5 240t-113.5 185t-172.5 118.5t-225.5 41.5t-225 -41.5t-172.5 -118.5
t-115 -185t-51.5 -240h1124zM972 2503v446h454v-446h-454z" />
    <glyph glyph-name="Eogonek" unicode="&#x118;" horiz-adv-x="2521" 
d="M2325 -820q-50 -12 -106.5 -18.5t-115.5 -6.5q-126 0 -215 32t-146 83.5t-83.5 118t-26.5 135.5q0 75 25.5 141.5t69 125.5t100.5 111t120 98h-1519v2966h1885v-318h-1500v-973h1289v-316h-1289v-1042h1504v-317h-125q-55 -55 -102.5 -108.5t-81.5 -105.5t-52.5 -102
t-18.5 -99q0 -101 63.5 -150.5t176.5 -49.5q23 0 43.5 1.5t38.5 3.5t34.5 5t31.5 6v-221z" />
    <glyph glyph-name="eogonek" unicode="&#x119;" horiz-adv-x="2349" 
d="M2003 -820q-49 -12 -105.5 -18.5t-115.5 -6.5q-126 0 -215.5 32t-146 83.5t-83 118t-26.5 135.5q0 71 23 134.5t62 120t92 107t113 96.5q-81 -15 -170 -23t-191 -8q-166 0 -303.5 34.5t-248.5 101t-193.5 163t-138 221t-83.5 274.5t-28 323q0 155 26 295.5t78 260.5
t129.5 217.5t181.5 166t234.5 105.5t287.5 37q154 0 283.5 -35.5t233.5 -100t182.5 -156t130 -204t78 -243.5t26.5 -274q0 -20 -0.5 -42t-2 -42t-3 -37.5t-2.5 -28.5h-1490q6 -172 48.5 -305t124.5 -224.5t203.5 -138.5t286.5 -47q124 0 227.5 12.5t192.5 32.5t163.5 45
t138.5 51v-304q-93 -72 -165.5 -142t-122 -136t-75.5 -128t-26 -118q0 -101 64 -150.5t178 -49.5q23 0 43 1.5t38 3.5t34.5 5t31.5 6v-221zM1742 1271q-7 132 -48.5 240t-113.5 185t-172.5 118.5t-225.5 41.5t-225.5 -41.5t-173 -118.5t-115 -185t-50.5 -240h1124z" />
    <glyph glyph-name="Ecaron" unicode="&#x11a;" horiz-adv-x="2521" 
d="M428 0v2966h1885v-318h-1500v-973h1289v-316h-1289v-1042h1504v-317h-1889zM1154 3162l-433 587h335l305 -332l309 332h334l-433 -587h-417z" />
    <glyph glyph-name="ecaron" unicode="&#x11b;" horiz-adv-x="2349" 
d="M2003 109q-67 -33 -146.5 -62.5t-174 -50.5t-205 -33t-237.5 -12q-166 0 -304 34.5t-249 101t-193.5 163t-138 221t-83 274.5t-27.5 323q0 155 26 295.5t77.5 260.5t129 217.5t181.5 166t234.5 105.5t287.5 37q154 0 283.5 -35.5t233.5 -100t182.5 -156t130.5 -204
t78 -243.5t26 -274q0 -20 -0.5 -42t-2 -42t-3 -37.5t-2.5 -28.5h-1490q7 -172 49.5 -305t124 -224.5t203.5 -138.5t287 -47q124 0 227.5 12.5t192 32.5t163 45t139.5 51v-304zM1741 1271q-7 132 -48.5 240t-113.5 185t-172.5 118.5t-225.5 41.5t-225 -41.5t-172.5 -118.5
t-115 -185t-51.5 -240h1124zM990 2408l-433 587h335l305 -332l309 332h334l-433 -587h-417z" />
    <glyph glyph-name="Gcircumflex" unicode="&#x11c;" horiz-adv-x="2987" 
d="M2317 1359h-833v316h1218v-1536q-66 -31 -140 -57t-154.5 -46.5t-169 -36.5t-185 -26.5t-201.5 -16t-219 -5.5q-325 0 -580 95t-430.5 287t-268 481.5t-92.5 678.5q0 241 42 447.5t123.5 375.5t201.5 299.5t278 219t352 134.5t422 46q79 0 158 -5t155.5 -14.5
t148.5 -23.5t137.5 -32t122.5 -40.5t103 -47.5v-335q-73 36 -164.5 65t-195.5 49.5t-216 31.5t-225 11q-258 0 -454 -71.5t-328.5 -218t-200 -368.5t-67.5 -523q0 -218 33.5 -392.5t96 -308.5t152 -230.5t202 -158t246 -90.5t283.5 -29q100 0 191 6t172.5 16.5t153 26
t132.5 34.5v992zM1946 3162l-309 328l-305 -328h-335l433 587h417l433 -587h-334z" />
    <glyph glyph-name="gcircumflex" unicode="&#x11d;" horiz-adv-x="2597" 
d="M1832 186q-65 -52 -140.5 -93t-160 -70t-176.5 -44.5t-192 -15.5q-217 0 -388 67t-288.5 201.5t-179.5 335.5t-62 471q0 274 69 482t195 348t305.5 211t399.5 71q99 0 187.5 -13t168 -38t150 -62t132.5 -84l25 148h323v-2079q0 -245 -71 -430.5t-206 -310.5t-330 -188
t-444 -63q-113 0 -218.5 9.5t-199.5 26.5t-176 41.5t-149 54.5v320q62 -25 137.5 -49t163.5 -43t189 -30t215 -9q193 1 330 40t224 123t127 215.5t40 319.5v137zM1832 1673q-64 42 -131 72.5t-138 50.5t-147 29.5t-158 9.5q-156 0 -274 -50t-198 -148.5t-120.5 -245
t-40.5 -340.5q0 -191 38.5 -338t116 -246.5t193 -150.5t271.5 -51q84 0 161.5 10.5t150 32.5t141 55t135.5 76v1234zM1552 2408l-309 328l-305 -328h-335l433 587h417l433 -587h-334z" />
    <glyph glyph-name="Gbreve" unicode="&#x11e;" horiz-adv-x="2987" 
d="M2317 1359h-833v316h1218v-1536q-66 -31 -140 -57t-154.5 -46.5t-169 -36.5t-185 -26.5t-201.5 -16t-219 -5.5q-325 0 -580 95t-430.5 287t-268 481.5t-92.5 678.5q0 241 42 447.5t123.5 375.5t201.5 299.5t278 219t352 134.5t422 46q79 0 158 -5t155.5 -14.5
t148.5 -23.5t137.5 -32t122.5 -40.5t103 -47.5v-335q-73 36 -164.5 65t-195.5 49.5t-216 31.5t-225 11q-258 0 -454 -71.5t-328.5 -218t-200 -368.5t-67.5 -523q0 -218 33.5 -392.5t96 -308.5t152 -230.5t202 -158t246 -90.5t283.5 -29q100 0 191 6t172.5 16.5t153 26
t132.5 34.5v992zM1640 3144q-141 0 -255 43.5t-195.5 123t-126.5 191t-48 247.5h276q8 -76 35.5 -135.5t72.5 -100t106 -61.5t135 -21q73 0 134 21t106 61.5t73 100t36 135.5h277q-3 -136 -49 -247.5t-127.5 -191t-195.5 -123t-254 -43.5z" />
    <glyph glyph-name="gbreve" unicode="&#x11f;" horiz-adv-x="2597" 
d="M1832 186q-65 -52 -140.5 -93t-160 -70t-176.5 -44.5t-192 -15.5q-217 0 -388 67t-288.5 201.5t-179.5 335.5t-62 471q0 274 69 482t195 348t305.5 211t399.5 71q99 0 187.5 -13t168 -38t150 -62t132.5 -84l25 148h323v-2079q0 -245 -71 -430.5t-206 -310.5t-330 -188
t-444 -63q-113 0 -218.5 9.5t-199.5 26.5t-176 41.5t-149 54.5v320q62 -25 137.5 -49t163.5 -43t189 -30t215 -9q193 1 330 40t224 123t127 215.5t40 319.5v137zM1832 1673q-64 42 -131 72.5t-138 50.5t-147 29.5t-158 9.5q-156 0 -274 -50t-198 -148.5t-120.5 -245
t-40.5 -340.5q0 -191 38.5 -338t116 -246.5t193 -150.5t271.5 -51q84 0 161.5 10.5t150 32.5t141 55t135.5 76v1234zM1872 2995q-3 -136 -49 -247.5t-127.5 -191t-195.5 -123t-254 -43.5q-141 0 -255 43.5t-195.5 123t-126.5 191t-48 247.5h276q8 -76 35.5 -135t72.5 -99.5
t106 -61.5t135 -21q73 0 134 21t106 61.5t73 99.5t36 135h277z" />
    <glyph glyph-name="Gdotaccent" unicode="&#x120;" horiz-adv-x="2987" 
d="M2317 1359h-833v316h1218v-1536q-66 -31 -140 -57t-154.5 -46.5t-169 -36.5t-185 -26.5t-201.5 -16t-219 -5.5q-325 0 -580 95t-430.5 287t-268 481.5t-92.5 678.5q0 241 42 447.5t123.5 375.5t201.5 299.5t278 219t352 134.5t422 46q79 0 158 -5t155.5 -14.5
t148.5 -23.5t137.5 -32t122.5 -40.5t103 -47.5v-335q-73 36 -164.5 65t-195.5 49.5t-216 31.5t-225 11q-258 0 -454 -71.5t-328.5 -218t-200 -368.5t-67.5 -523q0 -218 33.5 -392.5t96 -308.5t152 -230.5t202 -158t246 -90.5t283.5 -29q100 0 191 6t172.5 16.5t153 26
t132.5 34.5v992zM1412 3256v447h454v-447h-454z" />
    <glyph glyph-name="gdotaccent" unicode="&#x121;" horiz-adv-x="2597" 
d="M1832 186q-65 -52 -140.5 -93t-160 -70t-176.5 -44.5t-192 -15.5q-217 0 -388 67t-288.5 201.5t-179.5 335.5t-62 471q0 274 69 482t195 348t305.5 211t399.5 71q99 0 187.5 -13t168 -38t150 -62t132.5 -84l25 148h323v-2079q0 -245 -71 -430.5t-206 -310.5t-330 -188
t-444 -63q-113 0 -218.5 9.5t-199.5 26.5t-176 41.5t-149 54.5v320q62 -25 137.5 -49t163.5 -43t189 -30t215 -9q193 1 330 40t224 123t127 215.5t40 319.5v137zM1832 1673q-64 42 -131 72.5t-138 50.5t-147 29.5t-158 9.5q-156 0 -274 -50t-198 -148.5t-120.5 -245
t-40.5 -340.5q0 -191 38.5 -338t116 -246.5t193 -150.5t271.5 -51q84 0 161.5 10.5t150 32.5t141 55t135.5 76v1234zM1017 2503v446h454v-446h-454z" />
    <glyph glyph-name="Gcommaaccent" unicode="&#x122;" horiz-adv-x="2987" 
d="M2317 1359h-833v316h1218v-1536q-66 -31 -140 -57t-154.5 -46.5t-169 -36.5t-185 -26.5t-201.5 -16t-219 -5.5q-325 0 -580 95t-430.5 287t-268 481.5t-92.5 678.5q0 241 42 447.5t123.5 375.5t201.5 299.5t278 219t352 134.5t422 46q79 0 158 -5t155.5 -14.5
t148.5 -23.5t137.5 -32t122.5 -40.5t103 -47.5v-335q-73 36 -164.5 65t-195.5 49.5t-216 31.5t-225 11q-258 0 -454 -71.5t-328.5 -218t-200 -368.5t-67.5 -523q0 -218 33.5 -392.5t96 -308.5t152 -230.5t202 -158t246 -90.5t283.5 -29q100 0 191 6t172.5 16.5t153 26
t132.5 34.5v992zM1243 -814l272 289l-70 353h226q54 0 95 -14.5t67 -41.5t39.5 -64.5t13.5 -84.5q0 -72 -27.5 -137t-73 -124.5t-107 -112t-129.5 -100.5l-157 -108z" />
    <glyph glyph-name="gcommaaccent" unicode="&#x123;" horiz-adv-x="2597" 
d="M1832 186q-65 -52 -140.5 -93t-160 -70t-176.5 -44.5t-192 -15.5q-217 0 -388 67t-288.5 201.5t-179.5 335.5t-62 471q0 274 69 482t195 348t305.5 211t399.5 71q99 0 187.5 -13t168 -38t150 -62t132.5 -84l25 148h323v-2079q0 -245 -71 -430.5t-206 -310.5t-330 -188
t-444 -63q-113 0 -218.5 9.5t-199.5 26.5t-176 41.5t-149 54.5v320q62 -25 137.5 -49t163.5 -43t189 -30t215 -9q193 1 330 40t224 123t127 215.5t40 319.5v137zM1832 1673q-64 42 -131 72.5t-138 50.5t-147 29.5t-158 9.5q-156 0 -274 -50t-198 -148.5t-120.5 -245
t-40.5 -340.5q0 -191 38.5 -338t116 -246.5t193 -150.5t271.5 -51q84 0 161.5 10.5t150 32.5t141 55t135.5 76v1234zM1210 2395q-55 0 -95 14.5t-67 41.5t-40 64.5t-13 83.5q0 72 27 138.5t73 126t107 112.5t129 100l158 109l149 -146l-272 -289l70 -355h-226z" />
    <glyph glyph-name="Hcircumflex" unicode="&#x124;" horiz-adv-x="3118" 
d="M2305 0v1358h-1492v-1358h-385v2966h385v-1291h1492v1291h385v-2966h-385zM1847 3162l-309 328l-305 -328h-335l433 587h417l433 -587h-334z" />
    <glyph glyph-name="hcircumflex" unicode="&#x125;" horiz-adv-x="2597" 
d="M1869 0v1388q0 123 -31 209t-91.5 140t-150 79t-206.5 25q-90 0 -173.5 -13t-160.5 -38t-149.5 -61.5t-141.5 -84.5v-1644h-368v3080h368v-1169q66 54 143.5 98t164.5 75t184.5 48.5t205.5 17.5q122 0 227 -19t191 -57t152.5 -95.5t112 -136t69 -177t23.5 -218.5v-1447
h-369zM887 3215l-309 328l-305 -328h-335l433 587h417l433 -587h-334z" />
    <glyph glyph-name="Hbar" unicode="&#x126;" horiz-adv-x="3171" 
d="M2332 0v1358h-1493v-1358h-385v2152h-272v298h272v516h385v-516h1493v516h385v-516h272v-298h-272v-2152h-385zM2332 2152h-1493v-477h1493v477z" />
    <glyph glyph-name="hbar" unicode="&#x127;" horiz-adv-x="2597" 
d="M1869 0v1388q0 123 -31 209t-91.5 140t-150 79t-206.5 25q-90 0 -173.5 -13t-160.5 -38t-149.5 -61.5t-141.5 -84.5v-1644h-368v2466h-257v291h257v323h368v-323h353v-291h-353v-555q66 54 143.5 98t164.5 75t184.5 48.5t205.5 17.5q122 0 227 -19t191 -57t152.5 -95.5
t112 -136t69 -177t23.5 -218.5v-1447h-369z" />
    <glyph glyph-name="Itilde" unicode="&#x128;" horiz-adv-x="1240" 
d="M428 0v2966h385v-2966h-385zM1320 3693q0 -114 -30.5 -208t-87 -161t-135.5 -104t-175 -37q-60 0 -113 15.5t-100 39.5t-90 51t-82.5 51t-76.5 39.5t-73 15.5q-48 0 -80 -16.5t-53.5 -43.5t-33 -63.5t-15.5 -77.5h-256q0 115 30 208.5t85.5 160.5t134 103.5t176.5 36.5
q59 0 112 -15.5t100.5 -39t90.5 -50.5t83.5 -50.5t78 -39t73.5 -15.5q48 0 80 16t53.5 43t32.5 63.5t16 77.5h255z" />
    <glyph glyph-name="itilde" unicode="&#x129;" horiz-adv-x="1163" 
d="M397 0v2101h368v-2101h-368zM1312 2940q0 -115 -30.5 -209t-87 -160.5t-135.5 -103.5t-175 -37q-60 0 -113 15.5t-100 39.5t-90 51t-82.5 51t-76.5 39.5t-73 15.5q-48 0 -80 -16.5t-53.5 -44t-33 -64t-15.5 -77.5h-256q0 115 30 208.5t85.5 161t134 104t176.5 36.5
q59 0 112 -15.5t100.5 -39t90.5 -51t83.5 -51t78 -39t73.5 -15.5q48 0 80 16t53.5 43.5t32.5 64t16 77.5h255z" />
    <glyph glyph-name="Imacron" unicode="&#x12a;" horiz-adv-x="1240" 
d="M428 0v2966h385v-2966h-385zM39 3264v311h1163v-311h-1163z" />
    <glyph glyph-name="imacron" unicode="&#x12b;" horiz-adv-x="1163" 
d="M397 0v2101h368v-2101h-368zM0 2511v310h1163v-310h-1163z" />
    <glyph glyph-name="Ibreve" unicode="&#x12c;" horiz-adv-x="1240" 
d="M428 0v2966h385v-2966h-385zM620 3144q-141 0 -255 43.5t-195.5 123t-126.5 191t-48 247.5h276q8 -76 35.5 -135.5t72.5 -100t106 -61.5t135 -21q73 0 134 21t106 61.5t73 100t36 135.5h277q-3 -136 -49 -247.5t-127.5 -191t-195.5 -123t-254 -43.5z" />
    <glyph glyph-name="ibreve" unicode="&#x12d;" horiz-adv-x="1163" 
d="M397 0v2101h368v-2101h-368zM1207 2995q-3 -136 -49 -247.5t-127.5 -191t-195.5 -123t-254 -43.5q-141 0 -255 43.5t-195.5 123t-126.5 191t-48 247.5h276q8 -76 35.5 -135t72.5 -99.5t106 -61.5t135 -21q73 0 134 21t106 61.5t73 99.5t36 135h277z" />
    <glyph glyph-name="Iogonek" unicode="&#x12e;" horiz-adv-x="1240" 
d="M945 -820q-50 -12 -106.5 -18.5t-114.5 -6.5q-126 0 -215.5 32t-146 83.5t-83 118t-26.5 135.5q0 75 25.5 141.5t68 125.5t100 111t120.5 98h-139v2966h385v-2966q-56 -55 -103.5 -108.5t-81.5 -105.5t-53 -102t-19 -99q0 -101 64 -150.5t177 -49.5q70 0 148 16v-221z
" />
    <glyph glyph-name="iogonek" unicode="&#x12f;" horiz-adv-x="1163" 
d="M840 -820q-49 -12 -105.5 -18.5t-115.5 -6.5q-126 0 -215.5 32t-146 83.5t-83 118t-26.5 135.5q0 75 25.5 141.5t68.5 125.5t100 111t120 98h-65v2101h368v-2101h-57q-55 -55 -102 -108.5t-81.5 -105.5t-53.5 -102t-19 -99q0 -101 63.5 -150.5t177.5 -49.5q23 0 43 1.5
t38 3.5t34.5 5t31.5 6v-221zM397 2537v429h368v-429h-368z" />
    <glyph glyph-name="Idotaccent" unicode="&#x130;" horiz-adv-x="1240" 
d="M428 0v2966h385v-2966h-385zM393 3256v447h454v-447h-454z" />
    <glyph glyph-name="dotlessi" unicode="&#x131;" horiz-adv-x="1163" 
d="M397 0v2101h368v-2101h-368z" />
    <glyph glyph-name="IJ" unicode="&#x132;" horiz-adv-x="2729" 
d="M428 0v2966h385v-2966h-385zM1222 -232q18 -4 39 -7.5t43 -5.5t45 -3t45 -1q126 0 222.5 37t162 118t99.5 210t34 313v2236h-454v301h839v-2578q0 -250 -62.5 -433t-176.5 -302t-276.5 -177t-361.5 -58q-26 0 -53.5 1.5t-53 5t-49 7.5t-42.5 10v326z" />
    <glyph glyph-name="ij" unicode="&#x133;" horiz-adv-x="2326" 
d="M397 0v2101h368v-2101h-368zM397 2537v429h368v-429h-368zM926 -629q40 -8 74.5 -11.5t81.5 -3.5q122 0 212 40.5t149 125.5t88 215.5t29 311.5v2052h368v-2091q0 -249 -56 -430t-160.5 -298.5t-254 -174.5t-336.5 -57q-28 0 -55.5 1.5t-53 4.5t-47.5 7t-39 9v299z
M1560 2537v429h368v-429h-368z" />
    <glyph glyph-name="Jcircumflex" unicode="&#x134;" horiz-adv-x="1489" 
d="M-18 -232q18 -4 39 -7.5t43 -5.5t45 -3t45 -1q126 0 222.5 37t162 118t99.5 210t34 313v2236h-454v301h839v-2578q0 -250 -62.5 -433t-176.5 -302t-276.5 -177t-361.5 -58q-26 0 -53.5 1.5t-53 5t-49 7.5t-42.5 10v326zM1087 3162l-309 328l-305 -328h-335l433 587h417
l433 -587h-334z" />
    <glyph glyph-name="jcircumflex" unicode="&#x135;" horiz-adv-x="1163" 
d="M-237 -629q40 -8 74.5 -11.5t81.5 -3.5q122 0 212 40.5t149 125.5t88 215.5t29 311.5v2052h368v-2091q0 -249 -56 -430t-160.5 -298.5t-254 -174.5t-336.5 -57q-28 0 -55.5 1.5t-53 4.5t-47.5 7t-39 9v299zM889 2408l-309 328l-305 -328h-335l433 587h417l433 -587h-334z
" />
    <glyph glyph-name="Kcommaaccent" unicode="&#x136;" horiz-adv-x="2756" 
d="M2191 0l-1378 1389v-1389h-385v2966h385v-1354l1351 1354h487l-1228 -1224q-84 -84 -148.5 -137t-123.5 -89q27 -17 56.5 -38t61.5 -47.5t68 -59.5t76 -74l1294 -1297h-516zM1036 -814l272 289l-70 353h226q54 0 95 -14.5t67 -41.5t39.5 -64.5t13.5 -84.5
q0 -72 -27.5 -137t-73 -124.5t-107 -112t-129.5 -100.5l-157 -108z" />
    <glyph glyph-name="kcommaaccent" unicode="&#x137;" horiz-adv-x="2280" 
d="M1765 0l-1000 955v-955h-368v3080h368v-1907l980 928h450l-910 -864q-31 -29 -59 -52.5t-53.5 -42.5t-49.5 -35t-48 -30q22 -11 44 -24.5t46 -31.5t51.5 -40t59.5 -51l976 -930h-487zM838 -814l272 289l-70 353h226q54 0 95 -14.5t67 -41.5t39.5 -64.5t13.5 -84.5
q0 -72 -27.5 -137t-73 -124.5t-107 -112t-129.5 -100.5l-157 -108z" />
    <glyph glyph-name="Lacute" unicode="&#x139;" horiz-adv-x="2250" 
d="M428 0v2966h385v-2649h1310v-317h-1695zM844 3749h484l-556 -587h-331z" />
    <glyph glyph-name="lacute" unicode="&#x13a;" horiz-adv-x="1341" 
d="M1241 23q-35 -11 -76.5 -20.5t-88 -17t-97.5 -11t-107 -3.5q-116 0 -205 28t-149.5 88t-92 153.5t-31.5 224.5v2615h368v-2573q0 -54 9.5 -94.5t32.5 -68t61.5 -41t97.5 -13.5q73 0 144 7t134 20v-294zM397 3215l403 587h484l-556 -587h-331z" />
    <glyph glyph-name="Lcommaaccent" unicode="&#x13b;" horiz-adv-x="2250" 
d="M428 0v2966h385v-2649h1310v-317h-1695zM879 -814l272 289l-70 353h226q54 0 95 -14.5t67 -41.5t39.5 -64.5t13.5 -84.5q0 -72 -27.5 -137t-73 -124.5t-107 -112t-129.5 -100.5l-157 -108z" />
    <glyph glyph-name="lcommaaccent" unicode="&#x13c;" horiz-adv-x="1341" 
d="M1241 23q-35 -11 -76.5 -20.5t-88 -17t-97.5 -11t-107 -3.5q-116 0 -205 28t-149.5 88t-92 153.5t-31.5 224.5v2615h368v-2573q0 -54 9.5 -94.5t32.5 -68t61.5 -41t97.5 -13.5q73 0 144 7t134 20v-294zM420 -814l272 289l-70 353h226q54 0 95 -14.5t67 -41.5t39.5 -64.5
t13.5 -84.5q0 -72 -27.5 -137t-73 -124.5t-107 -112t-129.5 -100.5l-157 -108z" />
    <glyph glyph-name="Lcaron" unicode="&#x13d;" horiz-adv-x="2250" 
d="M428 0v2966h385v-2649h1310v-317h-1695zM1154 2228l123 438l-103 414h244q51 0 95 -15t76.5 -43.5t51.5 -69.5t19 -93q0 -59 -12 -110.5t-33.5 -102.5t-51 -106t-64.5 -119l-105 -193h-240z" />
    <glyph glyph-name="lcaron" unicode="&#x13e;" horiz-adv-x="1358" 
d="M1241 23q-35 -11 -76.5 -20.5t-88 -17t-97.5 -11t-107 -3.5q-116 0 -205 28t-149.5 88t-92 153.5t-31.5 224.5v2615h368v-2573q0 -54 9.5 -94.5t32.5 -68t61.5 -41t97.5 -13.5q73 0 144 7t134 20v-294zM973 2228l123 438l-103 414h244q51 0 95 -15t76.5 -43.5t51.5 -69.5
t19 -93q0 -59 -12 -110.5t-33.5 -102.5t-51 -106t-64.5 -119l-105 -193h-240z" />
    <glyph glyph-name="Ldot" unicode="&#x13f;" horiz-adv-x="2250" 
d="M428 0v2966h385v-2649h1310v-317h-1695zM1296 1357v446h455v-446h-455z" />
    <glyph glyph-name="ldot" unicode="&#x140;" horiz-adv-x="1459" 
d="M1241 23q-35 -11 -76.5 -20.5t-88 -17t-97.5 -11t-107 -3.5q-116 0 -205 28t-149.5 88t-92 153.5t-31.5 224.5v2615h368v-2573q0 -54 9.5 -94.5t32.5 -68t61.5 -41t97.5 -13.5q73 0 144 7t134 20v-294zM1103 1264v403h408v-403h-408z" />
    <glyph glyph-name="Lslash" unicode="&#x141;" horiz-adv-x="2291" 
d="M469 0v1190l-320 -141v304l320 141v1472h384v-1297l656 297v-305l-656 -296v-1048h1311v-317h-1695z" />
    <glyph glyph-name="lslash" unicode="&#x142;" horiz-adv-x="1436" 
d="M1289 23q-36 -11 -77 -20.5t-87.5 -17t-98 -11t-107.5 -3.5q-115 0 -204 28t-150 88t-92.5 153.5t-31.5 224.5v751l-308 -136v303l308 137v1560h369v-1396l399 182v-304l-399 -183v-872q0 -54 9.5 -94.5t32.5 -68t61.5 -41t97.5 -13.5q73 0 143.5 7t134.5 20v-294z" />
    <glyph glyph-name="Nacute" unicode="&#x143;" horiz-adv-x="3203" 
d="M2367 0l-1319 2002q-66 99 -135.5 218.5t-128.5 246.5q5 -62 9 -125.5t6.5 -126t3.5 -120.5t1 -108v-1987h-376v2966h411l1319 -2002q32 -50 65 -104.5t67 -113t66.5 -119.5t62.5 -123q-5 60 -9 123t-6.5 124.5t-3.5 119t-1 107.5v1988h377v-2966h-409zM1806 3749h484
l-556 -587h-331z" />
    <glyph glyph-name="nacute" unicode="&#x144;" horiz-adv-x="2597" 
d="M1869 0v1388q0 123 -31 209t-91.5 140t-150 79t-206.5 25q-90 0 -173.5 -13t-160.5 -38t-149.5 -62.5t-141.5 -87.5v-1640h-368v2101h330l26 -195q67 55 145.5 100t167.5 77t188.5 49.5t208.5 17.5q122 0 227 -19t191 -57t152.5 -95.5t112 -136t69 -177t23.5 -218.5
v-1447h-369zM1140 2408l403 587h484l-556 -587h-331z" />
    <glyph glyph-name="Ncommaaccent" unicode="&#x145;" horiz-adv-x="3203" 
d="M2367 0l-1319 2002q-66 99 -135.5 218.5t-128.5 246.5q5 -62 9 -125.5t6.5 -126t3.5 -120.5t1 -108v-1987h-376v2966h411l1319 -2002q32 -50 65 -104.5t67 -113t66.5 -119.5t62.5 -123q-5 60 -9 123t-6.5 124.5t-3.5 119t-1 107.5v1988h377v-2966h-409zM1203 -814
l272 289l-70 353h226q54 0 95 -14.5t67 -41.5t39.5 -64.5t13.5 -84.5q0 -72 -27.5 -137t-73 -124.5t-107 -112t-129.5 -100.5l-157 -108z" />
    <glyph glyph-name="ncommaaccent" unicode="&#x146;" horiz-adv-x="2597" 
d="M1869 0v1388q0 123 -31 209t-91.5 140t-150 79t-206.5 25q-90 0 -173.5 -13t-160.5 -38t-149.5 -62.5t-141.5 -87.5v-1640h-368v2101h330l26 -195q67 55 145.5 100t167.5 77t188.5 49.5t208.5 17.5q122 0 227 -19t191 -57t152.5 -95.5t112 -136t69 -177t23.5 -218.5
v-1447h-369zM921 -814l272 289l-70 353h226q54 0 95 -14.5t67 -41.5t39.5 -64.5t13.5 -84.5q0 -72 -27.5 -137t-73 -124.5t-107 -112t-129.5 -100.5l-157 -108z" />
    <glyph glyph-name="Ncaron" unicode="&#x147;" horiz-adv-x="3203" 
d="M2367 0l-1319 2002q-66 99 -135.5 218.5t-128.5 246.5q5 -62 9 -125.5t6.5 -126t3.5 -120.5t1 -108v-1987h-376v2966h411l1319 -2002q32 -50 65 -104.5t67 -113t66.5 -119.5t62.5 -123q-5 60 -9 123t-6.5 124.5t-3.5 119t-1 107.5v1988h377v-2966h-409zM1373 3162
l-433 587h335l305 -332l309 332h334l-433 -587h-417z" />
    <glyph glyph-name="ncaron" unicode="&#x148;" horiz-adv-x="2597" 
d="M1869 0v1388q0 123 -31 209t-91.5 140t-150 79t-206.5 25q-90 0 -173.5 -13t-160.5 -38t-149.5 -62.5t-141.5 -87.5v-1640h-368v2101h330l26 -195q67 55 145.5 100t167.5 77t188.5 49.5t208.5 17.5q122 0 227 -19t191 -57t152.5 -95.5t112 -136t69 -177t23.5 -218.5
v-1447h-369zM1110 2408l-433 587h335l305 -332l309 332h334l-433 -587h-417z" />
    <glyph glyph-name="napostrophe" unicode="&#x149;" horiz-adv-x="3399" 
d="M207 2103l250 515l-101 462h304q57 0 97.5 -11.5t67 -35.5t38 -59.5t11.5 -83.5q0 -80 -21.5 -157.5t-64 -160t-106 -172.5t-147.5 -195l-82 -102h-246zM2672 0v1388q0 123 -31 209t-91.5 140t-150 79t-206.5 25q-90 0 -173.5 -13t-160.5 -38t-149.5 -62.5t-141.5 -87.5
v-1640h-368v2101h330l26 -195q67 55 145.5 100t167.5 77t188.5 49.5t208.5 17.5q122 0 227 -19t191 -57t152.5 -95.5t112 -136t69 -177t23.5 -218.5v-1447h-369z" />
    <glyph glyph-name="Eng" unicode="&#x14a;" horiz-adv-x="3203" 
d="M1774 -629q34 -8 76.5 -11.5t78.5 -3.5q136 0 226.5 50.5t144.5 138t76.5 205t22.5 250.5h-32l-1319 2002q-66 99 -135.5 218.5t-128.5 246.5q5 -62 9 -125.5t6.5 -126t3.5 -120.5t1 -108v-1987h-376v2966h411l1319 -2002q32 -50 65 -104.5t67 -113t66.5 -119.5
t62.5 -123q-5 60 -9 123t-6.5 124.5t-3.5 119t-1 107.5v1988h377v-2956q0 -232 -50.5 -411t-152 -301t-252.5 -185t-352 -63q-51 0 -100.5 5.5t-94.5 16.5v299z" />
    <glyph glyph-name="eng" unicode="&#x14b;" horiz-adv-x="2597" 
d="M1236 -629q40 -8 74.5 -11.5t81.5 -3.5q122 0 212 40.5t149 125.5t88 215.5t29 311.5v1339q0 123 -31.5 209t-92 140t-150 79t-206.5 25q-90 0 -173.5 -13t-160.5 -38t-149.5 -62.5t-141.5 -87.5v-1640h-368v2101h330l26 -195q67 55 145.5 100t167.5 77t188.5 49.5
t208.5 17.5q122 0 227 -19t191 -57t152.5 -95.5t112 -136t69 -177t23.5 -218.5v-1437q0 -249 -56 -430t-160.5 -298.5t-254 -174.5t-336.5 -57q-28 0 -55.5 1.5t-53 4.5t-47.5 7t-39 9v299z" />
    <glyph glyph-name="Omacron" unicode="&#x14c;" horiz-adv-x="3071" 
d="M1531 -49q-228 0 -410 51.5t-322 148t-239.5 233t-163.5 306.5t-94 369.5t-30 420.5q0 220 30.5 419.5t95 370t165 308.5t241.5 235t323 149.5t410 52.5t410.5 -51.5t323 -148t240.5 -233t164 -307t94 -369.5t30 -420q0 -220 -30.5 -420t-95.5 -370t-166 -308t-242 -235
t-324 -149.5t-410 -52.5zM1537 273q157 0 281.5 41.5t220 117.5t163.5 184.5t112.5 243t65 292t20.5 331.5t-20.5 331t-65 292t-112.5 243t-163.5 184.5t-220.5 117.5t-281 41q-157 0 -282 -41t-221 -117.5t-164.5 -184.5t-113 -243t-64.5 -292t-20 -331t20 -331.5
t64.5 -292t113 -243t164.5 -184.5t221 -117.5t282 -41.5zM953 3264v311h1163v-311h-1163z" />
    <glyph glyph-name="omacron" unicode="&#x14d;" horiz-adv-x="2511" 
d="M1255 -49q-185 0 -332.5 38.5t-260.5 109t-194.5 170t-133 221.5t-75.5 263.5t-24 296.5q0 154 26 296t79.5 264t136.5 222t196.5 170.5t258.5 109t323 38.5q186 0 334 -38.5t261.5 -109t194.5 -170.5t132 -222t75 -264t24 -297q0 -154 -25.5 -295.5t-79 -263.5
t-136.5 -221.5t-196 -170t-258.5 -109t-325.5 -38.5zM1255 256q176 0 297.5 58t198 163t110.5 250.5t34 321.5q0 177 -34 324.5t-110.5 254t-198 165t-297.5 58.5q-173 0 -295 -58.5t-198.5 -164.5t-111 -253.5t-34.5 -324.5q0 -176 34.5 -322t111 -251t198.5 -163t295 -58z
M671 2511v310h1163v-310h-1163z" />
    <glyph glyph-name="Obreve" unicode="&#x14e;" horiz-adv-x="3071" 
d="M1531 -49q-228 0 -410 51.5t-322 148t-239.5 233t-163.5 306.5t-94 369.5t-30 420.5q0 220 30.5 419.5t95 370t165 308.5t241.5 235t323 149.5t410 52.5t410.5 -51.5t323 -148t240.5 -233t164 -307t94 -369.5t30 -420q0 -220 -30.5 -420t-95.5 -370t-166 -308t-242 -235
t-324 -149.5t-410 -52.5zM1537 273q157 0 281.5 41.5t220 117.5t163.5 184.5t112.5 243t65 292t20.5 331.5t-20.5 331t-65 292t-112.5 243t-163.5 184.5t-220.5 117.5t-281 41q-157 0 -282 -41t-221 -117.5t-164.5 -184.5t-113 -243t-64.5 -292t-20 -331t20 -331.5
t64.5 -292t113 -243t164.5 -184.5t221 -117.5t282 -41.5zM1534 3144q-141 0 -255 43.5t-195.5 123t-126.5 191t-48 247.5h276q8 -76 35.5 -135.5t72.5 -100t106 -61.5t135 -21q73 0 134 21t106 61.5t73 100t36 135.5h277q-3 -136 -49 -247.5t-127.5 -191t-195.5 -123
t-254 -43.5z" />
    <glyph glyph-name="obreve" unicode="&#x14f;" horiz-adv-x="2511" 
d="M1255 -49q-185 0 -332.5 38.5t-260.5 109t-194.5 170t-133 221.5t-75.5 263.5t-24 296.5q0 154 26 296t79.5 264t136.5 222t196.5 170.5t258.5 109t323 38.5q186 0 334 -38.5t261.5 -109t194.5 -170.5t132 -222t75 -264t24 -297q0 -154 -25.5 -295.5t-79 -263.5
t-136.5 -221.5t-196 -170t-258.5 -109t-325.5 -38.5zM1255 256q176 0 297.5 58t198 163t110.5 250.5t34 321.5q0 177 -34 324.5t-110.5 254t-198 165t-297.5 58.5q-173 0 -295 -58.5t-198.5 -164.5t-111 -253.5t-34.5 -324.5q0 -176 34.5 -322t111 -251t198.5 -163t295 -58z
M1878 2995q-3 -136 -49 -247.5t-127.5 -191t-195.5 -123t-254 -43.5q-141 0 -255 43.5t-195.5 123t-126.5 191t-48 247.5h276q8 -76 35.5 -135t72.5 -99.5t106 -61.5t135 -21q73 0 134 21t106 61.5t73 99.5t36 135h277z" />
    <glyph glyph-name="Ohungarumlaut" unicode="&#x150;" horiz-adv-x="3071" 
d="M1531 -49q-228 0 -410 51.5t-322 148t-239.5 233t-163.5 306.5t-94 369.5t-30 420.5q0 220 30.5 419.5t95 370t165 308.5t241.5 235t323 149.5t410 52.5t410.5 -51.5t323 -148t240.5 -233t164 -307t94 -369.5t30 -420q0 -220 -30.5 -420t-95.5 -370t-166 -308t-242 -235
t-324 -149.5t-410 -52.5zM1537 273q157 0 281.5 41.5t220 117.5t163.5 184.5t112.5 243t65 292t20.5 331.5t-20.5 331t-65 292t-112.5 243t-163.5 184.5t-220.5 117.5t-281 41q-157 0 -282 -41t-221 -117.5t-164.5 -184.5t-113 -243t-64.5 -292t-20 -331t20 -331.5
t64.5 -292t113 -243t164.5 -184.5t221 -117.5t282 -41.5zM994 3162l256 587h469l-412 -587h-313zM1715 3162l256 587h468l-411 -587h-313z" />
    <glyph glyph-name="ohungarumlaut" unicode="&#x151;" horiz-adv-x="2511" 
d="M1255 -49q-185 0 -332.5 38.5t-260.5 109t-194.5 170t-133 221.5t-75.5 263.5t-24 296.5q0 154 26 296t79.5 264t136.5 222t196.5 170.5t258.5 109t323 38.5q186 0 334 -38.5t261.5 -109t194.5 -170.5t132 -222t75 -264t24 -297q0 -154 -25.5 -295.5t-79 -263.5
t-136.5 -221.5t-196 -170t-258.5 -109t-325.5 -38.5zM1255 256q176 0 297.5 58t198 163t110.5 250.5t34 321.5q0 177 -34 324.5t-110.5 254t-198 165t-297.5 58.5q-173 0 -295 -58.5t-198.5 -164.5t-111 -253.5t-34.5 -324.5q0 -176 34.5 -322t111 -251t198.5 -163t295 -58z
M713 2408l256 587h469l-412 -587h-313zM1434 2408l256 587h468l-411 -587h-313z" />
    <glyph glyph-name="OE" unicode="&#x152;" horiz-adv-x="4309" 
d="M2239 0q-70 -9 -142.5 -15.5t-147 -10.5t-151.5 -5.5t-155 -1.5q-238 0 -433 50.5t-348.5 145t-266.5 229t-186.5 302.5t-110 366.5t-36.5 419.5q0 220 36 418t110 367t185.5 304.5t262.5 230.5t341.5 146.5t422.5 51.5q87 0 171 -2t162 -6t150 -10.5t136 -13.5h1862
v-318h-1500v-973h1288v-316h-1288v-1042h1505v-317h-1867zM2216 2660q-61 7 -129.5 12.5t-139 9t-141.5 5.5t-140 2q-167 0 -306.5 -39.5t-251 -112.5t-195 -179.5t-139.5 -240t-84 -293.5t-28 -341t28 -341t84 -294t139.5 -240t195 -179.5t251 -113t306.5 -39.5
q69 0 140 1.5t141.5 4.5t138.5 8.5t130 15.5v2354z" />
    <glyph glyph-name="oe" unicode="&#x153;" horiz-adv-x="4000" 
d="M3652 109q-66 -33 -145.5 -62.5t-174 -50.5t-205 -33t-238.5 -12q-150 0 -276.5 29t-228 84.5t-178 135.5t-128.5 183q-52 -99 -128 -179t-177.5 -136.5t-230 -86.5t-287.5 -30q-185 0 -332.5 38.5t-260.5 109t-194 170t-133 221.5t-76 263.5t-24 296.5q0 154 26 296
t80 264t136.5 222t196 170.5t258.5 109t323 38.5q161 0 291 -30.5t232.5 -86.5t177.5 -134t125 -173q51 96 122.5 174t164.5 133.5t209 86t255 30.5q154 0 283.5 -35.5t233.5 -100t182 -156t130 -204t78.5 -243.5t26.5 -274q0 -20 -0.5 -42t-2 -42t-3 -37.5t-3.5 -28.5
h-1490q7 -172 49 -305.5t122.5 -224.5t203 -138t289.5 -47q123 0 227 12.5t192.5 32.5t162.5 45t139 51v-304zM1255 256q176 0 297.5 58t198 163t110.5 250.5t34 321.5q0 177 -34 324.5t-110.5 254t-198 165t-297.5 58.5q-173 0 -295 -58.5t-198.5 -164.5t-111 -253.5
t-34.5 -324.5q0 -176 34.5 -322t111 -251t198.5 -163t295 -58zM3392 1271q-8 132 -49.5 240t-113.5 185t-172.5 118.5t-224.5 41.5q-126 0 -226.5 -41.5t-172.5 -118.5t-114.5 -185t-50.5 -240h1124z" />
    <glyph glyph-name="Racute" unicode="&#x154;" horiz-adv-x="2785" 
d="M2186 0l-678 1001q-31 45 -57 80.5t-51.5 62t-53 45t-58 30.5t-67.5 17t-81 5h-327v-1241h-385v2966h952q256 0 444.5 -53t313 -159t185 -265t60.5 -372q0 -187 -51.5 -329t-143.5 -244.5t-218.5 -166.5t-276.5 -95q62 -32 117 -86.5t109 -132.5l724 -1063h-457z
M1304 1540q168 0 296 33.5t214 104.5t129.5 180t43.5 259q0 138 -38 240t-119 168.5t-207.5 99.5t-305.5 33h-504v-1118h491zM1541 3749h484l-556 -587h-331z" />
    <glyph glyph-name="racute" unicode="&#x155;" horiz-adv-x="1739" 
d="M397 0v2101h335l25 -324q45 76 105 144t137 118.5t170.5 80t207.5 29.5q84 0 152 -13.5t117 -33.5v-347q-31 10 -69 18.5t-80.5 14.5t-88 9.5t-91.5 3.5q-74 0 -138 -16t-119.5 -44.5t-102 -67t-83 -83t-64 -93.5t-45.5 -99v-1398h-368zM799 2408l403 587h484l-556 -587
h-331z" />
    <glyph glyph-name="Rcommaaccent" unicode="&#x156;" horiz-adv-x="2785" 
d="M2186 0l-678 1001q-31 45 -57 80.5t-51.5 62t-53 45t-58 30.5t-67.5 17t-81 5h-327v-1241h-385v2966h952q256 0 444.5 -53t313 -159t185 -265t60.5 -372q0 -187 -51.5 -329t-143.5 -244.5t-218.5 -166.5t-276.5 -95q62 -32 117 -86.5t109 -132.5l724 -1063h-457z
M1304 1540q168 0 296 33.5t214 104.5t129.5 180t43.5 259q0 138 -38 240t-119 168.5t-207.5 99.5t-305.5 33h-504v-1118h491zM1060 -814l272 289l-70 353h226q54 0 95 -14.5t67 -41.5t39.5 -64.5t13.5 -84.5q0 -72 -27.5 -137t-73 -124.5t-107 -112t-129.5 -100.5l-157 -108
z" />
    <glyph glyph-name="rcommaaccent" unicode="&#x157;" horiz-adv-x="1739" 
d="M397 0v2101h335l25 -324q45 76 105 144t137 118.5t170.5 80t207.5 29.5q84 0 152 -13.5t117 -33.5v-347q-31 10 -69 18.5t-80.5 14.5t-88 9.5t-91.5 3.5q-74 0 -138 -16t-119.5 -44.5t-102 -67t-83 -83t-64 -93.5t-45.5 -99v-1398h-368zM184 -814l272 289l-70 353h226
q54 0 95 -14.5t67 -41.5t39.5 -64.5t13.5 -84.5q0 -72 -27.5 -137t-73 -124.5t-107 -112t-129.5 -100.5l-157 -108z" />
    <glyph glyph-name="Rcaron" unicode="&#x158;" horiz-adv-x="2785" 
d="M2186 0l-678 1001q-31 45 -57 80.5t-51.5 62t-53 45t-58 30.5t-67.5 17t-81 5h-327v-1241h-385v2966h952q256 0 444.5 -53t313 -159t185 -265t60.5 -372q0 -187 -51.5 -329t-143.5 -244.5t-218.5 -166.5t-276.5 -95q62 -32 117 -86.5t109 -132.5l724 -1063h-457z
M1304 1540q168 0 296 33.5t214 104.5t129.5 180t43.5 259q0 138 -38 240t-119 168.5t-207.5 99.5t-305.5 33h-504v-1118h491zM1108 3162l-433 587h335l305 -332l309 332h334l-433 -587h-417z" />
    <glyph glyph-name="rcaron" unicode="&#x159;" horiz-adv-x="1739" 
d="M397 0v2101h335l25 -324q45 76 105 144t137 118.5t170.5 80t207.5 29.5q84 0 152 -13.5t117 -33.5v-347q-31 10 -69 18.5t-80.5 14.5t-88 9.5t-91.5 3.5q-74 0 -138 -16t-119.5 -44.5t-102 -67t-83 -83t-64 -93.5t-45.5 -99v-1398h-368zM768 2408l-433 587h335l305 -332
l309 332h334l-433 -587h-417z" />
    <glyph glyph-name="Sacute" unicode="&#x15a;" horiz-adv-x="2502" 
d="M239 444q77 -32 177.5 -62t214.5 -52.5t236.5 -35.5t245.5 -13q184 0 324 38.5t234.5 107.5t143.5 163t49 205q0 74 -17 133t-52.5 108t-89 89.5t-127.5 76t-168 67.5t-208 65q-141 40 -264.5 83t-225.5 94.5t-182 115.5t-135 145t-84 183t-28 231q0 124 28 233
t85.5 201.5t144 165.5t203 124t264.5 78t328 27q133 0 249.5 -10.5t216.5 -31t185.5 -51.5t157.5 -71v-335q-80 41 -169.5 71.5t-190 51.5t-212.5 31.5t-238 10.5q-167 0 -290.5 -35t-205 -98.5t-122.5 -153t-41 -198.5q0 -73 16.5 -130t51 -104.5t87.5 -86t127 -72.5
t169 -65.5t214 -65.5q145 -42 270.5 -86t227.5 -97t181 -117.5t132.5 -147t81 -185t27.5 -231.5q-1 -122 -32 -232.5t-94.5 -206t-158.5 -173t-221 -132t-285 -84t-349 -29.5q-137 0 -264.5 10.5t-240 31.5t-208.5 51.5t-169 69.5v330zM1507 3749h484l-556 -587h-331z" />
    <glyph glyph-name="sacute" unicode="&#x15b;" horiz-adv-x="2082" 
d="M250 397q37 -16 85 -32.5t104 -32t117.5 -28.5t125 -22.5t127 -15t123.5 -5.5q138 0 243.5 20.5t176.5 59t107 95.5t36 130q0 80 -33.5 134.5t-97 94t-155 68t-209.5 55.5q-178 39 -314.5 87t-228 118.5t-138.5 170.5t-47 243q0 138 46.5 251.5t147 193.5t260 124
t383.5 44q66 0 129.5 -5t122 -14t113 -22.5t103 -30t91.5 -36t79 -40.5v-302q-39 19 -84.5 37.5t-95.5 34.5t-104.5 29t-112.5 22.5t-118.5 14.5t-122.5 5q-121 0 -209 -18t-145.5 -54.5t-85 -91.5t-27.5 -128q0 -80 31.5 -132t93.5 -88.5t152 -62t208 -50.5
q180 -38 316.5 -89t229.5 -125t140.5 -177t47.5 -246q0 -138 -59 -254t-175 -199.5t-288.5 -130t-399.5 -46.5q-102 0 -202 11.5t-190.5 31t-166.5 45t-130 53.5v305zM896 2408l403 587h484l-556 -587h-331z" />
    <glyph glyph-name="Scircumflex" unicode="&#x15c;" horiz-adv-x="2502" 
d="M239 444q77 -32 177.5 -62t214.5 -52.5t236.5 -35.5t245.5 -13q184 0 324 38.5t234.5 107.5t143.5 163t49 205q0 74 -17 133t-52.5 108t-89 89.5t-127.5 76t-168 67.5t-208 65q-141 40 -264.5 83t-225.5 94.5t-182 115.5t-135 145t-84 183t-28 231q0 124 28 233
t85.5 201.5t144 165.5t203 124t264.5 78t328 27q133 0 249.5 -10.5t216.5 -31t185.5 -51.5t157.5 -71v-335q-80 41 -169.5 71.5t-190 51.5t-212.5 31.5t-238 10.5q-167 0 -290.5 -35t-205 -98.5t-122.5 -153t-41 -198.5q0 -73 16.5 -130t51 -104.5t87.5 -86t127 -72.5
t169 -65.5t214 -65.5q145 -42 270.5 -86t227.5 -97t181 -117.5t132.5 -147t81 -185t27.5 -231.5q-1 -122 -32 -232.5t-94.5 -206t-158.5 -173t-221 -132t-285 -84t-349 -29.5q-137 0 -264.5 10.5t-240 31.5t-208.5 51.5t-169 69.5v330zM1591 3162l-309 328l-305 -328h-335
l433 587h417l433 -587h-334z" />
    <glyph glyph-name="scircumflex" unicode="&#x15d;" horiz-adv-x="2082" 
d="M250 397q37 -16 85 -32.5t104 -32t117.5 -28.5t125 -22.5t127 -15t123.5 -5.5q138 0 243.5 20.5t176.5 59t107 95.5t36 130q0 80 -33.5 134.5t-97 94t-155 68t-209.5 55.5q-178 39 -314.5 87t-228 118.5t-138.5 170.5t-47 243q0 138 46.5 251.5t147 193.5t260 124
t383.5 44q66 0 129.5 -5t122 -14t113 -22.5t103 -30t91.5 -36t79 -40.5v-302q-39 19 -84.5 37.5t-95.5 34.5t-104.5 29t-112.5 22.5t-118.5 14.5t-122.5 5q-121 0 -209 -18t-145.5 -54.5t-85 -91.5t-27.5 -128q0 -80 31.5 -132t93.5 -88.5t152 -62t208 -50.5
q180 -38 316.5 -89t229.5 -125t140.5 -177t47.5 -246q0 -138 -59 -254t-175 -199.5t-288.5 -130t-399.5 -46.5q-102 0 -202 11.5t-190.5 31t-166.5 45t-130 53.5v305zM1382 2408l-309 328l-305 -328h-335l433 587h417l433 -587h-334z" />
    <glyph glyph-name="Scedilla" unicode="&#x15e;" horiz-adv-x="2502" 
d="M847 -609q40 -9 83.5 -15t108.5 -6q34 0 69.5 6.5t64.5 22.5t47.5 42.5t18.5 66.5q0 43 -25 75.5t-65.5 56.5t-92 39.5t-103.5 24.5l149 247q-134 1 -258.5 12t-234.5 32t-204 50.5t-166 68.5v330q77 -32 177.5 -62t214.5 -52.5t236.5 -35.5t245.5 -13q184 0 324 38.5
t234.5 107.5t143.5 163t49 205q0 74 -17 133t-52.5 108t-89 89.5t-127.5 76t-168 67.5t-208 65q-141 40 -264.5 83t-225.5 94.5t-182 115.5t-135 145t-84 183t-28 231q0 124 28 233t85.5 201.5t144 165.5t203 124t264.5 78t328 27q133 0 249.5 -10.5t216.5 -31t185.5 -51.5
t157.5 -71v-335q-80 41 -169.5 71.5t-190 51.5t-212.5 31.5t-238 10.5q-167 0 -290.5 -35t-205 -98.5t-122.5 -153t-41 -198.5q0 -73 16.5 -130t51 -104.5t87.5 -86t127 -72.5t169 -65.5t214 -65.5q145 -42 270.5 -86t227.5 -97t181 -117.5t132.5 -147t81 -185t27.5 -231.5
q-1 -165 -59 -309t-173.5 -255.5t-290 -184.5t-407.5 -97l-79 -168q57 -14 106 -39t84.5 -60t56 -80t20.5 -99q0 -94 -38.5 -162t-101.5 -112.5t-144 -65.5t-167 -21q-62 0 -117 8.5t-104 20.5v207z" />
    <glyph glyph-name="scedilla" unicode="&#x15f;" horiz-adv-x="2082" 
d="M644 -609q40 -9 84 -15t109 -6q33 0 68.5 6.5t64.5 22.5t47.5 42.5t18.5 66.5q0 43 -25 75.5t-65.5 56.5t-91.5 39.5t-103 24.5l148 247q-98 3 -192.5 15t-179 31.5t-155.5 44t-122 50.5v305q37 -16 85 -32.5t104 -32t117.5 -28.5t125 -22.5t127 -15t123.5 -5.5
q138 0 243.5 20.5t176.5 59t107 95.5t36 130q0 80 -33.5 134.5t-97 94t-155 68t-209.5 55.5q-178 39 -314.5 87t-228 118.5t-138.5 170.5t-47 243q0 138 46.5 251.5t147 193.5t260 124t383.5 44q66 0 129.5 -5t122 -14t113 -22.5t103 -30t91.5 -36t79 -40.5v-302
q-39 19 -84.5 37.5t-95.5 34.5t-104.5 29t-112.5 22.5t-118.5 14.5t-122.5 5q-121 0 -209 -18t-145.5 -54.5t-85 -91.5t-27.5 -128q0 -80 31.5 -132t93.5 -88.5t152 -62t208 -50.5q180 -38 316.5 -89t229.5 -125t140.5 -177t47.5 -246q0 -123 -46.5 -228t-138 -186
t-228.5 -134t-317 -71l-81 -168q57 -14 105.5 -39t84 -60t56 -80t20.5 -99q0 -94 -38 -162t-101 -112.5t-144.5 -65.5t-167.5 -21q-62 0 -116.5 8.5t-104.5 20.5v207z" />
    <glyph glyph-name="Scaron" unicode="&#x160;" horiz-adv-x="2502" 
d="M239 444q77 -32 177.5 -62t214.5 -52.5t236.5 -35.5t245.5 -13q184 0 324 38.5t234.5 107.5t143.5 163t49 205q0 74 -17 133t-52.5 108t-89 89.5t-127.5 76t-168 67.5t-208 65q-141 40 -264.5 83t-225.5 94.5t-182 115.5t-135 145t-84 183t-28 231q0 124 28 233
t85.5 201.5t144 165.5t203 124t264.5 78t328 27q133 0 249.5 -10.5t216.5 -31t185.5 -51.5t157.5 -71v-335q-80 41 -169.5 71.5t-190 51.5t-212.5 31.5t-238 10.5q-167 0 -290.5 -35t-205 -98.5t-122.5 -153t-41 -198.5q0 -73 16.5 -130t51 -104.5t87.5 -86t127 -72.5
t169 -65.5t214 -65.5q145 -42 270.5 -86t227.5 -97t181 -117.5t132.5 -147t81 -185t27.5 -231.5q-1 -122 -32 -232.5t-94.5 -206t-158.5 -173t-221 -132t-285 -84t-349 -29.5q-137 0 -264.5 10.5t-240 31.5t-208.5 51.5t-169 69.5v330zM1075 3162l-433 587h335l305 -332
l309 332h334l-433 -587h-417z" />
    <glyph glyph-name="scaron" unicode="&#x161;" horiz-adv-x="2082" 
d="M250 397q37 -16 85 -32.5t104 -32t117.5 -28.5t125 -22.5t127 -15t123.5 -5.5q138 0 243.5 20.5t176.5 59t107 95.5t36 130q0 80 -33.5 134.5t-97 94t-155 68t-209.5 55.5q-178 39 -314.5 87t-228 118.5t-138.5 170.5t-47 243q0 138 46.5 251.5t147 193.5t260 124
t383.5 44q66 0 129.5 -5t122 -14t113 -22.5t103 -30t91.5 -36t79 -40.5v-302q-39 19 -84.5 37.5t-95.5 34.5t-104.5 29t-112.5 22.5t-118.5 14.5t-122.5 5q-121 0 -209 -18t-145.5 -54.5t-85 -91.5t-27.5 -128q0 -80 31.5 -132t93.5 -88.5t152 -62t208 -50.5
q180 -38 316.5 -89t229.5 -125t140.5 -177t47.5 -246q0 -138 -59 -254t-175 -199.5t-288.5 -130t-399.5 -46.5q-102 0 -202 11.5t-190.5 31t-166.5 45t-130 53.5v305zM866 2408l-433 587h335l305 -332l309 332h334l-433 -587h-417z" />
    <glyph glyph-name="Tcommaaccent" unicode="&#x162;" horiz-adv-x="2444" 
d="M1030 0v2648h-915v318h2214v-318h-915v-2648h-384zM825 -814l272 289l-70 353h226q54 0 95 -14.5t67 -41.5t39.5 -64.5t13.5 -84.5q0 -72 -27.5 -137t-73 -124.5t-107 -112t-129.5 -100.5l-157 -108z" />
    <glyph glyph-name="tcommaaccent" unicode="&#x163;" horiz-adv-x="1791" 
d="M1655 37q-44 -19 -100 -35t-119.5 -27t-132.5 -17.5t-139 -6.5q-161 0 -284 33.5t-206 109t-125.5 197t-42.5 296.5v1211h-377v303h380l9 625h356v-625h807v-303h-807v-1178q0 -107 23 -175t68.5 -107.5t114.5 -54.5t160 -15q61 0 118.5 6t110.5 16t99.5 22.5t86.5 26.5
v-302zM680 -814l272 289l-70 353h226q54 0 95 -14.5t67 -41.5t39.5 -64.5t13.5 -84.5q0 -72 -27.5 -137t-73 -124.5t-107 -112t-129.5 -100.5l-157 -108z" />
    <glyph glyph-name="Tcaron" unicode="&#x164;" horiz-adv-x="2444" 
d="M1030 0v2648h-915v318h2214v-318h-915v-2648h-384zM1011 3162l-433 587h335l305 -332l309 332h334l-433 -587h-417z" />
    <glyph glyph-name="tcaron" unicode="&#x165;" horiz-adv-x="1791" 
d="M1655 37q-44 -19 -100 -35t-119.5 -27t-132.5 -17.5t-139 -6.5q-161 0 -284 33.5t-206 109t-125.5 197t-42.5 296.5v1211h-377v303h380l9 625h356v-625h807v-303h-807v-1178q0 -107 23 -175t68.5 -107.5t114.5 -54.5t160 -15q61 0 118.5 6t110.5 16t99.5 22.5t86.5 26.5
v-302zM1153 2415l123 438l-103 414h244q51 0 95 -15t76.5 -43.5t51.5 -69.5t19 -93q0 -59 -12 -110.5t-33.5 -102.5t-51 -106t-64.5 -119l-105 -193h-240z" />
    <glyph glyph-name="Tbar" unicode="&#x166;" horiz-adv-x="2444" 
d="M1030 0v1228h-645v297h645v1123h-915v318h2214v-318h-915v-1123h645v-297h-645v-1228h-384z" />
    <glyph glyph-name="tbar" unicode="&#x167;" horiz-adv-x="1791" 
d="M1655 37q-44 -19 -100 -35t-119.5 -27t-132.5 -17.5t-139 -6.5q-161 0 -284 33.5t-206 109t-125.5 197t-42.5 296.5v335h-247v289h247v587h-377v303h380l9 625h356v-625h807v-303h-807v-587h491v-289h-491v-302q0 -107 23 -175t68.5 -107.5t114.5 -54.5t160 -15
q61 0 118.5 6t110.5 16t99.5 22.5t86.5 26.5v-302z" />
    <glyph glyph-name="Utilde" unicode="&#x168;" horiz-adv-x="2962" 
d="M2205 2966h386v-2032q0 -164 -30 -300t-91 -245t-153 -191t-215.5 -137t-279 -82.5t-343.5 -27.5t-344 27.5t-279 82.5t-214 137t-151 191t-90 245t-30 300v2032h386v-1966q0 -182 43 -318t131.5 -226.5t224.5 -135t323 -44.5q188 0 325 44.5t226 135t132 226.5t43 318
v1966zM2210 3693q0 -114 -30.5 -208t-87 -161t-135.5 -104t-175 -37q-60 0 -113 15.5t-100 39.5t-90 51t-82.5 51t-76.5 39.5t-73 15.5q-48 0 -80 -16.5t-53.5 -43.5t-33 -63.5t-15.5 -77.5h-256q0 115 30 208.5t85.5 160.5t134 103.5t176.5 36.5q59 0 112 -15.5t100.5 -39
t90.5 -50.5t83.5 -50.5t78 -39t73.5 -15.5q48 0 80 16t53.5 43t32.5 63.5t16 77.5h255z" />
    <glyph glyph-name="utilde" unicode="&#x169;" horiz-adv-x="2559" 
d="M1832 0l-26 170q-66 -49 -140.5 -89.5t-158 -69t-176.5 -44.5t-194 -16q-122 0 -227 18.5t-191.5 55.5t-153.5 94t-113 135.5t-69.5 176.5t-23.5 219v1451h369v-1392q0 -121 31 -207t92 -140.5t151 -79.5t208 -25q86 0 162.5 10t147.5 31t138 53t136 77v1673h368v-2101
h-330zM1989 2940q0 -115 -30.5 -209t-87 -160.5t-135.5 -103.5t-175 -37q-60 0 -113 15.5t-100 39.5t-90 51t-82.5 51t-76.5 39.5t-73 15.5q-48 0 -80 -16.5t-53.5 -44t-33 -64t-15.5 -77.5h-256q0 115 30 208.5t85.5 161t134 104t176.5 36.5q59 0 112 -15.5t100.5 -39
t90.5 -51t83.5 -51t78 -39t73.5 -15.5q48 0 80 16t53.5 43.5t32.5 64t16 77.5h255z" />
    <glyph glyph-name="Umacron" unicode="&#x16a;" horiz-adv-x="2962" 
d="M2205 2966h386v-2032q0 -164 -30 -300t-91 -245t-153 -191t-215.5 -137t-279 -82.5t-343.5 -27.5t-344 27.5t-279 82.5t-214 137t-151 191t-90 245t-30 300v2032h386v-1966q0 -182 43 -318t131.5 -226.5t224.5 -135t323 -44.5q188 0 325 44.5t226 135t132 226.5t43 318
v1966zM898 3264v311h1163v-311h-1163z" />
    <glyph glyph-name="umacron" unicode="&#x16b;" horiz-adv-x="2559" 
d="M1832 0l-26 170q-66 -49 -140.5 -89.5t-158 -69t-176.5 -44.5t-194 -16q-122 0 -227 18.5t-191.5 55.5t-153.5 94t-113 135.5t-69.5 176.5t-23.5 219v1451h369v-1392q0 -121 31 -207t92 -140.5t151 -79.5t208 -25q86 0 162.5 10t147.5 31t138 53t136 77v1673h368v-2101
h-330zM677 2511v310h1163v-310h-1163z" />
    <glyph glyph-name="Ubreve" unicode="&#x16c;" horiz-adv-x="2962" 
d="M2205 2966h386v-2032q0 -164 -30 -300t-91 -245t-153 -191t-215.5 -137t-279 -82.5t-343.5 -27.5t-344 27.5t-279 82.5t-214 137t-151 191t-90 245t-30 300v2032h386v-1966q0 -182 43 -318t131.5 -226.5t224.5 -135t323 -44.5q188 0 325 44.5t226 135t132 226.5t43 318
v1966zM1479 3144q-141 0 -255 43.5t-195.5 123t-126.5 191t-48 247.5h276q8 -76 35.5 -135.5t72.5 -100t106 -61.5t135 -21q73 0 134 21t106 61.5t73 100t36 135.5h277q-3 -136 -49 -247.5t-127.5 -191t-195.5 -123t-254 -43.5z" />
    <glyph glyph-name="ubreve" unicode="&#x16d;" horiz-adv-x="2559" 
d="M1832 0l-26 170q-66 -49 -140.5 -89.5t-158 -69t-176.5 -44.5t-194 -16q-122 0 -227 18.5t-191.5 55.5t-153.5 94t-113 135.5t-69.5 176.5t-23.5 219v1451h369v-1392q0 -121 31 -207t92 -140.5t151 -79.5t208 -25q86 0 162.5 10t147.5 31t138 53t136 77v1673h368v-2101
h-330zM1884 2995q-3 -136 -49 -247.5t-127.5 -191t-195.5 -123t-254 -43.5q-141 0 -255 43.5t-195.5 123t-126.5 191t-48 247.5h276q8 -76 35.5 -135t72.5 -99.5t106 -61.5t135 -21q73 0 134 21t106 61.5t73 99.5t36 135h277z" />
    <glyph glyph-name="Uring" unicode="&#x16e;" horiz-adv-x="2962" 
d="M2205 2966h386v-2032q0 -164 -30 -300t-91 -245t-153 -191t-215.5 -137t-279 -82.5t-343.5 -27.5t-344 27.5t-279 82.5t-214 137t-151 191t-90 245t-30 300v2032h386v-1966q0 -182 43 -318t131.5 -226.5t224.5 -135t323 -44.5q188 0 325 44.5t226 135t132 226.5t43 318
v1966zM1934 3580q0 -92 -35 -171.5t-96 -138t-144 -91.5t-180 -33t-180 33t-144 91.5t-96 138t-35 171.5t35 171.5t96 138t144 91.5t180 33t180 -33t144 -91.5t96 -138t35 -171.5zM1704 3580q0 45 -16.5 85.5t-46.5 71.5t-71.5 49.5t-90.5 18.5t-90.5 -18.5t-71.5 -49.5
t-46.5 -71.5t-16.5 -85.5q0 -46 16.5 -87t46.5 -71.5t71.5 -48.5t90.5 -18t90.5 18t71.5 48.5t46.5 71.5t16.5 87z" />
    <glyph glyph-name="uring" unicode="&#x16f;" horiz-adv-x="2559" 
d="M1832 0l-26 170q-66 -49 -140.5 -89.5t-158 -69t-176.5 -44.5t-194 -16q-122 0 -227 18.5t-191.5 55.5t-153.5 94t-113 135.5t-69.5 176.5t-23.5 219v1451h369v-1392q0 -121 31 -207t92 -140.5t151 -79.5t208 -25q86 0 162.5 10t147.5 31t138 53t136 77v1673h368v-2101
h-330zM1713 2826q0 -92 -35 -171.5t-96 -138t-144 -91.5t-180 -33q-96 0 -179 33t-144.5 91.5t-96.5 138t-35 171.5t35 171.5t96 138t144.5 91.5t179.5 33q97 0 180 -33t144 -91.5t96 -138t35 -171.5zM1258 2601q49 0 90.5 18t71.5 48.5t46.5 71.5t16.5 87q0 45 -16.5 86
t-46.5 72t-71.5 49.5t-90.5 18.5t-90 -18.5t-71 -49.5t-47 -72t-17 -86q0 -46 16.5 -87t46.5 -71.5t71.5 -48.5t90.5 -18z" />
    <glyph glyph-name="Uhungarumlaut" unicode="&#x170;" horiz-adv-x="2962" 
d="M2205 2966h386v-2032q0 -164 -30 -300t-91 -245t-153 -191t-215.5 -137t-279 -82.5t-343.5 -27.5t-344 27.5t-279 82.5t-214 137t-151 191t-90 245t-30 300v2032h386v-1966q0 -182 43 -318t131.5 -226.5t224.5 -135t323 -44.5q188 0 325 44.5t226 135t132 226.5t43 318
v1966zM939 3162l256 587h469l-412 -587h-313zM1660 3162l256 587h468l-411 -587h-313z" />
    <glyph glyph-name="uhungarumlaut" unicode="&#x171;" horiz-adv-x="2559" 
d="M1832 0l-26 170q-66 -49 -140.5 -89.5t-158 -69t-176.5 -44.5t-194 -16q-122 0 -227 18.5t-191.5 55.5t-153.5 94t-113 135.5t-69.5 176.5t-23.5 219v1451h369v-1392q0 -121 31 -207t92 -140.5t151 -79.5t208 -25q86 0 162.5 10t147.5 31t138 53t136 77v1673h368v-2101
h-330zM718 2408l256 587h469l-412 -587h-313zM1439 2408l256 587h468l-411 -587h-313z" />
    <glyph glyph-name="Uogonek" unicode="&#x172;" horiz-adv-x="2962" 
d="M1849 -820q-49 -12 -105.5 -18.5t-115.5 -6.5q-126 0 -215.5 32t-146 83.5t-83 118t-26.5 135.5q0 73 22.5 136t62 116t91 96.5t110.5 78.5q-182 2 -332.5 31t-270 85t-207.5 138t-146 190.5t-87 243t-29 295.5v2032h386v-1966q0 -182 42.5 -318t131 -226.5t225 -135
t323.5 -44.5q188 0 325 44.5t226 135t132 226.5t43 318v1966h385v-2032q0 -130 -19 -242t-57 -207.5t-95 -173.5t-134.5 -139.5t-175 -106t-215.5 -72.5q-98 -24 -178.5 -68.5t-137 -100.5t-87.5 -118.5t-31 -120.5q0 -101 64 -150.5t178 -49.5q23 0 43 1.5t38 3.5t34.5 5
t31.5 6v-221z" />
    <glyph glyph-name="uogonek" unicode="&#x173;" horiz-adv-x="2559" 
d="M2209 -820q-49 -12 -105.5 -18.5t-115.5 -6.5q-126 0 -215.5 32t-146 83.5t-83 118t-26.5 135.5q0 75 25.5 141.5t68 125.5t100 111t121.5 98l-26 170q-66 -49 -140.5 -89.5t-158 -69t-176.5 -44.5t-194 -16q-122 0 -227 18.5t-191.5 55.5t-153.5 94t-113 135.5
t-69.5 176.5t-23.5 219v1451h369v-1392q0 -121 31 -207t92 -140.5t151 -79.5t208 -25q86 0 162.5 10t147.5 31t138 53t136 77v1673h368v-2101h-85q-56 -55 -103 -108.5t-81 -105.5t-53.5 -102t-19.5 -99q0 -101 64 -150.5t178 -49.5q23 0 43 1.5t38 3.5t34.5 5t31.5 6v-221z
" />
    <glyph glyph-name="Wcircumflex" unicode="&#x174;" horiz-adv-x="4458" 
d="M3000 0l-651 1993q-15 44 -31.5 99.5t-32 119.5t-30 132t-26.5 136q-13 -68 -28 -136t-30.5 -132t-31 -119.5t-30.5 -99.5l-649 -1993h-404l-983 2966h412l674 -2155q14 -44 28.5 -88t27.5 -88.5t25.5 -89.5t23.5 -92q9 47 20 92t23 89.5t25.5 88.5t28.5 88l678 2155h381
l679 -2158q15 -45 28.5 -89t26 -88.5t23 -90t20.5 -91.5q10 46 22 91.5t25.5 90t28.5 88.5t30 89l675 2158h407l-982 -2966h-403zM2508 3162l-309 328l-305 -328h-335l433 587h417l433 -587h-334z" />
    <glyph glyph-name="wcircumflex" unicode="&#x175;" horiz-adv-x="3383" 
d="M2206 0l-434 1346q-18 56 -40.5 127.5t-41.5 150.5q-21 -79 -42 -151.5t-40 -127.5l-431 -1345h-363l-752 2101h389l461 -1440q22 -66 43.5 -141.5t40.5 -157.5q19 82 41.5 157.5t44.5 141.5l442 1440h336l444 -1440q20 -66 42 -141.5t41 -156.5q19 81 41.5 156.5
t43.5 141.5l462 1440h386l-751 -2101h-363zM1993 2408l-309 328l-305 -328h-335l433 587h417l433 -587h-334z" />
    <glyph glyph-name="Ycircumflex" unicode="&#x176;" horiz-adv-x="2568" 
d="M1091 0v1156l-1049 1810h422l679 -1186q18 -35 36.5 -75.5t36.5 -83t34.5 -87t30.5 -88.5q14 44 31 88.5t36 87t39 83t38 75.5l682 1186h419l-1050 -1813v-1153h-385zM1589 3162l-309 328l-305 -328h-335l433 587h417l433 -587h-334z" />
    <glyph glyph-name="ycircumflex" unicode="&#x177;" horiz-adv-x="2109" 
d="M6 -630q28 -4 64.5 -7.5t83.5 -3.5q82 0 154 11.5t135.5 37.5t120 69t107 106.5t95 149t85.5 197.5l19 54l-824 2117h397l522 -1461q24 -73 49 -152t47 -167q19 88 46 167t54 149l520 1464h386l-862 -2213q-57 -148 -117.5 -268.5t-129 -214t-148 -161t-173.5 -111.5
t-206 -65.5t-246 -21.5q-22 0 -46.5 1.5t-48 4.5t-45 7t-39.5 9v302zM1359 2408l-309 328l-305 -328h-335l433 587h417l433 -587h-334z" />
    <glyph glyph-name="Ydieresis" unicode="&#x178;" horiz-adv-x="2568" 
d="M1091 0v1156l-1049 1810h422l679 -1186q18 -35 36.5 -75.5t36.5 -83t34.5 -87t30.5 -88.5q14 44 31 88.5t36 87t39 83t38 75.5l682 1186h419l-1050 -1813v-1153h-385zM661 3260v411h401v-411h-401zM1505 3260v411h401v-411h-401z" />
    <glyph glyph-name="Zacute" unicode="&#x179;" horiz-adv-x="2563" 
d="M173 0v320l1693 2328h-1644v318h2107v-321l-1692 -2328h1753v-317h-2217zM1506 3749h484l-556 -587h-331z" />
    <glyph glyph-name="zacute" unicode="&#x17a;" horiz-adv-x="2139" 
d="M211 0v258l1229 1540h-1191v303h1646v-258l-1237 -1540h1283v-303h-1730zM890 2408l403 587h484l-556 -587h-331z" />
    <glyph glyph-name="Zdotaccent" unicode="&#x17b;" horiz-adv-x="2563" 
d="M173 0v320l1693 2328h-1644v318h2107v-321l-1692 -2328h1753v-317h-2217zM1055 3256v447h454v-447h-454z" />
    <glyph glyph-name="zdotaccent" unicode="&#x17c;" horiz-adv-x="2139" 
d="M211 0v258l1229 1540h-1191v303h1646v-258l-1237 -1540h1283v-303h-1730zM842 2503v446h454v-446h-454z" />
    <glyph glyph-name="Zcaron" unicode="&#x17d;" horiz-adv-x="2563" 
d="M173 0v320l1693 2328h-1644v318h2107v-321l-1692 -2328h1753v-317h-2217zM1073 3162l-433 587h335l305 -332l309 332h334l-433 -587h-417z" />
    <glyph glyph-name="zcaron" unicode="&#x17e;" horiz-adv-x="2139" 
d="M211 0v258l1229 1540h-1191v303h1646v-258l-1237 -1540h1283v-303h-1730zM860 2408l-433 587h335l305 -332l309 332h334l-433 -587h-417z" />
    <glyph glyph-name="Schwa" unicode="&#x18f;" horiz-adv-x="3031" 
d="M1438 3015q222 0 406.5 -49t331 -142.5t256 -230t182.5 -311t109 -385.5t36 -455q0 -217 -36 -412.5t-108 -361t-177.5 -298.5t-245.5 -226t-313 -143t-378 -50q-196 0 -364.5 46t-307.5 132t-247 209t-181.5 276.5t-112 334.5t-38.5 384q0 28 0.5 54.5t2 50.5t3 43
t3.5 31h2101q-5 183 -35.5 340.5t-86 286.5t-135.5 229t-185.5 168.5t-237 103.5t-288.5 35q-123 0 -228 -9t-197.5 -25.5t-172.5 -38t-150.5 -45.5t-133 -49.5t-120.5 -48.5v333q87 45 195 85.5t239 71t284 48.5t330 18zM1501 273q128 0 239.5 30.5t205 87.5t168 139
t127 184.5t83 223.5t36.5 257h-1708q5 -136 35 -258t81.5 -224.5t124.5 -184t165.5 -138.5t203.5 -87t239 -30z" />
    <glyph glyph-name="florin" unicode="&#x192;" 
d="M1497 1400l-141 -889q-40 -248 -122.5 -422t-204.5 -284t-281.5 -160.5t-353.5 -50.5q-27 0 -55.5 2t-54.5 5.5t-48 7.5t-37 9l49 295q14 -3 33 -5.5t39.5 -4t43 -2t45.5 -0.5q117 0 212 36t168.5 115.5t125 207t80.5 310.5l132 830h-636l49 303h636l89 554
q32 207 109 350t192 232t262.5 129t321.5 40q40 0 78.5 -3t75 -7.5t70 -11t64 -14t57 -16t49.5 -17.5l-49 -298q-36 11 -74.5 21t-80 17t-85 11t-90.5 4q-117 0 -208 -24.5t-157.5 -82.5t-109.5 -155t-65 -241l-78 -488h805l-49 -303h-806z" />
    <glyph glyph-name="uni01C1" unicode="&#x1c1;" horiz-adv-x="2174" 
d="M397 -921v4001h368v-4001h-368zM1409 -921v4001h368v-4001h-368z" />
    <glyph glyph-name="Scommaaccent" unicode="&#x218;" horiz-adv-x="2502" 
d="M239 444q77 -32 177.5 -62t214.5 -52.5t236.5 -35.5t245.5 -13q184 0 324 38.5t234.5 107.5t143.5 163t49 205q0 74 -17 133t-52.5 108t-89 89.5t-127.5 76t-168 67.5t-208 65q-141 40 -264.5 83t-225.5 94.5t-182 115.5t-135 145t-84 183t-28 231q0 124 28 233
t85.5 201.5t144 165.5t203 124t264.5 78t328 27q133 0 249.5 -10.5t216.5 -31t185.5 -51.5t157.5 -71v-335q-80 41 -169.5 71.5t-190 51.5t-212.5 31.5t-238 10.5q-167 0 -290.5 -35t-205 -98.5t-122.5 -153t-41 -198.5q0 -73 16.5 -130t51 -104.5t87.5 -86t127 -72.5
t169 -65.5t214 -65.5q145 -42 270.5 -86t227.5 -97t181 -117.5t132.5 -147t81 -185t27.5 -231.5q-1 -122 -32 -232.5t-94.5 -206t-158.5 -173t-221 -132t-285 -84t-349 -29.5q-137 0 -264.5 10.5t-240 31.5t-208.5 51.5t-169 69.5v330zM857 -814l272 289l-70 353h226
q54 0 95 -14.5t67 -41.5t39.5 -64.5t13.5 -84.5q0 -72 -27.5 -137t-73 -124.5t-107 -112t-129.5 -100.5l-157 -108z" />
    <glyph glyph-name="scommaaccent" unicode="&#x219;" horiz-adv-x="2082" 
d="M250 397q37 -16 85 -32.5t104 -32t117.5 -28.5t125 -22.5t127 -15t123.5 -5.5q138 0 243.5 20.5t176.5 59t107 95.5t36 130q0 80 -33.5 134.5t-97 94t-155 68t-209.5 55.5q-178 39 -314.5 87t-228 118.5t-138.5 170.5t-47 243q0 138 46.5 251.5t147 193.5t260 124
t383.5 44q66 0 129.5 -5t122 -14t113 -22.5t103 -30t91.5 -36t79 -40.5v-302q-39 19 -84.5 37.5t-95.5 34.5t-104.5 29t-112.5 22.5t-118.5 14.5t-122.5 5q-121 0 -209 -18t-145.5 -54.5t-85 -91.5t-27.5 -128q0 -80 31.5 -132t93.5 -88.5t152 -62t208 -50.5
q180 -38 316.5 -89t229.5 -125t140.5 -177t47.5 -246q0 -138 -59 -254t-175 -199.5t-288.5 -130t-399.5 -46.5q-102 0 -202 11.5t-190.5 31t-166.5 45t-130 53.5v305zM653 -814l272 289l-70 353h226q54 0 95 -14.5t67 -41.5t39.5 -64.5t13.5 -84.5q0 -72 -27.5 -137
t-73 -124.5t-107 -112t-129.5 -100.5l-157 -108z" />
    <glyph glyph-name="uni021A" unicode="&#x21a;" horiz-adv-x="2444" 
d="M1030 0v2648h-915v318h2214v-318h-915v-2648h-384zM825 -814l272 289l-70 353h226q54 0 95 -14.5t67 -41.5t39.5 -64.5t13.5 -84.5q0 -72 -27.5 -137t-73 -124.5t-107 -112t-129.5 -100.5l-157 -108z" />
    <glyph glyph-name="uni021B" unicode="&#x21b;" horiz-adv-x="1791" 
d="M1655 37q-44 -19 -100 -35t-119.5 -27t-132.5 -17.5t-139 -6.5q-161 0 -284 33.5t-206 109t-125.5 197t-42.5 296.5v1211h-377v303h380l9 625h356v-625h807v-303h-807v-1178q0 -107 23 -175t68.5 -107.5t114.5 -54.5t160 -15q61 0 118.5 6t110.5 16t99.5 22.5t86.5 26.5
v-302zM680 -814l272 289l-70 353h226q54 0 95 -14.5t67 -41.5t39.5 -64.5t13.5 -84.5q0 -72 -27.5 -137t-73 -124.5t-107 -112t-129.5 -100.5l-157 -108z" />
    <glyph glyph-name="dotlessj" unicode="&#x237;" horiz-adv-x="1163" 
d="M-237 -629q40 -8 74.5 -11.5t81.5 -3.5q122 0 212 40.5t149 125.5t88 215.5t29 311.5v2052h368v-2091q0 -249 -56 -430t-160.5 -298.5t-254 -174.5t-336.5 -57q-28 0 -55.5 1.5t-53 4.5t-47.5 7t-39 9v299z" />
    <glyph glyph-name="schwa" unicode="&#x259;" horiz-adv-x="2349" 
d="M1110 2150q249 0 435 -77t310.5 -221.5t186.5 -351.5t62 -467q0 -154 -25.5 -294.5t-77.5 -260.5t-129.5 -217.5t-181.5 -166.5t-235 -106t-287 -37q-154 0 -284 35.5t-234 100t-182 156t-130 204.5t-78.5 243.5t-26.5 274.5q0 20 1 41.5t2 41.5t2.5 37.5t3.5 28.5h1490
q-7 172 -49.5 305t-123.5 224.5t-203 139t-288 47.5q-123 0 -226.5 -13t-192 -33t-163.5 -45t-139 -51v304q66 33 145.5 62t174 50.5t205 33.5t238.5 12zM1168 246q124 0 225 41.5t173.5 118t114.5 184t50 240.5h-1123q7 -133 48.5 -240.5t114 -184t172.5 -118t225 -41.5z
" />
    <glyph glyph-name="circumflex" unicode="&#x2c6;" horiz-adv-x="1843" 
d="M1227 2408l-309 328l-305 -328h-335l433 587h417l433 -587h-334z" />
    <glyph glyph-name="caron" unicode="&#x2c7;" horiz-adv-x="1843" 
d="M711 2408l-433 587h335l305 -332l309 332h334l-433 -587h-417z" />
    <glyph glyph-name="breve" unicode="&#x2d8;" horiz-adv-x="1843" 
d="M1547 2995q-3 -136 -49 -247.5t-127.5 -191t-195.5 -123t-254 -43.5q-141 0 -255 43.5t-195.5 123t-126.5 191t-48 247.5h276q8 -76 35.5 -135t72.5 -99.5t106 -61.5t135 -21q73 0 134 21t106 61.5t73 99.5t36 135h277z" />
    <glyph glyph-name="dotaccent" unicode="&#x2d9;" horiz-adv-x="1843" 
d="M692 2503v446h454v-446h-454z" />
    <glyph glyph-name="ring" unicode="&#x2da;" horiz-adv-x="1843" 
d="M1376 2826q0 -92 -35 -171.5t-96 -138t-144 -91.5t-180 -33q-96 0 -179 33t-144.5 91.5t-96.5 138t-35 171.5t35 171.5t96 138t144.5 91.5t179.5 33q97 0 180 -33t144 -91.5t96 -138t35 -171.5zM921 2601q49 0 90.5 18t71.5 48.5t46.5 71.5t16.5 87q0 45 -16.5 86
t-46.5 72t-71.5 49.5t-90.5 18.5t-90 -18.5t-71 -49.5t-47 -72t-17 -86q0 -46 16.5 -87t46.5 -71.5t71.5 -48.5t90.5 -18z" />
    <glyph glyph-name="ogonek" unicode="&#x2db;" horiz-adv-x="1843" 
d="M1249 -820q-50 -12 -106.5 -18.5t-115.5 -6.5q-126 0 -215 32t-146 83.5t-83.5 118t-26.5 135.5q0 83 31.5 155.5t84 136.5t119 120t137.5 105h233q-65 -62 -120 -120.5t-95 -115.5t-63 -112t-23 -108q0 -101 64 -150.5t177 -49.5q23 0 43.5 1.5t38.5 3.5t34.5 5t31.5 6
v-221z" />
    <glyph glyph-name="tilde" unicode="&#x2dc;" horiz-adv-x="1843" 
d="M1621 2940q0 -115 -30.5 -209t-87 -160.5t-135.5 -103.5t-175 -37q-60 0 -113 15.5t-100 39.5t-90 51t-82.5 51t-76.5 39.5t-73 15.5q-48 0 -80 -16.5t-53.5 -44t-33 -64t-15.5 -77.5h-256q0 115 30 208.5t85.5 161t134 104t176.5 36.5q59 0 112 -15.5t100.5 -39
t90.5 -51t83.5 -51t78 -39t73.5 -15.5q48 0 80 16t53.5 43.5t32.5 64t16 77.5h255z" />
    <glyph glyph-name="hungarumlaut" unicode="&#x2dd;" horiz-adv-x="1843" 
d="M197 2408l256 587h469l-412 -587h-313zM918 2408l256 587h468l-411 -587h-313z" />
    <glyph glyph-name="commatop" unicode="&#x312;" horiz-adv-x="1843" 
d="M875 2395q-55 0 -95 14.5t-67 41.5t-40 64.5t-13 83.5q0 72 27 138.5t73 126t107 112.5t129 100l158 109l149 -146l-272 -289l70 -355h-226z" />
    <glyph glyph-name="caronslovak" unicode="&#x315;" horiz-adv-x="1843" 
d="M663 2228l123 438l-103 414h244q51 0 95 -15t76.5 -43.5t51.5 -69.5t19 -93q0 -59 -12 -110.5t-33.5 -102.5t-51 -106t-64.5 -119l-105 -193h-240z" />
    <glyph glyph-name="commaaccent" unicode="&#x326;" horiz-adv-x="1843" 
d="M586 -814l272 289l-70 353h226q54 0 95 -14.5t67 -41.5t39.5 -64.5t13.5 -84.5q0 -72 -27.5 -137t-73 -124.5t-107 -112t-129.5 -100.5l-157 -108z" />
    <glyph glyph-name="tonos" unicode="&#x384;" horiz-adv-x="1843" 
d="M676 3105h490l-171 -721h-148z" />
    <glyph glyph-name="dieresistonos" unicode="&#x385;" horiz-adv-x="1843" 
d="M177 2917h360v-410h-360v410zM704 3071h434l-143 -667h-148zM1306 2917h360v-410h-360v410z" />
    <glyph glyph-name="Alphatonos" unicode="&#x386;" horiz-adv-x="2822" 
d="M2340 0l-275 753h-1325l-274 -753h-395l1129 2966h418l1136 -2966h-414zM1521 2260q-34 87 -65 183t-51 198q-23 -102 -56 -197.5t-63 -183.5l-432 -1180h1094zM199 3067h490l-171 -721h-148z" />
    <glyph glyph-name="Epsilontonos" unicode="&#x388;" horiz-adv-x="2878" 
d="M786 0v2966h1885v-318h-1500v-973h1289v-316h-1289v-1042h1504v-317h-1889zM-55 3067h490l-171 -721h-148z" />
    <glyph glyph-name="Etatonos" unicode="&#x389;" horiz-adv-x="3489" 
d="M2676 0v1358h-1492v-1358h-385v2966h385v-1291h1492v1291h385v-2966h-385zM-55 3067h490l-171 -721h-148z" />
    <glyph glyph-name="Iotatonos" unicode="&#x38a;" horiz-adv-x="1611" 
d="M799 0v2966h385v-2966h-385zM-55 3067h490l-171 -721h-148z" />
    <glyph glyph-name="Omicrontonos" unicode="&#x38c;" horiz-adv-x="3347" 
d="M1807 -49q-228 0 -410 51.5t-322 148t-239.5 233t-163.5 306.5t-94 369.5t-30 420.5q0 220 30.5 419.5t95 370t165 308.5t241.5 235t323 149.5t410 52.5t410.5 -51.5t323 -148t240.5 -233t164 -307t94 -369.5t30 -420q0 -220 -30.5 -420t-95.5 -370t-166 -308t-242 -235
t-324 -149.5t-410 -52.5zM1813 273q157 0 281.5 41.5t220 117.5t163.5 184.5t112.5 243t65 292t20.5 331.5t-20.5 331t-65 292t-112.5 243t-163.5 184.5t-220.5 117.5t-281 41q-157 0 -282 -41t-221 -117.5t-164.5 -184.5t-113 -243t-64.5 -292t-20 -331t20 -331.5
t64.5 -292t113 -243t164.5 -184.5t221 -117.5t282 -41.5zM-55 3067h490l-171 -721h-148z" />
    <glyph glyph-name="Upsilontonos" unicode="&#x38e;" horiz-adv-x="3122" 
d="M1645 0v1156l-1049 1810h422l679 -1186q18 -35 36.5 -75.5t36.5 -83t34.5 -87t30.5 -88.5q14 44 31 88.5t36 87t39 83t38 75.5l682 1186h419l-1050 -1813v-1153h-385zM-88 3067h490l-171 -721h-148z" />
    <glyph glyph-name="Omegatonos" unicode="&#x38f;" horiz-adv-x="3439" 
d="M2003 0v257q150 78 274 199t212 282t137 360t49 432q0 169 -22 321t-68 281t-116 233t-166 176.5t-219.5 111.5t-274.5 39q-152 0 -275 -39t-219 -111.5t-166 -176.5t-115.5 -233t-68 -281t-22.5 -321q0 -233 49 -432t137.5 -360t212 -282t273.5 -199v-257h-1140v317h588
q-119 100 -215 229t-164 282.5t-104 329.5t-36 372q0 215 32 409t98.5 359t169 297.5t243 226t320.5 143.5t402 50q226 0 408 -49t323 -140t242 -222.5t166 -296.5t95.5 -361t30.5 -416q0 -196 -36.5 -372t-104 -329.5t-163.5 -282.5t-215 -229h588v-317h-1140zM-55 3067
h490l-171 -721h-148z" />
    <glyph glyph-name="iotadieresistonos" unicode="&#x390;" horiz-adv-x="1341" 
d="M872 -29q-116 0 -205 28t-149.5 88t-92 153.5t-31.5 224.5v1636h368v-1594q0 -54 9.5 -94.5t32.5 -68t61.5 -41t97.5 -13.5q73 0 144 7t134 20v-294q-35 -11 -76.5 -20.5t-88 -17t-97.5 -11t-107 -3.5zM-167 2917h360v-410h-360v410zM360 3071h434l-143 -667h-148z
M962 2917h360v-410h-360v410z" />
    <glyph glyph-name="Alpha" unicode="&#x391;" horiz-adv-x="2819" 
d="M2337 0l-275 753h-1325l-274 -753h-395l1129 2966h418l1136 -2966h-414zM1518 2260q-34 87 -65 183t-51 198q-23 -102 -56 -197.5t-63 -183.5l-432 -1180h1094z" />
    <glyph glyph-name="Beta" unicode="&#x392;" horiz-adv-x="2731" 
d="M428 0v2966h879q258 0 450 -52.5t320 -153t191 -248t63 -337.5q0 -117 -26.5 -214.5t-76 -175t-121.5 -137.5t-164 -103q125 -45 223.5 -115t167.5 -163t105 -207t36 -246q0 -124 -27 -232t-83 -198.5t-142.5 -161.5t-205 -120.5t-269.5 -75.5t-337 -26h-983zM1372 316
q184 0 317.5 34.5t219.5 99.5t127.5 159.5t41.5 214.5q0 121 -38.5 219t-120 167t-208 106t-302.5 37h-596v-1037h559zM1294 1654q172 0 293.5 33t198.5 98t112.5 160.5t35.5 219.5q0 113 -41.5 203t-126 152.5t-214 95.5t-304.5 33h-435v-995h481z" />
    <glyph glyph-name="Gamma" unicode="&#x393;" horiz-adv-x="2245" 
d="M428 2966h1695v-318h-1310v-2648h-385v2966z" />
    <glyph glyph-name="uni0394" unicode="&#x394;" horiz-adv-x="2862" 
d="M143 0v320l1078 2646h412l1085 -2646v-320h-2575zM1546 2217q-18 44 -35.5 88t-34 88t-30.5 87.5t-27 85.5l-28.5 -85.5t-30.5 -87.5t-33 -88l-34 -88l-756 -1900h1768z" />
    <glyph glyph-name="Epsilon" unicode="&#x395;" horiz-adv-x="2521" 
d="M428 0v2966h1885v-318h-1500v-973h1289v-316h-1289v-1042h1504v-317h-1889z" />
    <glyph glyph-name="Zeta" unicode="&#x396;" horiz-adv-x="2563" 
d="M173 0v320l1693 2328h-1644v318h2107v-321l-1692 -2328h1753v-317h-2217z" />
    <glyph glyph-name="Eta" unicode="&#x397;" horiz-adv-x="3118" 
d="M2305 0v1358h-1492v-1358h-385v2966h385v-1291h1492v1291h385v-2966h-385z" />
    <glyph glyph-name="Theta" unicode="&#x398;" horiz-adv-x="3071" 
d="M1531 -49q-228 0 -410 51.5t-322 148t-239.5 233t-163.5 306.5t-94 369.5t-30 420.5q0 220 30.5 419.5t95 370t165 308.5t241.5 235t323 149.5t410 52.5t410.5 -51.5t323 -148t240.5 -233t164 -307t94 -369.5t30 -420q0 -220 -30.5 -420t-95.5 -370t-166 -308t-242 -235
t-324 -149.5t-410 -52.5zM1537 273q157 0 281.5 41.5t220 117.5t163.5 184.5t112.5 243t65 292t20.5 331.5t-20.5 331t-65 292t-112.5 243t-163.5 184.5t-220.5 117.5t-281 41q-157 0 -282 -41t-221 -117.5t-164.5 -184.5t-113 -243t-64.5 -292t-20 -331t20 -331.5
t64.5 -292t113 -243t164.5 -184.5t221 -117.5t282 -41.5zM964 1638h1161v-316h-1161v316z" />
    <glyph glyph-name="Iota" unicode="&#x399;" horiz-adv-x="1240" 
d="M428 0v2966h385v-2966h-385z" />
    <glyph glyph-name="Kappa" unicode="&#x39a;" horiz-adv-x="2756" 
d="M2191 0l-1378 1389v-1389h-385v2966h385v-1354l1351 1354h487l-1228 -1224q-84 -84 -148.5 -137t-123.5 -89q27 -17 56.5 -38t61.5 -47.5t68 -59.5t76 -74l1294 -1297h-516z" />
    <glyph glyph-name="Lambda" unicode="&#x39b;" horiz-adv-x="2790" 
d="M1185 2966h413l1124 -2966h-420l-838 2313q-21 64 -42 131.5t-35 143.5q-16 -76 -37.5 -143.5t-43.5 -131.5l-837 -2313h-401z" />
    <glyph glyph-name="Mu" unicode="&#x39c;" horiz-adv-x="3743" 
d="M2940 0v2057q0 100 3.5 212t13.5 217q-43 -102 -96.5 -212t-100.5 -188l-763 -1253h-247l-760 1253q-25 41 -52 89.5t-53.5 100t-52.5 105t-48 105.5q10 -110 14.5 -219.5t4.5 -209.5v-2057h-375v2966h432l855 -1425q47 -78 86 -159t73 -167q32 86 72 167.5t90 159.5
l855 1424h425v-2966h-376z" />
    <glyph glyph-name="Nu" unicode="&#x39d;" horiz-adv-x="3203" 
d="M2367 0l-1319 2002q-66 99 -135.5 218.5t-128.5 246.5q5 -62 9 -125.5t6.5 -126t3.5 -120.5t1 -108v-1987h-376v2966h411l1319 -2002q32 -50 65 -104.5t67 -113t66.5 -119.5t62.5 -123q-5 60 -9 123t-6.5 124.5t-3.5 119t-1 107.5v1988h377v-2966h-409z" />
    <glyph glyph-name="Xi" unicode="&#x39e;" horiz-adv-x="2410" 
d="M203 326h2005v-326h-2005v326zM415 1680h1576v-326h-1576v326zM203 2966h2005v-327h-2005v327z" />
    <glyph glyph-name="Omicron" unicode="&#x39f;" horiz-adv-x="3071" 
d="M1531 -49q-228 0 -410 51.5t-322 148t-239.5 233t-163.5 306.5t-94 369.5t-30 420.5q0 220 30.5 419.5t95 370t165 308.5t241.5 235t323 149.5t410 52.5t410.5 -51.5t323 -148t240.5 -233t164 -307t94 -369.5t30 -420q0 -220 -30.5 -420t-95.5 -370t-166 -308t-242 -235
t-324 -149.5t-410 -52.5zM1537 273q157 0 281.5 41.5t220 117.5t163.5 184.5t112.5 243t65 292t20.5 331.5t-20.5 331t-65 292t-112.5 243t-163.5 184.5t-220.5 117.5t-281 41q-157 0 -282 -41t-221 -117.5t-164.5 -184.5t-113 -243t-64.5 -292t-20 -331t20 -331.5
t64.5 -292t113 -243t164.5 -184.5t221 -117.5t282 -41.5z" />
    <glyph glyph-name="Pi" unicode="&#x3a0;" horiz-adv-x="3103" 
d="M2290 2648h-1477v-2648h-385v2966h2247v-2966h-385v2648z" />
    <glyph glyph-name="Rho" unicode="&#x3a1;" horiz-adv-x="2567" 
d="M428 0v2966h983q172 0 313.5 -28.5t252.5 -83.5t193 -135t136.5 -182.5t81 -226.5t26.5 -266q0 -143 -25.5 -267.5t-79 -227.5t-137 -183t-200 -134.5t-267 -83.5t-338.5 -29h-554v-1119h-385zM1328 1426q189 0 321 41.5t213.5 121t118 194.5t36.5 261q0 139 -36.5 252.5
t-116.5 193.5t-206.5 124t-305.5 44h-539v-1232h515z" />
    <glyph glyph-name="Sigma" unicode="&#x3a3;" horiz-adv-x="2417" 
d="M206 320l1029 1185l-1012 1140v321h1984v-318h-1531l925 -1018v-257l-935 -1056h1524v-317h-1984v320z" />
    <glyph glyph-name="Tau" unicode="&#x3a4;" horiz-adv-x="2444" 
d="M1030 0v2648h-915v318h2214v-318h-915v-2648h-384z" />
    <glyph glyph-name="Upsilon" unicode="&#x3a5;" horiz-adv-x="2568" 
d="M1091 0v1156l-1049 1810h422l679 -1186q18 -35 36.5 -75.5t36.5 -83t34.5 -87t30.5 -88.5q14 44 31 88.5t36 87t39 83t38 75.5l682 1186h419l-1050 -1813v-1153h-385z" />
    <glyph glyph-name="Phi" unicode="&#x3a6;" horiz-adv-x="3290" 
d="M1453 332q-204 2 -378 42t-315.5 113.5t-249.5 178t-181 236t-110.5 287t-37.5 330.5q0 172 41.5 326.5t119.5 286t190 237t253 180t309.5 115.5t358.5 42v260h383v-260q189 -1 358 -41.5t310 -114.5t253.5 -179t190 -236.5t119.5 -286.5t42 -329t-38 -328.5t-112 -286
t-182.5 -236.5t-250 -179t-314.5 -114.5t-376 -42.5v-332h-383v332zM577 1519q0 -133 25.5 -249.5t76 -213.5t125.5 -174.5t172.5 -131t217 -83t259.5 -31.5v1765q-133 -3 -250 -34.5t-214.5 -87t-174 -134t-129 -175.5t-80.5 -210.5t-28 -240.5zM2713 1519q0 127 -28 240.5
t-81.5 210.5t-130 175.5t-174 134t-214.5 87t-249 34.5v-1765q139 2 258.5 31.5t217 83t172 131t125.5 174.5t77.5 213.5t26.5 249.5z" />
    <glyph glyph-name="Chi" unicode="&#x3a7;" horiz-adv-x="2626" 
d="M2109 0l-685 1026q-14 23 -30 49t-30.5 54t-28 56.5t-24.5 55.5q-13 -27 -27 -55.5t-28 -56.5t-29 -54t-30 -49l-684 -1026h-444l1019 1522l-961 1444h448l621 -943q15 -23 30 -49.5t29 -54.5t28 -56.5t27 -57.5q11 29 24.5 57.5t28 56.5t30 54.5t30.5 49.5l626 943h443
l-960 -1441l1026 -1525h-449z" />
    <glyph glyph-name="Psi" unicode="&#x3a8;" horiz-adv-x="3113" 
d="M1371 943q-192 11 -351.5 51t-287.5 106t-224 158t-160 206t-95.5 250.5t-31.5 293.5v958h388v-889q0 -176 44.5 -318t137.5 -245t236.5 -165t343.5 -78v1695h384v-1692q196 19 337.5 81t233 164.5t135 242.5t43.5 315v889h388v-958q0 -155 -31.5 -290.5t-95.5 -249.5
t-159.5 -205t-221.5 -157.5t-283.5 -107t-345.5 -51.5v-947h-384v943z" />
    <glyph glyph-name="uni03A9" unicode="&#x3a9;" horiz-adv-x="3260" 
d="M1824 0v257q150 78 274 199t212 282t137 360t49 432q0 169 -22 321t-68 281t-116 233t-166 176.5t-219.5 111.5t-274.5 39q-152 0 -275 -39t-219 -111.5t-166 -176.5t-115.5 -233t-68 -281t-22.5 -321q0 -233 49 -432t137.5 -360t212 -282t273.5 -199v-257h-1140v317h588
q-119 100 -215 229t-164 282.5t-104 329.5t-36 372q0 215 32 409t98.5 359t169 297.5t243 226t320.5 143.5t402 50q226 0 408 -49t323 -140t242 -222.5t166 -296.5t95.5 -361t30.5 -416q0 -196 -36.5 -372t-104 -329.5t-163.5 -282.5t-215 -229h588v-317h-1140z" />
    <glyph glyph-name="Iotadieresis" unicode="&#x3aa;" horiz-adv-x="1240" 
d="M428 0v2966h385v-2966h-385zM-2 3260v411h401v-411h-401zM842 3260v411h401v-411h-401z" />
    <glyph glyph-name="Upsilondieresis" unicode="&#x3ab;" horiz-adv-x="2568" 
d="M1091 0v1156l-1049 1810h422l679 -1186q18 -35 36.5 -75.5t36.5 -83t34.5 -87t30.5 -88.5q14 44 31 88.5t36 87t39 83t38 75.5l682 1186h419l-1050 -1813v-1153h-385zM661 3261v410h401v-410h-401zM1505 3261v410h401v-410h-401z" />
    <glyph glyph-name="alphatonos" unicode="&#x3ac;" horiz-adv-x="2619" 
d="M1109 -49q-197 0 -356.5 73.5t-272.5 216t-174 351.5t-61 480q0 258 67.5 459t187.5 338.5t284.5 209t358.5 71.5q109 0 206 -24t181.5 -66t156 -98t129.5 -120l39 259h325v-1602q0 -54 8 -92.5t26 -63.5t48 -37.5t74 -12.5q53 0 100.5 5t98.5 17v-293
q-29 -12 -63.5 -20.5t-72.5 -15t-79 -9.5t-83 -3q-80 0 -148.5 21.5t-122 63t-89 102.5t-46.5 139q-58 -70 -132.5 -134t-165 -111.5t-196.5 -75.5t-228 -28zM1188 267q96 0 186.5 29.5t171.5 79t148.5 115t117.5 136.5v839q-51 76 -116.5 143t-143.5 117t-167 79t-186 29
q-134 0 -240.5 -53.5t-180 -153.5t-113.5 -244t-40 -325q0 -187 32.5 -333.5t101.5 -248.5t175 -155.5t254 -53.5zM995 3105h490l-171 -721h-148z" />
    <glyph glyph-name="epsilontonos" unicode="&#x3ad;" horiz-adv-x="2032" 
d="M1111 -49q-215 0 -382 46.5t-282.5 129t-175 194.5t-59.5 244q0 96 27.5 178t80.5 149t129.5 118t173.5 84q-79 33 -141 80t-104.5 109t-65 138.5t-22.5 167.5q0 129 58.5 233t166.5 177t261.5 112t343.5 39q65 0 129 -4t125 -12t119 -19.5t110.5 -27t100 -33.5t88.5 -38
v-292q-61 27 -133.5 49.5t-155 38.5t-172 25t-183.5 9q-113 0 -201.5 -20.5t-149.5 -59t-93.5 -94t-32.5 -124.5q0 -76 32 -138t95.5 -107.5t157.5 -70t218 -24.5h344v-287h-393q-85 0 -158 -10t-132.5 -29.5t-104.5 -47.5t-76 -64.5t-46.5 -81t-15.5 -94.5q0 -75 33 -135.5
t101 -103.5t172.5 -66.5t246.5 -23.5q118 0 217 9t185 25.5t161.5 40t147.5 52.5v-306q-68 -30 -147 -55t-171 -42.5t-198.5 -27.5t-228.5 -10zM843 3105h490l-171 -721h-148z" />
    <glyph glyph-name="etatonos" unicode="&#x3ae;" horiz-adv-x="2597" 
d="M397 2101h330l26 -195q67 55 145.5 100t167.5 77t188.5 49.5t208.5 17.5q122 0 227 -19t191 -57t152.5 -95.5t112 -136t69 -177t23.5 -218.5v-2368h-369v2309q0 123 -31 209t-91.5 140t-150 79t-206.5 25q-90 0 -173.5 -13t-160.5 -38t-149.5 -62.5t-141.5 -87.5v-1640
h-368v2101zM1075 3105h490l-171 -721h-148z" />
    <glyph glyph-name="iotatonos" unicode="&#x3af;" horiz-adv-x="1341" 
d="M872 -29q-116 0 -205 28t-149.5 88t-92 153.5t-31.5 224.5v1636h368v-1594q0 -54 9.5 -94.5t32.5 -68t61.5 -41t97.5 -13.5q73 0 144 7t134 20v-294q-35 -11 -76.5 -20.5t-88 -17t-97.5 -11t-107 -3.5zM332 3105h490l-171 -721h-148z" />
    <glyph glyph-name="upsilondieresistonos" unicode="&#x3b0;" horiz-adv-x="2457" 
d="M1255 -49q-159 0 -287.5 30.5t-229.5 88.5t-173.5 143.5t-119.5 195.5t-70 244t-23 290v1158h368v-1129q0 -122 13 -221.5t40 -179t69.5 -139t102 -98.5t137 -58t173.5 -19q146 0 248 48t166 152t92.5 267.5t28.5 394.5q0 131 -11.5 260t-31.5 253.5t-47 241.5t-59 227
h354q35 -88 66 -194t54 -229t36.5 -261.5t13.5 -290.5q0 -194 -23.5 -356.5t-72 -293t-122 -229t-174.5 -164.5t-230.5 -99t-287.5 -33zM491 2917h360v-410h-360v410zM1018 3071h434l-143 -667h-148zM1620 2917h360v-410h-360v410z" />
    <glyph glyph-name="alpha" unicode="&#x3b1;" horiz-adv-x="2619" 
d="M1109 -49q-197 0 -356.5 73.5t-272.5 216t-174 351.5t-61 480q0 258 67.5 459t187.5 338.5t284.5 209t358.5 71.5q109 0 206 -24t181.5 -66t156 -98t129.5 -120l39 259h325v-1602q0 -54 8 -92.5t26 -63.5t48 -37.5t74 -12.5q53 0 100.5 5t98.5 17v-293
q-29 -12 -63.5 -20.5t-72.5 -15t-79 -9.5t-83 -3q-80 0 -148.5 21.5t-122 63t-89 102.5t-46.5 139q-58 -70 -132.5 -134t-165 -111.5t-196.5 -75.5t-228 -28zM1188 267q96 0 186.5 29.5t171.5 79t148.5 115t117.5 136.5v839q-51 76 -116.5 143t-143.5 117t-167 79t-186 29
q-134 0 -240.5 -53.5t-180 -153.5t-113.5 -244t-40 -325q0 -187 32.5 -333.5t101.5 -248.5t175 -155.5t254 -53.5z" />
    <glyph glyph-name="beta" unicode="&#x3b2;" horiz-adv-x="2605" 
d="M397 2261q0 152 33.5 275.5t95 220t147.5 167t191.5 116t227 67.5t253.5 22q204 0 360 -54.5t261.5 -147.5t160 -218t55.5 -267q0 -127 -49.5 -244.5t-131.5 -217.5t-191 -179t-229 -129q191 -41 339 -124t249.5 -196t154 -252t52.5 -291q0 -114 -28.5 -221t-85 -202.5
t-139.5 -175.5t-190.5 -137.5t-239.5 -89.5t-286 -32q-101 0 -196.5 13t-178.5 35.5t-151 51t-116 60.5v-1032h-368v3182zM765 422q57 -34 127.5 -62.5t150.5 -49.5t168.5 -32.5t181.5 -11.5q142 0 254 41t189.5 114t118 172.5t40.5 215.5q0 99 -25.5 183.5t-76 154.5
t-125 126.5t-173.5 102t-221 80t-267 59.5v282q100 16 190 47t167 73t139.5 96t106.5 118t67.5 137t23.5 155q0 84 -29 157t-86.5 126t-145.5 83.5t-206 30.5q-134 0 -239 -35.5t-178.5 -110t-112.5 -190.5t-39 -276v-1786z" />
    <glyph glyph-name="gamma" unicode="&#x3b3;" horiz-adv-x="2177" 
d="M940 -10l-653 1672q-15 36 -34 64t-41.5 46.5t-49.5 28.5t-58 10q-43 0 -76.5 -4t-71.5 -13v294q28 11 56 18.5t58.5 13t64.5 8t74 2.5q83 0 146 -20t112 -61t85.5 -103t67.5 -146l439 -1212q18 -60 36.5 -126t33.5 -140q14 74 35 140t39 121l547 1518h385l-827 -2124
v-898h-368v911z" />
    <glyph glyph-name="delta" unicode="&#x3b4;" horiz-adv-x="2530" 
d="M1265 -49q-176 0 -320.5 36.5t-257.5 104t-196.5 162t-138 209.5t-81 248t-26.5 277q0 172 32.5 318.5t90.5 267t139 213.5t178 156t208 96t229 33q60 0 116.5 -10t111.5 -28q-33 36 -69.5 71t-71.5 70l-717 641v264h1427v-301h-954l642 -563q112 -96 205 -185.5
t168.5 -178.5t132.5 -180.5t95.5 -192.5t58 -214.5t19.5 -245.5q0 -144 -26.5 -280t-81 -254.5t-138 -216.5t-196.5 -168.5t-257.5 -109.5t-321.5 -39zM1265 256q115 0 207 26.5t163.5 75t122 117t83.5 153t48.5 183t15.5 208.5q0 108 -15.5 208.5t-48.5 187t-83.5 157.5
t-122 120.5t-163.5 74t-207 20.5q-174 -6 -295.5 -65.5t-198 -161.5t-111.5 -240t-35 -301q0 -164 35 -303.5t111.5 -241t198 -160t295.5 -58.5z" />
    <glyph glyph-name="epsilon" unicode="&#x3b5;" horiz-adv-x="2032" 
d="M1111 -49q-215 0 -382 46.5t-282.5 129t-175 194.5t-59.5 244q0 96 27.5 178t80.5 149t129.5 118t173.5 84q-79 33 -141 80t-104.5 109t-65 138.5t-22.5 167.5q0 129 58.5 233t166.5 177t261.5 112t343.5 39q65 0 129 -4t125 -12t119 -19.5t110.5 -27t100 -33.5t88.5 -38
v-292q-61 27 -133.5 49.5t-155 38.5t-172 25t-183.5 9q-113 0 -201.5 -20.5t-149.5 -59t-93.5 -94t-32.5 -124.5q0 -76 32 -138t95.5 -107.5t157.5 -70t218 -24.5h344v-287h-393q-85 0 -158 -10t-132.5 -29.5t-104.5 -47.5t-76 -64.5t-46.5 -81t-15.5 -94.5q0 -75 33 -135.5
t101 -103.5t172.5 -66.5t246.5 -23.5q118 0 217 9t185 25.5t161.5 40t147.5 52.5v-306q-68 -30 -147 -55t-171 -42.5t-198.5 -27.5t-228.5 -10z" />
    <glyph glyph-name="zeta" unicode="&#x3b6;" horiz-adv-x="1931" 
d="M1340 -570q23 61 44.5 137.5t39.5 155t31 151.5t18 126h-204q-183 0 -334 27.5t-269.5 81.5t-206 132t-145 179.5t-85.5 224.5t-28 265q0 178 41.5 359.5t115 357.5t175 342.5t221 315t253.5 273.5t272 219h-942v303h1506v-258q-112 -52 -226.5 -129t-224 -174
t-212.5 -211.5t-193 -241.5t-164.5 -264.5t-128.5 -280t-83.5 -288t-29.5 -288.5q0 -106 19 -195t58 -159.5t98.5 -123t140 -88t182.5 -53t227 -17.5h261q66 0 116.5 -15.5t84 -43.5t50 -66t16.5 -85q0 -44 -7 -98.5t-20 -114.5t-30 -122.5t-37 -122t-42 -113.5t-44 -98
h-314v0z" />
    <glyph glyph-name="eta" unicode="&#x3b7;" horiz-adv-x="2597" 
d="M397 2101h330l26 -195q67 55 145.5 100t167.5 77t188.5 49.5t208.5 17.5q122 0 227 -19t191 -57t152.5 -95.5t112 -136t69 -177t23.5 -218.5v-2368h-369v2309q0 123 -31 209t-91.5 140t-150 79t-206.5 25q-90 0 -173.5 -13t-160.5 -38t-149.5 -62.5t-141.5 -87.5v-1640
h-368v2101z" />
    <glyph glyph-name="theta" unicode="&#x3b8;" horiz-adv-x="2544" 
d="M1272 -57q-185 0 -332.5 57t-260.5 160.5t-194.5 249t-133 322t-75.5 379.5t-24 422q0 221 26 425t79.5 381.5t136 323t196 249t258.5 160.5t324 57q186 0 334 -57t261 -161t194 -250t132.5 -324t75.5 -382.5t24 -426.5q0 -218 -26 -420.5t-79.5 -378.5t-136 -321
t-196 -248.5t-259 -160t-324.5 -56.5zM1272 262q165 0 283.5 79.5t196.5 228t117.5 358.5t47.5 472h-1294q9 -262 50.5 -472t119.5 -358.5t196.5 -228t282.5 -79.5zM1272 2823q-161 0 -278.5 -78.5t-196.5 -225t-121.5 -353.5t-52.5 -463h1294q-9 256 -50.5 463t-120 353.5
t-196 225t-278.5 78.5z" />
    <glyph glyph-name="iota" unicode="&#x3b9;" horiz-adv-x="1341" 
d="M872 -29q-116 0 -205 28t-149.5 88t-92 153.5t-31.5 224.5v1636h368v-1594q0 -54 9.5 -94.5t32.5 -68t61.5 -41t97.5 -13.5q73 0 144 7t134 20v-294q-35 -11 -76.5 -20.5t-88 -17t-97.5 -11t-107 -3.5z" />
    <glyph glyph-name="kappa" unicode="&#x3ba;" horiz-adv-x="2280" 
d="M397 2101h368v-928l980 928h450l-955 -896q-25 -26 -47 -45t-42.5 -34t-38.5 -27t-36 -22q16 -7 33 -17t35.5 -24t41 -32.5t48.5 -43.5l1018 -960h-487l-1000 955v-955h-368v2101z" />
    <glyph glyph-name="lambda" unicode="&#x3bb;" horiz-adv-x="2257" 
d="M918 2161l-62 177q-41 107 -80.5 184t-79.5 130t-81 85t-85.5 49t-94 22.5t-105.5 5.5q-24 0 -44.5 -1t-40 -3t-37 -5t-34.5 -7v298q19 7 43 13t51.5 10t58 6t61.5 2q94 0 175.5 -13.5t152.5 -45t133 -83t119.5 -127.5t110.5 -178.5t104 -236.5l775 -2001
q15 -36 34 -63.5t41.5 -46.5t49.5 -28.5t58 -9.5q43 0 77 4t71 13v-294q-28 -11 -56 -19t-58.5 -13t-64 -8t-73.5 -3q-83 0 -145.5 20.5t-111 61t-85.5 103t-67 146.5l-441 1221q-10 28 -21 60t-22 67.5t-20.5 72.5t-17.5 75q-7 -38 -16.5 -75t-19.5 -73t-21 -69t-20 -62
l-592 -1522h-395z" />
    <glyph glyph-name="uni03BC" unicode="&#x3bc;" horiz-adv-x="2640" 
d="M2257 -29q-66 0 -124.5 14.5t-107 43t-86.5 71t-62 99.5q-68 -56 -145 -102t-164.5 -78.5t-185.5 -50t-206 -17.5q-64 0 -123.5 7t-114 20t-103.5 31.5t-93 43.5q12 -77 17.5 -171t5.5 -196v-607h-368v3022h368v-1392q0 -121 33.5 -207t96 -140.5t152 -79.5t202.5 -25
q85 0 161.5 10t147.5 31t138.5 53t135.5 77v1673h368v-1605q0 -54 8 -92.5t26.5 -63.5t48 -37.5t73.5 -12.5q53 0 100.5 5t98.5 17v-293q-30 -12 -64 -20.5t-72 -15t-79 -9.5t-83 -3z" />
    <glyph glyph-name="nu" unicode="&#x3bd;" horiz-adv-x="2109" 
d="M868 0l-822 2101h397l518 -1453q25 -74 51.5 -155.5t48.5 -170.5q20 89 48 170t56 152l516 1457h386l-819 -2101h-380z" />
    <glyph glyph-name="xi" unicode="&#x3be;" horiz-adv-x="1997" 
d="M1406 -570q23 61 44.5 137.5t39 155t30 151.5t17.5 126h-158q-187 0 -343.5 28t-282.5 82.5t-222 136.5t-160 189.5t-96.5 240t-32.5 290.5q0 147 32 273.5t99 229t171 179t248 124.5q-95 40 -173.5 102t-135.5 144.5t-89 184t-32 221.5q0 159 56 288.5t160.5 222
t254.5 143t338 50.5q101 0 191.5 -8.5t170 -25t148.5 -39.5t129 -53v-302q-60 26 -127 47.5t-142.5 36t-159 22.5t-176.5 8q-109 0 -195.5 -28t-146.5 -82.5t-92 -135t-32 -185.5q0 -111 40.5 -198.5t114.5 -149t179 -93.5t233 -32h312v-295h-322q-165 0 -291 -41t-211 -122
t-128 -202t-43 -281q0 -96 17.5 -182t56.5 -159.5t101 -132.5t150 -101t204 -64t264 -22h215q67 0 117.5 -15.5t83.5 -43.5t50 -66t17 -85q0 -66 -15.5 -154t-41 -181t-58 -181t-65.5 -153h-313z" />
    <glyph glyph-name="omicron" unicode="&#x3bf;" horiz-adv-x="2511" 
d="M1255 -49q-185 0 -332.5 38.5t-260.5 109t-194.5 170t-133 221.5t-75.5 263.5t-24 296.5q0 154 26 296t79.5 264t136.5 222t196.5 170.5t258.5 109t323 38.5q186 0 334 -38.5t261.5 -109t194.5 -170.5t132 -222t75 -264t24 -297q0 -154 -25.5 -295.5t-79 -263.5
t-136.5 -221.5t-196 -170t-258.5 -109t-325.5 -38.5zM1255 256q176 0 297.5 58t198 163t110.5 250.5t34 321.5q0 177 -34 324.5t-110.5 254t-198 165t-297.5 58.5q-173 0 -295 -58.5t-198.5 -164.5t-111 -253.5t-34.5 -324.5q0 -176 34.5 -322t111 -251t198.5 -163t295 -58z
" />
    <glyph glyph-name="pi" unicode="&#x3c0;" horiz-adv-x="2729" 
d="M2526 20q-34 -11 -75 -20t-85.5 -16t-91 -10t-93.5 -3q-110 0 -196 26t-146 84t-91.5 148.5t-31.5 220.5v1348h-858v-1798h-368v1798h-347v303h2405v-303h-464v-1305q0 -54 11 -93t34.5 -63.5t62 -36.5t92.5 -12q29 0 60.5 1.5t62.5 4.5t61.5 7t57.5 10v-291z" />
    <glyph glyph-name="rho" unicode="&#x3c1;" horiz-adv-x="2536" 
d="M335 1055q0 158 23 300.5t72 264t126 219.5t184 167.5t246 106.5t313 37q180 0 323 -38.5t253.5 -108.5t189.5 -169t129 -220t73.5 -261t23.5 -291q0 -266 -67 -473t-192 -348.5t-303.5 -215.5t-402.5 -74q-98 0 -185 11t-164.5 32.5t-145 54t-127.5 75.5v-1045h-369
v1976zM1281 259q157 0 274.5 52.5t196.5 153t118.5 247.5t39.5 337q0 177 -33 324.5t-106 254t-189.5 165t-282.5 58.5q-112 0 -200.5 -27.5t-154.5 -79.5t-111.5 -125.5t-74.5 -165t-41.5 -200t-12.5 -228.5v-617q64 -40 131 -68.5t138.5 -46.5t148.5 -26t159 -8z" />
    <glyph glyph-name="sigma1" unicode="&#x3c2;" horiz-adv-x="2074" 
d="M1419 -570q23 61 44.5 137.5t39.5 155t30.5 151.5t17.5 126h-159q-188 0 -346 28.5t-285.5 85.5t-224 145t-161 207t-97.5 269t-33 334q0 159 27.5 300.5t82.5 261.5t137.5 216t192 163.5t247.5 103.5t304 36q87 0 171.5 -8.5t160.5 -24t141.5 -38t114.5 -49.5v-316
q-52 24 -117 45.5t-140.5 37.5t-158.5 26t-169 10q-158 0 -273.5 -53t-191 -152t-112.5 -240.5t-37 -318.5q0 -180 41.5 -322t136.5 -239t248.5 -148t377.5 -51h216q67 0 117 -15.5t83.5 -43.5t50.5 -66t17 -85q0 -66 -16 -154t-41.5 -181t-58 -181t-65.5 -153h-313v0z" />
    <glyph glyph-name="sigma" unicode="&#x3c3;" horiz-adv-x="2567" 
d="M1237 -49q-181 0 -325.5 38t-256 108t-191 168t-130.5 217.5t-75 258t-24 288.5q0 151 26.5 288.5t80.5 257t138 216.5t197.5 166t259.5 106.5t324 37.5h1217v-303h-580q70 -64 132.5 -149.5t109 -188.5t73.5 -219.5t27 -242.5q0 -141 -25 -273t-77 -249t-133.5 -213
t-192.5 -165.5t-254.5 -108t-320.5 -38.5zM1860 1022q0 115 -23.5 226.5t-66 211.5t-103 186.5t-134.5 151.5h-245q-172 0 -299 -55.5t-209.5 -157t-123 -243t-40.5 -313.5q0 -170 34.5 -312.5t109 -244.5t192.5 -159t285 -57q114 0 204 25t159.5 72t118.5 115t80.5 153
t46 186t14.5 215z" />
    <glyph glyph-name="tau" unicode="&#x3c4;" horiz-adv-x="1883" 
d="M86 2101h1712v-303h-752v-1291q0 -54 9.5 -94.5t32.5 -68t61.5 -41t97.5 -13.5q73 0 143.5 7t134.5 20v-294q-36 -11 -77 -20.5t-87.5 -17t-98 -11t-107.5 -3.5q-115 0 -204 28t-150 88t-92.5 153.5t-31.5 224.5v1333h-591v303z" />
    <glyph glyph-name="upsilon" unicode="&#x3c5;" horiz-adv-x="2457" 
d="M1255 -49q-159 0 -287.5 30.5t-229.5 88.5t-173.5 143.5t-119.5 195.5t-70 244t-23 290v1158h368v-1129q0 -122 13 -221.5t40 -179t69.5 -139t102 -98.5t137 -58t173.5 -19q146 0 248 48t166 152t92.5 267.5t28.5 394.5q0 131 -11.5 260t-31.5 253.5t-47 241.5t-59 227
h354q35 -88 66 -194t54 -229t36.5 -261.5t13.5 -290.5q0 -194 -23.5 -356.5t-72 -293t-122 -229t-174.5 -164.5t-230.5 -99t-287.5 -33z" />
    <glyph glyph-name="phi" unicode="&#x3c6;" horiz-adv-x="3141" 
d="M1395 -37q-287 8 -505 87.5t-365.5 221t-221.5 338.5t-74 440t72 440.5t217.5 338.5t364 221t512.5 88v942h352v-942q296 -8 515 -87.5t363.5 -221t215.5 -339t71 -441.5q0 -242 -74.5 -439t-222 -338.5t-365 -221t-503.5 -87.5v-884h-352v884zM610 1050
q0 -185 48.5 -331t146.5 -248.5t245.5 -159t344.5 -59.5v1605q-197 -6 -344.5 -64t-245.5 -162t-146.5 -250.5t-48.5 -330.5zM2531 1049q0 184 -49 331t-146.5 251t-245 162t-343.5 64v-1605q196 3 343.5 59.5t245 159t146.5 248.5t49 330z" />
    <glyph glyph-name="chi" unicode="&#x3c7;" horiz-adv-x="2203" 
d="M2004 -946q-79 0 -139.5 21.5t-109.5 63.5t-90 103.5t-83 140.5l-360 676q-14 26 -29.5 59t-30 68.5t-27.5 72.5t-22 72q-9 -35 -22.5 -72t-28.5 -72.5t-31 -68.5t-28 -59l-524 -980h-383l833 1540l-541 1040q-19 34 -40 61.5t-45 46.5t-50.5 29.5t-57.5 10.5
q-21 0 -40.5 -1t-37.5 -2.5t-36.5 -5.5t-36.5 -8v294q28 11 55.5 19t57 13t63 8t72.5 3q80 0 139.5 -21.5t108 -63.5t89 -103.5t82.5 -142.5l323 -617q12 -27 27 -60t28.5 -68.5t26.5 -72.5t22 -72q10 35 24 72t29.5 72.5t31 68.5t29.5 60l494 922h380l-800 -1480l580 -1100
q18 -35 39 -62t45 -46.5t51 -30t58 -10.5q21 0 40 1.5t37.5 3t36.5 4.5t37 8v-294q-28 -11 -55.5 -18.5t-56.5 -12.5t-61.5 -7.5t-72.5 -2.5z" />
    <glyph glyph-name="psi" unicode="&#x3c8;" horiz-adv-x="3038" 
d="M1346 -38q-169 12 -308.5 49.5t-250 99t-192 146t-135.5 190t-81 233t-27 275.5v1146h368v-1118q0 -167 37.5 -293.5t114.5 -215t195 -140.5t279 -69v2425h352v-2432h5q172 14 298.5 70.5t209.5 162t123.5 262.5t40.5 372q0 131 -13.5 259t-40 251t-65 239.5t-87.5 226.5
h352q51 -89 92.5 -193.5t71.5 -225.5t47 -260t17 -297q0 -183 -30 -338t-89.5 -281.5t-147.5 -224.5t-204 -166t-260 -107.5t-315 -48.5h-5v-880h-352v883z" />
    <glyph glyph-name="omega" unicode="&#x3c9;" horiz-adv-x="3363" 
d="M1062 -49q-140 0 -252 36t-198.5 102.5t-148.5 160.5t-101.5 210.5t-59 253.5t-19.5 289q0 141 20.5 266.5t58 234t88.5 200.5t112.5 167t131 132.5t143.5 97.5h377q-132 -95 -235 -211.5t-175 -256t-110 -301t-38 -346.5q0 -158 23.5 -292t76.5 -231.5t138 -152.5
t208 -55q104 0 181 42.5t127.5 128t75.5 215t25 304.5v593h341v-593q0 -175 25 -304.5t76 -215t127.5 -128t180.5 -42.5q123 0 208 55t138 152.5t76.5 231.5t23.5 292q0 185 -38 346.5t-110 301t-175 256t-235 211.5h377q74 -40 143.5 -97.5t131 -132.5t113 -167
t88.5 -200.5t58 -234t21 -266.5q0 -152 -19.5 -289t-59 -253.5t-102 -210.5t-149 -160.5t-198.5 -102.5t-252 -36q-117 0 -213.5 22.5t-174 66t-135 105t-96.5 140.5q-41 -79 -99 -140.5t-135 -105t-173.5 -66t-212.5 -22.5z" />
    <glyph glyph-name="iotadieresis" unicode="&#x3ca;" horiz-adv-x="1341" 
d="M872 -29q-116 0 -205 28t-149.5 88t-92 153.5t-31.5 224.5v1636h368v-1594q0 -54 9.5 -94.5t32.5 -68t61.5 -41t97.5 -13.5q73 0 144 7t134 20v-294q-35 -11 -76.5 -20.5t-88 -17t-97.5 -11t-107 -3.5zM-45 2507v410h401v-410h-401zM799 2507v410h401v-410h-401z" />
    <glyph glyph-name="upsilondieresis" unicode="&#x3cb;" horiz-adv-x="2457" 
d="M1255 -49q-159 0 -287.5 30.5t-229.5 88.5t-173.5 143.5t-119.5 195.5t-70 244t-23 290v1158h368v-1129q0 -122 13 -221.5t40 -179t69.5 -139t102 -98.5t137 -58t173.5 -19q146 0 248 48t166 152t92.5 267.5t28.5 394.5q0 131 -11.5 260t-31.5 253.5t-47 241.5t-59 227
h354q35 -88 66 -194t54 -229t36.5 -261.5t13.5 -290.5q0 -194 -23.5 -356.5t-72 -293t-122 -229t-174.5 -164.5t-230.5 -99t-287.5 -33zM613 2507v410h401v-410h-401zM1457 2507v410h401v-410h-401z" />
    <glyph glyph-name="omicrontonos" unicode="&#x3cc;" horiz-adv-x="2511" 
d="M1255 -49q-185 0 -332.5 38.5t-260.5 109t-194.5 170t-133 221.5t-75.5 263.5t-24 296.5q0 154 26 296t79.5 264t136.5 222t196.5 170.5t258.5 109t323 38.5q186 0 334 -38.5t261.5 -109t194.5 -170.5t132 -222t75 -264t24 -297q0 -154 -25.5 -295.5t-79 -263.5
t-136.5 -221.5t-196 -170t-258.5 -109t-325.5 -38.5zM1255 256q176 0 297.5 58t198 163t110.5 250.5t34 321.5q0 177 -34 324.5t-110.5 254t-198 165t-297.5 58.5q-173 0 -295 -58.5t-198.5 -164.5t-111 -253.5t-34.5 -324.5q0 -176 34.5 -322t111 -251t198.5 -163t295 -58z
M1007 3105h490l-171 -721h-148z" />
    <glyph glyph-name="upsilontonos" unicode="&#x3cd;" horiz-adv-x="2457" 
d="M1255 -49q-159 0 -287.5 30.5t-229.5 88.5t-173.5 143.5t-119.5 195.5t-70 244t-23 290v1158h368v-1129q0 -122 13 -221.5t40 -179t69.5 -139t102 -98.5t137 -58t173.5 -19q146 0 248 48t166 152t92.5 267.5t28.5 394.5q0 131 -11.5 260t-31.5 253.5t-47 241.5t-59 227
h354q35 -88 66 -194t54 -229t36.5 -261.5t13.5 -290.5q0 -194 -23.5 -356.5t-72 -293t-122 -229t-174.5 -164.5t-230.5 -99t-287.5 -33zM990 3105h490l-171 -721h-148z" />
    <glyph glyph-name="omegatonos" unicode="&#x3ce;" horiz-adv-x="3363" 
d="M1062 -49q-140 0 -252 36t-198.5 102.5t-148.5 160.5t-101.5 210.5t-59 253.5t-19.5 289q0 141 20.5 266.5t58 234t88.5 200.5t112.5 167t131 132.5t143.5 97.5h377q-132 -95 -235 -211.5t-175 -256t-110 -301t-38 -346.5q0 -158 23.5 -292t76.5 -231.5t138 -152.5
t208 -55q104 0 181 42.5t127.5 128t75.5 215t25 304.5v593h341v-593q0 -175 25 -304.5t76 -215t127.5 -128t180.5 -42.5q123 0 208 55t138 152.5t76.5 231.5t23.5 292q0 185 -38 346.5t-110 301t-175 256t-235 211.5h377q74 -40 143.5 -97.5t131 -132.5t113 -167
t88.5 -200.5t58 -234t21 -266.5q0 -152 -19.5 -289t-59 -253.5t-102 -210.5t-149 -160.5t-198.5 -102.5t-252 -36q-117 0 -213.5 22.5t-174 66t-135 105t-96.5 140.5q-41 -79 -99 -140.5t-135 -105t-173.5 -66t-212.5 -22.5zM1437 3105h490l-171 -721h-148z" />
    <glyph glyph-name="uni0400" unicode="&#x400;" horiz-adv-x="2521" 
d="M428 0v2966h1885v-318h-1500v-973h1289v-316h-1289v-1042h1504v-317h-1889zM1215 3162l-560 587h491l403 -587h-334z" />
    <glyph glyph-name="uni0401" unicode="&#x401;" horiz-adv-x="2521" 
d="M428 0v2966h1885v-318h-1500v-973h1289v-316h-1289v-1042h1504v-317h-1889zM742 3261v410h401v-410h-401zM1586 3261v410h401v-410h-401z" />
    <glyph glyph-name="uni0402" unicode="&#x402;" horiz-adv-x="3208" 
d="M115 2966h1954v-318h-784v-754h639q166 0 306 -28.5t254 -83t201.5 -135.5t146.5 -186t89 -234t30 -280q0 -145 -28.5 -271.5t-86 -232t-145.5 -188t-206 -139t-267.5 -86.5t-330.5 -30h-136v313h93q122 0 222 18t179 54t137 89.5t96.5 124t57 157.5t18.5 191
q0 98 -18.5 183.5t-56.5 156t-95 125t-133.5 92.5t-172.5 57.5t-211 19.5h-582v-1581h-385v2648h-785v318z" />
    <glyph glyph-name="uni0403" unicode="&#x403;" horiz-adv-x="2245" 
d="M428 2966h1695v-318h-1310v-2648h-385v2966zM1444 3749h484l-556 -587h-331z" />
    <glyph glyph-name="uni0404" unicode="&#x404;" horiz-adv-x="2579" 
d="M1541 -49q-199 0 -370.5 44t-314 130t-253 215t-186.5 299.5t-115.5 382.5t-39.5 464q0 229 37 431.5t109.5 372t180.5 304.5t250.5 228t319 143t385.5 50q116 0 229 -11t216 -32t192.5 -51.5t158.5 -68.5v-335q-73 36 -161.5 65t-187 49.5t-205.5 31.5t-217 11
q-214 0 -377.5 -67.5t-277 -197.5t-177 -318t-77.5 -429h1304v-317h-1308q8 -187 44.5 -337.5t97.5 -269t143.5 -204t183.5 -141.5t217 -82.5t244 -26.5q130 0 241.5 10t208.5 28t181.5 44t161.5 58v-326q-77 -34 -162.5 -61.5t-187 -46.5t-221.5 -29t-267 -10z" />
    <glyph glyph-name="uni0405" unicode="&#x405;" horiz-adv-x="2502" 
d="M239 444q77 -32 177.5 -62t214.5 -52.5t236.5 -35.5t245.5 -13q184 0 324 38.5t234.5 107.5t143.5 163t49 205q0 74 -17 133t-52.5 108t-89 89.5t-127.5 76t-168 67.5t-208 65q-141 40 -264.5 83t-225.5 94.5t-182 115.5t-135 145t-84 183t-28 231q0 124 28 233
t85.5 201.5t144 165.5t203 124t264.5 78t328 27q133 0 249.5 -10.5t216.5 -31t185.5 -51.5t157.5 -71v-335q-80 41 -169.5 71.5t-190 51.5t-212.5 31.5t-238 10.5q-167 0 -290.5 -35t-205 -98.5t-122.5 -153t-41 -198.5q0 -73 16.5 -130t51 -104.5t87.5 -86t127 -72.5
t169 -65.5t214 -65.5q145 -42 270.5 -86t227.5 -97t181 -117.5t132.5 -147t81 -185t27.5 -231.5q-1 -122 -32 -232.5t-94.5 -206t-158.5 -173t-221 -132t-285 -84t-349 -29.5q-137 0 -264.5 10.5t-240 31.5t-208.5 51.5t-169 69.5v330z" />
    <glyph glyph-name="uni0406" unicode="&#x406;" horiz-adv-x="1240" 
d="M428 0v2966h385v-2966h-385z" />
    <glyph glyph-name="uni0407" unicode="&#x407;" horiz-adv-x="1240" 
d="M428 0v2966h385v-2966h-385zM-2 3260v411h401v-411h-401zM842 3260v411h401v-411h-401z" />
    <glyph glyph-name="uni0408" unicode="&#x408;" horiz-adv-x="1489" 
d="M-18 -232q18 -4 39 -7.5t43 -5.5t45 -3t45 -1q126 0 222.5 37t162 118t99.5 210t34 313v2236h-454v301h839v-2578q0 -250 -62.5 -433t-176.5 -302t-276.5 -177t-361.5 -58q-26 0 -53.5 1.5t-53 5t-49 7.5t-42.5 10v326z" />
    <glyph glyph-name="uni0409" unicode="&#x409;" horiz-adv-x="4422" 
d="M2657 313h545q184 0 318 34.5t221 101.5t129.5 166.5t42.5 230.5q0 123 -42.5 221.5t-128 168t-214.5 106.5t-302 37h-569v-1066zM2273 0v2648h-1085q-1 -334 -7.5 -626t-22 -542.5t-43 -459t-70 -376t-103.5 -293t-144.5 -209t-191 -126t-244.5 -42.5q-35 0 -68 3.5
t-64.5 9.5t-61.5 15t-56 21v298q30 -10 71.5 -18t93.5 -8q77 0 141.5 26.5t117 87.5t94 161.5t73 250t54 351.5t37 465.5t20.5 593.5t6 735h1837v-1274h626q165 0 305.5 -26.5t254.5 -76.5t201 -123t146.5 -167.5t89.5 -208t30 -244.5q0 -130 -28.5 -243t-86.5 -207.5
t-145.5 -168t-205.5 -124t-267.5 -77t-330.5 -26.5h-973z" />
    <glyph glyph-name="uni040A" unicode="&#x40a;" horiz-adv-x="4425" 
d="M428 2966h385v-1291h1462v1291h385v-1274h626q164 0 304.5 -26.5t255 -76.5t201.5 -123t146 -167.5t89.5 -208t30.5 -244.5q0 -130 -28.5 -243t-86.5 -207.5t-146 -168t-206 -124t-267.5 -77t-330.5 -26.5h-973v1358h-1462v-1358h-385v2966zM2660 1379v-1066h545
q184 0 317.5 34.5t220.5 101.5t129.5 166.5t42.5 230.5q0 123 -42.5 221.5t-127.5 168t-214 106.5t-302 37h-569z" />
    <glyph glyph-name="uni040B" unicode="&#x40b;" horiz-adv-x="3373" 
d="M115 2966h1954v-318h-784v-800q71 29 155.5 52.5t177 39.5t190 25t196.5 9q174 0 316.5 -26t254 -80t193.5 -135.5t135.5 -191t79.5 -248.5t26 -307v-986h-385v952q0 177 -37.5 307.5t-119 216t-210 127.5t-309.5 42q-80 0 -164.5 -5.5t-169.5 -16t-169 -25t-160 -34.5
v-1564h-385v2648h-785v318z" />
    <glyph glyph-name="uni040C" unicode="&#x40c;" horiz-adv-x="2742" 
d="M428 2966h385v-1320h289q45 0 81.5 5.5t67.5 17t58 30t53 45.5t52 62.5t56 80.5l725 1079h446l-772 -1149q-37 -58 -76 -108t-81 -90.5t-86.5 -71.5t-92.5 -51q49 -19 93.5 -50t86.5 -71.5t81.5 -90t79.5 -106.5l810 -1178h-450l-761 1109q-30 45 -56 80.5t-52 62t-53 45
t-58 29.5t-67.5 16.5t-81.5 5.5h-292v-1348h-385v2966zM1642 3749h484l-556 -587h-331z" />
    <glyph glyph-name="uni040D" unicode="&#x40d;" horiz-adv-x="3203" 
d="M428 2966h376v-2019q0 -45 -1 -100t-3.5 -115t-6.5 -121t-9 -116q27 59 57.5 119t62.5 117t64 110t62 98l1357 2027h389v-2966h-377v2019q0 43 1 97t3.5 113t6.5 118.5t9 116.5q-28 -59 -58.5 -118t-62 -115.5t-62.5 -108.5t-59 -96l-1357 -2026h-392v2966zM1433 3162
l-560 587h491l403 -587h-334z" />
    <glyph glyph-name="uni040E" unicode="&#x40e;" horiz-adv-x="2532" 
d="M500 -32q-26 0 -52.5 2t-51 5.5t-47 8t-39.5 10.5v303q14 -3 30.5 -5.5t34.5 -4.5t39.5 -3t45.5 -1q100 0 180 28t150.5 94t136.5 173.5t138 264.5l7 21l-1024 2102h419l653 -1365q14 -33 30.5 -72t35 -82t38.5 -88.5t40 -90.5q20 45 40.5 90.5t40 88.5t37.5 82t33 72
l640 1365h411l-1024 -2191q-98 -213 -195.5 -366t-208 -250.5t-241.5 -144t-297 -46.5zM1257 3144q-141 0 -255 43.5t-195.5 123t-126.5 191t-48 247.5h276q8 -76 35.5 -135.5t72.5 -100t106 -61.5t135 -21q73 0 134 21t106 61.5t73 100t36 135.5h277q-3 -136 -49 -247.5
t-127.5 -191t-195.5 -123t-254 -43.5z" />
    <glyph glyph-name="uni040F" unicode="&#x40f;" horiz-adv-x="3061" 
d="M428 2966h385v-2649h1436v2649h384v-2966h-910v-705h-386v705h-909v2966z" />
    <glyph glyph-name="uni0410" unicode="&#x410;" horiz-adv-x="2819" 
d="M2337 0l-275 753h-1325l-274 -753h-395l1129 2966h418l1136 -2966h-414zM1518 2260q-34 87 -65 183t-51 198q-23 -102 -56 -197.5t-63 -183.5l-432 -1180h1094z" />
    <glyph glyph-name="uni0411" unicode="&#x411;" horiz-adv-x="2591" 
d="M428 2966h1830v-318h-1445v-986h632q164 0 303.5 -25t253.5 -74t201.5 -120t147.5 -163.5t90.5 -205t30.5 -243.5q0 -130 -29 -242t-87.5 -204.5t-147 -164t-206.5 -121t-266.5 -74.5t-327.5 -25h-980v2966zM813 1349v-1036h551q181 0 314.5 33t221.5 97.5t131.5 161.5
t43.5 226q0 122 -43.5 218t-129.5 163t-215 102t-299 35h-575z" />
    <glyph glyph-name="uni0412" unicode="&#x412;" horiz-adv-x="2731" 
d="M428 0v2966h879q258 0 450 -52.5t320 -153t191 -248t63 -337.5q0 -117 -26.5 -214.5t-76 -175t-121.5 -137.5t-164 -103q125 -45 223.5 -115t167.5 -163t105 -207t36 -246q0 -124 -27 -232t-83 -198.5t-142.5 -161.5t-205 -120.5t-269.5 -75.5t-337 -26h-983zM1372 316
q184 0 317.5 34.5t219.5 99.5t127.5 159.5t41.5 214.5q0 121 -38.5 219t-120 167t-208 106t-302.5 37h-596v-1037h559zM1294 1654q172 0 293.5 33t198.5 98t112.5 160.5t35.5 219.5q0 113 -41.5 203t-126 152.5t-214 95.5t-304.5 33h-435v-995h481z" />
    <glyph glyph-name="uni0413" unicode="&#x413;" horiz-adv-x="2245" 
d="M428 2966h1695v-318h-1310v-2648h-385v2966z" />
    <glyph glyph-name="uni0414" unicode="&#x414;" horiz-adv-x="3271" 
d="M2359 2648h-1060q-2 -288 -13 -556t-34.5 -507.5t-61.5 -445t-92.5 -368.5t-128.5 -279t-167 -175h1557v2331zM155 -705v1022h121q80 0 150.5 36t132 112t113.5 192t94.5 275.5t74 364t53.5 457.5t33 555.5t11 656.5h1806v-2649h357v-1022h-385v705h-2175v-705h-386z" />
    <glyph glyph-name="uni0415" unicode="&#x415;" horiz-adv-x="2521" 
d="M428 0v2966h1885v-318h-1500v-973h1289v-316h-1289v-1042h1504v-317h-1889z" />
    <glyph glyph-name="uni0416" unicode="&#x416;" horiz-adv-x="3991" 
d="M1804 1341h-217q-68 0 -117.5 -10.5t-91.5 -36.5t-79 -71t-80 -114l-713 -1109h-450l762 1178q36 59 75.5 109t81.5 90.5t87.5 70.5t94.5 48q-46 20 -87.5 51t-80.5 71.5t-75.5 90.5t-70.5 108l-723 1149h431l677 -1079q28 -46 53 -81.5t50 -61.5t52 -43.5t58 -27.5
t67.5 -14.5t81.5 -4.5h214v1312h385v-1312h213q67 0 116.5 10.5t90 36.5t77 71t78.5 115l676 1079h433l-724 -1149q-36 -58 -72.5 -108t-75 -90.5t-80 -71.5t-87.5 -51q49 -18 94 -48t87.5 -70.5t81.5 -90.5t77 -109l762 -1178h-450l-713 1109q-29 46 -55 81t-51.5 61
t-53 43.5t-59 27.5t-68.5 14.5t-81 4.5h-216v-1341h-385v1341z" />
    <glyph glyph-name="uni0417" unicode="&#x417;" horiz-adv-x="2445" 
d="M1060 -49q-144 0 -265.5 11.5t-225 31.5t-192.5 49t-169 65v336q84 -34 173 -63t191 -51.5t219.5 -35.5t257.5 -13q122 0 224 18t184 51t144.5 80.5t104 106.5t63 129t21.5 148q0 119 -46 218t-138 170.5t-229.5 111.5t-321.5 40h-455v316h401q171 0 298.5 38t212 107.5
t126.5 168.5t42 221q0 71 -20.5 134.5t-58.5 116.5t-94.5 95t-127.5 71.5t-156.5 44.5t-182.5 15q-110 0 -215 -12.5t-202 -35t-184.5 -53.5t-159.5 -66v328q69 39 156 71t188.5 54t214 34.5t232.5 12.5q156 0 291.5 -24.5t247.5 -71t199 -115.5t146.5 -157.5t91 -196
t31.5 -233.5q0 -117 -30 -218.5t-86.5 -186t-136.5 -151t-180 -113.5q125 -48 225.5 -122.5t170.5 -171t108 -211t38 -241.5q0 -122 -32.5 -232.5t-96 -205t-158 -170.5t-219.5 -130.5t-280 -83.5t-340 -29z" />
    <glyph glyph-name="uni0418" unicode="&#x418;" horiz-adv-x="3203" 
d="M428 2966h376v-2019q0 -45 -1 -100t-3.5 -115t-6.5 -121t-9 -116q27 59 57.5 119t62.5 117t64 110t62 98l1357 2027h389v-2966h-377v2019q0 43 1 97t3.5 113t6.5 118.5t9 116.5q-28 -59 -58.5 -118t-62 -115.5t-62.5 -108.5t-59 -96l-1357 -2026h-392v2966z" />
    <glyph glyph-name="uni0419" unicode="&#x419;" horiz-adv-x="3203" 
d="M428 2966h376v-2019q0 -45 -1 -100t-3.5 -115t-6.5 -121t-9 -116q27 59 57.5 119t62.5 117t64 110t62 98l1357 2027h389v-2966h-377v2019q0 43 1 97t3.5 113t6.5 118.5t9 116.5q-28 -59 -58.5 -118t-62 -115.5t-62.5 -108.5t-59 -96l-1357 -2026h-392v2966zM1583 3144
q-141 0 -255 43.5t-195.5 123t-126.5 191t-48 247.5h276q8 -76 35.5 -135.5t72.5 -100t106 -61.5t135 -21q73 0 134 21t106 61.5t73 100t36 135.5h277q-3 -136 -49 -247.5t-127.5 -191t-195.5 -123t-254 -43.5z" />
    <glyph glyph-name="uni041A" unicode="&#x41a;" horiz-adv-x="2742" 
d="M428 2966h385v-1320h289q45 0 81.5 5.5t67.5 17t58 30t53 45.5t52 62.5t56 80.5l725 1079h446l-772 -1149q-37 -58 -76 -108t-81 -90.5t-86.5 -71.5t-92.5 -51q49 -19 93.5 -50t86.5 -71.5t81.5 -90t79.5 -106.5l810 -1178h-450l-761 1109q-30 45 -56 80.5t-52 62t-53 45
t-58 29.5t-67.5 16.5t-81.5 5.5h-292v-1348h-385v2966z" />
    <glyph glyph-name="uni041B" unicode="&#x41b;" horiz-adv-x="3093" 
d="M2280 0v2648h-1092q-1 -311 -6.5 -592t-19 -527t-39 -457t-66.5 -384t-101.5 -306t-145 -223.5t-195.5 -137.5t-253 -47q-35 0 -68.5 3.5t-65 9.5t-61 15t-55.5 21v298q30 -11 71.5 -18.5t93.5 -7.5q77 0 141.5 26.5t117 87.5t94 161.5t73 250t54 351.5t37 465.5
t20.5 593.5t6 735h1845v-2966h-385z" />
    <glyph glyph-name="uni041C" unicode="&#x41c;" horiz-adv-x="3743" 
d="M2940 0v2057q0 100 3.5 212t13.5 217q-43 -102 -96.5 -212t-100.5 -188l-763 -1253h-247l-760 1253q-25 41 -52 89.5t-53.5 100t-52.5 105t-48 105.5q10 -110 14.5 -219.5t4.5 -209.5v-2057h-375v2966h432l855 -1425q47 -78 86 -159t73 -167q32 86 72 167.5t90 159.5
l855 1424h425v-2966h-376z" />
    <glyph glyph-name="uni041D" unicode="&#x41d;" horiz-adv-x="3118" 
d="M2305 0v1358h-1492v-1358h-385v2966h385v-1291h1492v1291h385v-2966h-385z" />
    <glyph glyph-name="uni041E" unicode="&#x41e;" horiz-adv-x="3071" 
d="M1531 -49q-228 0 -410 51.5t-322 148t-239.5 233t-163.5 306.5t-94 369.5t-30 420.5q0 220 30.5 419.5t95 370t165 308.5t241.5 235t323 149.5t410 52.5t410.5 -51.5t323 -148t240.5 -233t164 -307t94 -369.5t30 -420q0 -220 -30.5 -420t-95.5 -370t-166 -308t-242 -235
t-324 -149.5t-410 -52.5zM1537 273q157 0 281.5 41.5t220 117.5t163.5 184.5t112.5 243t65 292t20.5 331.5t-20.5 331t-65 292t-112.5 243t-163.5 184.5t-220.5 117.5t-281 41q-157 0 -282 -41t-221 -117.5t-164.5 -184.5t-113 -243t-64.5 -292t-20 -331t20 -331.5
t64.5 -292t113 -243t164.5 -184.5t221 -117.5t282 -41.5z" />
    <glyph glyph-name="uni041F" unicode="&#x41f;" horiz-adv-x="3103" 
d="M2290 2648h-1477v-2648h-385v2966h2247v-2966h-385v2648z" />
    <glyph glyph-name="uni0420" unicode="&#x420;" horiz-adv-x="2567" 
d="M428 0v2966h983q172 0 313.5 -28.5t252.5 -83.5t193 -135t136.5 -182.5t81 -226.5t26.5 -266q0 -143 -25.5 -267.5t-79 -227.5t-137 -183t-200 -134.5t-267 -83.5t-338.5 -29h-554v-1119h-385zM1328 1426q189 0 321 41.5t213.5 121t118 194.5t36.5 261q0 139 -36.5 252.5
t-116.5 193.5t-206.5 124t-305.5 44h-539v-1232h515z" />
    <glyph glyph-name="uni0421" unicode="&#x421;" horiz-adv-x="2579" 
d="M2379 98q-77 -34 -162.5 -61.5t-187 -46.5t-221.5 -29t-267 -10q-199 0 -370.5 44t-314 130t-253 215t-186.5 299.5t-115.5 382.5t-39.5 464q0 229 37 431.5t109.5 372t180.5 304.5t250.5 228t319 143t385.5 50q116 0 229 -11t216 -32t192.5 -51.5t158.5 -68.5v-335
q-73 36 -161.5 65t-187 49.5t-205.5 31.5t-217 11q-154 0 -282 -35.5t-229.5 -105t-177 -171t-125.5 -233.5t-75 -293.5t-25 -349.5q0 -211 31.5 -382t90 -304.5t141.5 -230.5t186.5 -160.5t225 -94t256.5 -30.5q130 0 241.5 10t208.5 28t181.5 44t161.5 58v-326z" />
    <glyph glyph-name="uni0422" unicode="&#x422;" horiz-adv-x="2444" 
d="M1030 0v2648h-915v318h2214v-318h-915v-2648h-384z" />
    <glyph glyph-name="uni0423" unicode="&#x423;" horiz-adv-x="2532" 
d="M500 -32q-26 0 -52.5 2t-51 5.5t-47 8t-39.5 10.5v303q14 -3 30.5 -5.5t34.5 -4.5t39.5 -3t45.5 -1q100 0 180 28t150.5 94t136.5 173.5t138 264.5l7 21l-1024 2102h419l653 -1365q14 -33 30.5 -72t35 -82t38.5 -88.5t40 -90.5q20 45 40.5 90.5t40 88.5t37.5 82t33 72
l640 1365h411l-1024 -2191q-98 -213 -195.5 -366t-208 -250.5t-241.5 -144t-297 -46.5z" />
    <glyph glyph-name="uni0424" unicode="&#x424;" horiz-adv-x="3290" 
d="M1453 332q-204 2 -378 42t-315.5 113.5t-249.5 178t-181 236t-110.5 287t-37.5 330.5q0 172 41.5 326.5t119.5 286t190 237t253 180t309.5 115.5t358.5 42v260h383v-260q189 -1 358 -41.5t310 -114.5t253.5 -179t190 -236.5t119.5 -286.5t42 -329t-38 -328.5t-112 -286
t-182.5 -236.5t-250 -179t-314.5 -114.5t-376 -42.5v-332h-383v332zM577 1519q0 -133 25.5 -249.5t76 -213.5t125.5 -174.5t172.5 -131t217 -83t259.5 -31.5v1765q-133 -3 -250 -34.5t-214.5 -87t-174 -134t-129 -175.5t-80.5 -210.5t-28 -240.5zM2713 1519q0 127 -28 240.5
t-81.5 210.5t-130 175.5t-174 134t-214.5 87t-249 34.5v-1765q139 2 258.5 31.5t217 83t172 131t125.5 174.5t77.5 213.5t26.5 249.5z" />
    <glyph glyph-name="uni0425" unicode="&#x425;" horiz-adv-x="2626" 
d="M2109 0l-685 1026q-14 23 -30 49t-30.5 54t-28 56.5t-24.5 55.5q-13 -27 -27 -55.5t-28 -56.5t-29 -54t-30 -49l-684 -1026h-444l1019 1522l-961 1444h448l621 -943q15 -23 30 -49.5t29 -54.5t28 -56.5t27 -57.5q11 29 24.5 57.5t28 56.5t30 54.5t30.5 49.5l626 943h443
l-960 -1441l1026 -1525h-449z" />
    <glyph glyph-name="uni0426" unicode="&#x426;" horiz-adv-x="3160" 
d="M428 2966h385v-2649h1436v2649h384v-2649h358v-1022h-386v705h-2177v2966z" />
    <glyph glyph-name="uni0427" unicode="&#x427;" horiz-adv-x="2821" 
d="M2008 1109q-73 -25 -158 -45.5t-177.5 -35t-190 -22.5t-194.5 -8q-174 0 -316 26.5t-254 80.5t-194 135t-135.5 191t-79.5 249t-26 308v978h385v-945q0 -178 37.5 -308.5t119 -216t210 -127.5t309.5 -42q80 0 164.5 4t169.5 12t168.5 20t161.5 28v1575h385v-2966h-385
v1109z" />
    <glyph glyph-name="uni0428" unicode="&#x428;" horiz-adv-x="4647" 
d="M428 2966h385v-2649h1318v2649h385v-2649h1318v2649h386v-2966h-3792v2966z" />
    <glyph glyph-name="uni0429" unicode="&#x429;" horiz-adv-x="4747" 
d="M428 2966h385v-2649h1318v2649h385v-2649h1318v2649h386v-2649h356v-1022h-385v705h-3763v2966z" />
    <glyph glyph-name="uni042A" unicode="&#x42a;" horiz-adv-x="3110" 
d="M105 2966h1226v-1274h640q165 0 305.5 -26.5t254.5 -76.5t201 -123t146 -167.5t89.5 -208t30.5 -244.5q0 -130 -28.5 -243t-86.5 -207.5t-146 -168t-206 -124t-267 -77t-330 -26.5h-989v2648h-840v318zM1331 1379v-1065h559q184 0 317.5 34.5t221 101.5t129.5 166t42 230
q0 123 -42.5 221.5t-128 168t-214 106.5t-301.5 37h-583z" />
    <glyph glyph-name="uni042B" unicode="&#x42b;" horiz-adv-x="3697" 
d="M428 2966h385v-1274h625q165 0 305 -26.5t254.5 -76.5t201.5 -123t146.5 -167.5t89.5 -208t30 -244.5q0 -130 -28.5 -243t-86.5 -207.5t-146 -168t-206 -124t-267.5 -77t-330.5 -26.5h-972v2966zM2885 2966h385v-2966h-385v2966zM813 1379v-1065h544q184 0 317.5 34.5
t221 101.5t129.5 166t42 230q0 123 -42 221.5t-127.5 168t-214.5 106.5t-302 37h-568z" />
    <glyph glyph-name="uni042C" unicode="&#x42c;" horiz-adv-x="2591" 
d="M428 2966h385v-1274h639q166 0 306 -26.5t254.5 -76.5t201.5 -123t146 -167.5t89 -208t30 -244.5q0 -130 -28.5 -243t-86 -207.5t-145.5 -168t-206 -124t-267.5 -77t-330.5 -26.5h-987v2966zM813 1379v-1065h559q183 0 317 34.5t221 101.5t129.5 166t42.5 230
q0 123 -42.5 221.5t-128 168t-214 106.5t-301.5 37h-583z" />
    <glyph glyph-name="uni042D" unicode="&#x42d;" horiz-adv-x="2579" 
d="M688 1659h1283q-11 237 -74.5 425t-177.5 319.5t-278.5 201t-377.5 69.5q-110 0 -217 -11t-206 -31.5t-187.5 -49.5t-161.5 -65v331q69 39 158.5 70t192 52.5t216 33t230.5 11.5q209 0 385.5 -50t319 -143t250.5 -228t180.5 -304.5t109.5 -372t37 -431.5
q0 -252 -40.5 -464t-118 -382.5t-190 -299.5t-256.5 -215t-316.5 -130t-370.5 -44q-142 0 -260 10t-218 29t-185 46.5t-162 61.5v326q76 -32 161 -58t181.5 -44t208 -28t242.5 -10q126 0 241.5 27t217 83.5t185 142.5t144.5 203t97.5 267t43.5 334h-1287v318z" />
    <glyph glyph-name="uni042E" unicode="&#x42e;" horiz-adv-x="4349" 
d="M428 2966h385v-1291h758q12 195 51.5 370t109 324t170 268.5t236 203.5t306 129t379.5 45q227 0 408 -51.5t320.5 -148t239 -233t163 -307t93.5 -369.5t30 -420q0 -220 -30.5 -420t-95 -370t-164.5 -308t-240 -235t-322 -149.5t-408 -52.5q-216 0 -390.5 47.5t-311 135
t-236 213t-166.5 282t-102.5 340.5t-42.5 389h-755v-1358h-385v2966zM2823 273q155 0 279 41.5t218.5 117.5t162 184.5t111 243t63.5 292t20 331.5t-20 331t-63.5 292t-111 243t-162 184.5t-218.5 117.5t-279 41t-279 -41t-219 -117.5t-163 -184.5t-111.5 -243t-63.5 -292
t-20 -331t20 -331.5t63.5 -292t111.5 -243t163 -184.5t218.5 -117.5t279.5 -41.5z" />
    <glyph glyph-name="uni042F" unicode="&#x42f;" horiz-adv-x="2785" 
d="M1972 1241h-326q-45 0 -81.5 -5t-68 -17t-58 -30.5t-53 -45t-52.5 -62t-56 -80.5l-678 -1001h-456l722 1063q52 78 108 132.5t114 86.5q-149 31 -275 95t-217 166.5t-142.5 244.5t-51.5 329q0 213 61 372t185 265t313 159t445 53h952v-2966h-385v1241zM798 2117
q0 -150 43.5 -259t129.5 -180t213.5 -104.5t296.5 -33.5h491v1118h-504q-179 0 -305.5 -33t-207.5 -99.5t-119 -168.5t-38 -240z" />
    <glyph glyph-name="uni0430" unicode="&#x430;" horiz-adv-x="2360" 
d="M1672 0l-27 173q-65 -51 -141 -91.5t-161 -69.5t-180 -45t-199 -16q-161 0 -294.5 41t-229.5 118t-148.5 189t-52.5 253q0 111 32 204t95.5 167t158.5 129t220.5 91t282 54.5t343.5 18.5q50 0 96.5 -0.5t86 -1t79.5 -1.5v131q0 129 -30.5 222t-94.5 153t-164 88.5
t-240 28.5q-114 0 -215.5 -13.5t-190.5 -36t-164.5 -50.5t-137.5 -56v295q68 36 150 67.5t176.5 55.5t200 38t221.5 14q191 0 349 -40t271 -129t175 -232t62 -349v-1400h-329zM1633 944h-201q-219 0 -373.5 -23.5t-252.5 -71t-144 -120t-46 -168.5q0 -75 26.5 -133t79 -97
t132.5 -59t188 -20q85 0 164.5 11t152.5 33t141.5 54.5t132.5 76.5v517z" />
    <glyph glyph-name="uni0431" unicode="&#x431;" horiz-adv-x="2527" 
d="M1267 -49q-177 0 -319.5 39.5t-253 116.5t-190.5 189.5t-131.5 259t-76 324.5t-24.5 387q0 298 25 530t78 409t135.5 304.5t198 217.5t265.5 149t337 98l741 151v-322l-700 -150q-112 -26 -202.5 -57.5t-162 -75t-125.5 -102.5t-92.5 -137.5t-63 -179.5t-37.5 -230
q63 47 136 85.5t156 66.5t175 43t192 15q171 0 309 -37t246 -105t186 -164.5t129 -215t76 -256.5t25 -289q0 -147 -26.5 -283.5t-81 -254.5t-138.5 -214.5t-199 -166.5t-261 -107.5t-326 -37.5zM1246 1774q-86 0 -165 -11t-152.5 -32.5t-142 -53.5t-132.5 -75
q-2 -71 -2.5 -148t-0.5 -164q0 -253 35 -446t110.5 -323.5t194.5 -197.5t286 -67q115 0 207 25.5t163 72.5t122.5 114t84 151.5t48 184t15.5 211.5q0 117 -17.5 218.5t-54 186t-92 150.5t-130 111t-169 69t-208.5 24z" />
    </font>
</defs>
</svg>
